<?xml version="1.0" encoding="UTF-8" standalone="no"?>
<!DOCTYPE svg PUBLIC "-//W3C//DTD SVG 1.1//EN"
 "http://www.w3.org/Graphics/SVG/1.1/DTD/svg11.dtd">
<!-- Generated by graphviz version 2.40.1 (20161225.0304)
 -->
<!-- Title: G Pages: 1 -->
<svg width="736pt" height="718pt"
 viewBox="0.00 0.00 736.18 718.00" xmlns="http://www.w3.org/2000/svg" xmlns:xlink="http://www.w3.org/1999/xlink">
<g id="graph0" class="graph" transform="scale(1 1) rotate(0) translate(4 714)">
<title>G</title>
<polygon fill="#ffffff" stroke="transparent" points="-4,4 -4,-714 732.1805,-714 732.1805,4 -4,4"/>
<!-- A0 -->
<g id="node1" class="node">
<title>A0</title>
<ellipse fill="none" stroke="#000000" cx="18" cy="-699" rx="11" ry="11"/>
</g>
<!-- A1 -->
<g id="node2" class="node">
<title>A1</title>
<polygon fill="none" stroke="#000000" points="18,-651 0,-633 18,-615 36,-633 18,-651"/>
</g>
<!-- A0&#45;&gt;A1 -->
<g id="edge1" class="edge">
<title>A0&#45;&gt;A1</title>
<path fill="none" stroke="#000000" d="M18,-687.804C18,-680.5358 18,-670.7135 18,-661.3916"/>
<polygon fill="#000000" stroke="#000000" points="18,-651.2423 22.5001,-661.2423 18,-656.2423 18.0001,-661.2423 18.0001,-661.2423 18.0001,-661.2423 18,-656.2423 13.5001,-661.2424 18,-651.2423 18,-651.2423"/>
</g>
<!-- A2 -->
<g id="node3" class="node">
<title>A2</title>
<ellipse fill="none" stroke="#000000" cx="356" cy="-15" rx="11" ry="11"/>
<ellipse fill="none" stroke="#000000" cx="356" cy="-15" rx="15" ry="15"/>
</g>
<!-- A1&#45;&gt;A2 -->
<g id="edge2" class="edge">
<title>A1&#45;&gt;A2</title>
<path fill="none" stroke="#000000" d="M13.7123,-619.1824C8.9729,-602.6604 2,-574.0889 2,-549 2,-549 2,-549 2,-85 2,-46.6308 43.1353,-58.639 80,-48 126.8253,-34.4864 271.574,-21.7542 330.5749,-16.9828"/>
<polygon fill="#000000" stroke="#000000" points="340.8648,-16.1613 331.2547,-21.4429 335.8807,-16.5592 330.8965,-16.9572 330.8965,-16.9572 330.8965,-16.9572 335.8807,-16.5592 330.5384,-12.4714 340.8648,-16.1613 340.8648,-16.1613"/>
<text text-anchor="middle" x="72.0185" y="-323" font-family="Helvetica,sans-Serif" font-size="10.00" fill="#000000">[Addition conditions not fulfilled]</text>
</g>
<!-- A3 -->
<g id="node4" class="node">
<title>A3</title>
<path fill="none" stroke="#000000" d="M182.409,-567C182.409,-567 119.591,-567 119.591,-567 113.591,-567 107.591,-561 107.591,-555 107.591,-555 107.591,-543 107.591,-543 107.591,-537 113.591,-531 119.591,-531 119.591,-531 182.409,-531 182.409,-531 188.409,-531 194.409,-537 194.409,-543 194.409,-543 194.409,-555 194.409,-555 194.409,-561 188.409,-567 182.409,-567"/>
<text text-anchor="middle" x="151" y="-546" font-family="Helvetica,sans-Serif" font-size="10.00" fill="#000000">Add proposal</text>
</g>
<!-- A1&#45;&gt;A3 -->
<g id="edge3" class="edge">
<title>A1&#45;&gt;A3</title>
<path fill="none" stroke="#000000" d="M29.3395,-625.8382C47.8415,-614.1527 85.3166,-590.4842 113.8133,-572.4863"/>
<polygon fill="#000000" stroke="#000000" points="122.3379,-567.1023 116.286,-576.247 118.1105,-569.7723 113.883,-572.4423 113.883,-572.4423 113.883,-572.4423 118.1105,-569.7723 111.4801,-568.6376 122.3379,-567.1023 122.3379,-567.1023"/>
<text text-anchor="middle" x="153.6805" y="-588" font-family="Helvetica,sans-Serif" font-size="10.00" fill="#000000">[Addition conditions fulfilled]</text>
</g>
<!-- A4 -->
<g id="node5" class="node">
<title>A4</title>
<polygon fill="#d3d3d3" stroke="#000000" stroke-width="4" points="182,-489.5 182,-493.5 218,-493.5 218,-489.5 182,-489.5"/>
<text text-anchor="middle" x="199.639" y="-491.2" font-family="Helvetica,sans-Serif" font-size="1.00" fill="#000000"> </text>
</g>
<!-- A3&#45;&gt;A4 -->
<g id="edge4" class="edge">
<title>A3&#45;&gt;A4:n</title>
<path fill="none" stroke="#000000" d="M178.6504,-530.9823C187.16,-523.6639 195.154,-514.3956 198.4338,-503.7039"/>
<polygon fill="#000000" stroke="#000000" points="200,-493.5 202.9307,-504.067 199.2414,-498.4421 198.4828,-503.3842 198.4828,-503.3842 198.4828,-503.3842 199.2414,-498.4421 194.0349,-502.7015 200,-493.5 200,-493.5"/>
</g>
<!-- A5 -->
<g id="node6" class="node">
<title>A5</title>
<path fill="none" stroke="#000000" d="M238.2373,-398C238.2373,-398 161.7627,-398 161.7627,-398 155.7627,-398 149.7627,-392 149.7627,-386 149.7627,-386 149.7627,-374 149.7627,-374 149.7627,-368 155.7627,-362 161.7627,-362 161.7627,-362 238.2373,-362 238.2373,-362 244.2373,-362 250.2373,-368 250.2373,-374 250.2373,-374 250.2373,-386 250.2373,-386 250.2373,-392 244.2373,-398 238.2373,-398"/>
<text text-anchor="middle" x="200" y="-377" font-family="Helvetica,sans-Serif" font-size="10.00" fill="#000000">Cancel proposal</text>
</g>
<!-- A4&#45;&gt;A5 -->
<g id="edge5" class="edge">
<title>A4&#45;&gt;A5</title>
<path fill="none" stroke="#000000" d="M200,-489.1712C200,-478.9664 200,-437.4252 200,-408.6358"/>
<polygon fill="#000000" stroke="#000000" points="200,-398.3183 204.5001,-408.3182 200,-403.3183 200.0001,-408.3183 200.0001,-408.3183 200.0001,-408.3183 200,-403.3183 195.5001,-408.3183 200,-398.3183 200,-398.3183"/>
</g>
<!-- A8 -->
<g id="node9" class="node">
<title>A8</title>
<polygon fill="none" stroke="#000000" points="387,-452 369,-434 387,-416 405,-434 387,-452"/>
</g>
<!-- A4&#45;&gt;A8 -->
<g id="edge10" class="edge">
<title>A4&#45;&gt;A8</title>
<path fill="none" stroke="#000000" d="M206.6554,-489.4535C231.6598,-481.765 320.7361,-454.3753 363.6103,-441.192"/>
<polygon fill="#000000" stroke="#000000" points="373.2115,-438.2398 364.9758,-445.4802 368.4323,-439.7093 363.6531,-441.1789 363.6531,-441.1789 363.6531,-441.1789 368.4323,-439.7093 362.3305,-436.8777 373.2115,-438.2398 373.2115,-438.2398"/>
</g>
<!-- A6 -->
<g id="node7" class="node">
<title>A6</title>
<polygon fill="none" stroke="#000000" points="200,-187 182,-169 200,-151 218,-169 200,-187"/>
</g>
<!-- A5&#45;&gt;A6 -->
<g id="edge6" class="edge">
<title>A5&#45;&gt;A6</title>
<path fill="none" stroke="#000000" d="M200,-361.6442C200,-324.6863 200,-241.094 200,-197.1704"/>
<polygon fill="#000000" stroke="#000000" points="200,-187.1631 204.5001,-197.163 200,-192.1631 200.0001,-197.1631 200.0001,-197.1631 200.0001,-197.1631 200,-192.1631 195.5001,-197.1631 200,-187.1631 200,-187.1631"/>
</g>
<!-- A6&#45;&gt;A2 -->
<g id="edge9" class="edge">
<title>A6&#45;&gt;A2</title>
<path fill="none" stroke="#000000" d="M185.3801,-165.4659C141.2619,-154.1528 14.9913,-116.6457 56.754,-67 91.7305,-25.4215 264.3107,-17.0871 330.2894,-15.4177"/>
<polygon fill="#000000" stroke="#000000" points="340.6227,-15.1897 330.7244,-19.9093 335.6239,-15.3001 330.6251,-15.4104 330.6251,-15.4104 330.6251,-15.4104 335.6239,-15.3001 330.5258,-10.9115 340.6227,-15.1897 340.6227,-15.1897"/>
<text text-anchor="middle" x="109.623" y="-82" font-family="Helvetica,sans-Serif" font-size="10.00" fill="#000000">[Cancellation prohibited]</text>
</g>
<!-- A7 -->
<g id="node8" class="node">
<title>A7</title>
<path fill="none" stroke="#000000" d="M347.3583,-103C347.3583,-103 184.6417,-103 184.6417,-103 178.6417,-103 172.6417,-97 172.6417,-91 172.6417,-91 172.6417,-79 172.6417,-79 172.6417,-73 178.6417,-67 184.6417,-67 184.6417,-67 347.3583,-67 347.3583,-67 353.3583,-67 359.3583,-73 359.3583,-79 359.3583,-79 359.3583,-91 359.3583,-91 359.3583,-97 353.3583,-103 347.3583,-103"/>
<text text-anchor="middle" x="266" y="-82" font-family="Helvetica,sans-Serif" font-size="10.00" fill="#000000">Update proposal state to &#39;cancelled&#39;</text>
</g>
<!-- A6&#45;&gt;A7 -->
<g id="edge7" class="edge">
<title>A6&#45;&gt;A7</title>
<path fill="none" stroke="#000000" d="M206.6955,-157.1005C212.5376,-147.0979 221.5064,-132.6147 230.752,-121 233.5865,-117.4392 236.7248,-113.8388 239.9264,-110.3618"/>
<polygon fill="#000000" stroke="#000000" points="246.9429,-103.0109 243.2935,-113.3517 243.4906,-106.6278 240.0383,-110.2446 240.0383,-110.2446 240.0383,-110.2446 243.4906,-106.6278 236.7831,-107.1375 246.9429,-103.0109 246.9429,-103.0109"/>
<text text-anchor="middle" x="301.124" y="-124" font-family="Helvetica,sans-Serif" font-size="10.00" fill="#000000">[Cancellation conditions fulfilled]</text>
</g>
<!-- A7&#45;&gt;A2 -->
<g id="edge8" class="edge">
<title>A7&#45;&gt;A2</title>
<path fill="none" stroke="#000000" d="M289.1772,-66.9733C303.6693,-55.7017 322.1455,-41.3313 335.9953,-30.5592"/>
<polygon fill="#000000" stroke="#000000" points="343.9439,-24.3769 338.8131,-34.0685 339.9972,-27.4467 336.0504,-30.5164 336.0504,-30.5164 336.0504,-30.5164 339.9972,-27.4467 333.2876,-26.9643 343.9439,-24.3769 343.9439,-24.3769"/>
</g>
<!-- A8&#45;&gt;A2 -->
<g id="edge11" class="edge">
<title>A8&#45;&gt;A2</title>
<path fill="none" stroke="#000000" d="M387,-415.655C387,-394.168 387,-357.5 387,-326 387,-326 387,-326 387,-85 387,-67.2895 378.6012,-49.0509 370.5469,-35.6323"/>
<polygon fill="#000000" stroke="#000000" points="365.1334,-27.1782 374.3157,-33.1729 367.8297,-31.3889 370.526,-35.5996 370.526,-35.5996 370.526,-35.5996 367.8297,-31.3889 366.7364,-38.0263 365.1334,-27.1782 365.1334,-27.1782"/>
<text text-anchor="middle" x="463.684" y="-208" font-family="Helvetica,sans-Serif" font-size="10.00" fill="#000000">[Processing conditions not fulfilled]</text>
</g>
<!-- A9 -->
<g id="node10" class="node">
<title>A9</title>
<path fill="none" stroke="#000000" d="M529.7383,-344C529.7383,-344 448.2617,-344 448.2617,-344 442.2617,-344 436.2617,-338 436.2617,-332 436.2617,-332 436.2617,-320 436.2617,-320 436.2617,-314 442.2617,-308 448.2617,-308 448.2617,-308 529.7383,-308 529.7383,-308 535.7383,-308 541.7383,-314 541.7383,-320 541.7383,-320 541.7383,-332 541.7383,-332 541.7383,-338 535.7383,-344 529.7383,-344"/>
<text text-anchor="middle" x="489" y="-323" font-family="Helvetica,sans-Serif" font-size="10.00" fill="#000000">Process proposal</text>
</g>
<!-- A8&#45;&gt;A9 -->
<g id="edge12" class="edge">
<title>A8&#45;&gt;A9</title>
<path fill="none" stroke="#000000" d="M396.0518,-424.4157C411.2958,-408.2751 442.5826,-375.1478 464.6345,-351.7988"/>
<polygon fill="#000000" stroke="#000000" points="471.7223,-344.294 468.1277,-354.654 468.2892,-347.9291 464.8561,-351.5641 464.8561,-351.5641 464.8561,-351.5641 468.2892,-347.9291 461.5845,-348.4743 471.7223,-344.294 471.7223,-344.294"/>
<text text-anchor="middle" x="498.8415" y="-377" font-family="Helvetica,sans-Serif" font-size="10.00" fill="#000000">[Processing allowed]</text>
</g>
<!-- A10 -->
<g id="node11" class="node">
<title>A10</title>
<path fill="none" stroke="#000000" d="M615.2492,-271C615.2492,-271 448.7508,-271 448.7508,-271 442.7508,-271 436.7508,-265 436.7508,-259 436.7508,-259 436.7508,-247 436.7508,-247 436.7508,-241 442.7508,-235 448.7508,-235 448.7508,-235 615.2492,-235 615.2492,-235 621.2492,-235 627.2492,-241 627.2492,-247 627.2492,-247 627.2492,-259 627.2492,-259 627.2492,-265 621.2492,-271 615.2492,-271"/>
<text text-anchor="middle" x="532" y="-250" font-family="Helvetica,sans-Serif" font-size="10.00" fill="#000000">Update proposal state to &#39;processed&#39;</text>
</g>
<!-- A9&#45;&gt;A10 -->
<g id="edge13" class="edge">
<title>A9&#45;&gt;A10</title>
<path fill="none" stroke="#000000" d="M499.6292,-307.9551C504.6425,-299.4441 510.7259,-289.1165 516.2597,-279.7219"/>
<polygon fill="#000000" stroke="#000000" points="521.344,-271.0904 520.146,-281.9906 518.8063,-275.3985 516.2686,-279.7067 516.2686,-279.7067 516.2686,-279.7067 518.8063,-275.3985 512.3913,-277.4227 521.344,-271.0904 521.344,-271.0904"/>
</g>
<!-- A11 -->
<g id="node12" class="node">
<title>A11</title>
<polygon fill="none" stroke="#000000" points="555,-187 537,-169 555,-151 573,-169 555,-187"/>
</g>
<!-- A10&#45;&gt;A11 -->
<g id="edge14" class="edge">
<title>A10&#45;&gt;A11</title>
<path fill="none" stroke="#000000" d="M536.9907,-234.7733C540.3267,-222.5896 544.7523,-206.4263 548.3816,-193.1717"/>
<polygon fill="#000000" stroke="#000000" points="551.0853,-183.297 552.7846,-194.1305 549.7649,-188.1195 548.4444,-192.942 548.4444,-192.942 548.4444,-192.942 549.7649,-188.1195 544.1041,-191.7536 551.0853,-183.297 551.0853,-183.297"/>
</g>
<!-- A11&#45;&gt;A2 -->
<g id="edge15" class="edge">
<title>A11&#45;&gt;A2</title>
<path fill="none" stroke="#000000" d="M542.0363,-163.538C519.8027,-153.7391 473.7201,-131.508 441.862,-103 419.1688,-82.6931 422.6,-69.466 401,-48 393.9103,-40.9542 385.2261,-34.2277 377.3842,-28.7074"/>
<polygon fill="#000000" stroke="#000000" points="369.0182,-23.0347 379.8204,-24.9224 373.1566,-25.8408 377.2949,-28.6469 377.2949,-28.6469 377.2949,-28.6469 373.1566,-25.8408 374.7694,-32.3714 369.0182,-23.0347 369.0182,-23.0347"/>
<text text-anchor="middle" x="491.569" y="-82" font-family="Helvetica,sans-Serif" font-size="10.00" fill="#000000">[Proposal voting failed]</text>
</g>
<!-- A12 -->
<g id="node13" class="node">
<title>A12</title>
<path fill="none" stroke="#000000" d="M716.3614,-103C716.3614,-103 563.6386,-103 563.6386,-103 557.6386,-103 551.6386,-97 551.6386,-91 551.6386,-91 551.6386,-79 551.6386,-79 551.6386,-73 557.6386,-67 563.6386,-67 563.6386,-67 716.3614,-67 716.3614,-67 722.3614,-67 728.3614,-73 728.3614,-79 728.3614,-79 728.3614,-91 728.3614,-91 728.3614,-97 722.3614,-103 716.3614,-103"/>
<text text-anchor="middle" x="640" y="-82" font-family="Helvetica,sans-Serif" font-size="10.00" fill="#000000">Update proposal state to &#39;passed&#39;</text>
</g>
<!-- A11&#45;&gt;A12 -->
<g id="edge16" class="edge">
<title>A11&#45;&gt;A12</title>
<path fill="none" stroke="#000000" d="M564.0965,-160.0105C575.9811,-148.2657 597.2801,-127.2173 614.2972,-110.4004"/>
<polygon fill="#000000" stroke="#000000" points="621.7654,-103.0201 617.8157,-113.25 618.209,-106.5347 614.6526,-110.0492 614.6526,-110.0492 614.6526,-110.0492 618.209,-106.5347 611.4894,-106.8485 621.7654,-103.0201 621.7654,-103.0201"/>
<text text-anchor="middle" x="664.799" y="-124" font-family="Helvetica,sans-Serif" font-size="10.00" fill="#000000">[Proposal voting succeeded]</text>
</g>
<!-- A12&#45;&gt;A2 -->
<g id="edge17" class="edge">
<title>A12&#45;&gt;A2</title>
<path fill="none" stroke="#000000" d="M566.8629,-66.9733C505.6105,-51.8758 421.8023,-31.2189 380.7316,-21.0958"/>
<polygon fill="#000000" stroke="#000000" points="370.7917,-18.6458 381.578,-16.6698 375.6464,-19.8425 380.5011,-21.0391 380.5011,-21.0391 380.5011,-21.0391 375.6464,-19.8425 379.4241,-25.4083 370.7917,-18.6458 370.7917,-18.6458"/>
</g>
</g>
</svg>
