<?xml version="1.0" encoding="UTF-8" standalone="no"?>
<!DOCTYPE svg PUBLIC "-//W3C//DTD SVG 1.1//EN"
 "http://www.w3.org/Graphics/SVG/1.1/DTD/svg11.dtd">
<!-- Generated by graphviz version 2.40.1 (20161225.0304)
 -->
<!-- Title: G Pages: 1 -->
<svg width="815pt" height="1157pt"
 viewBox="0.00 0.00 814.73 1157.00" xmlns="http://www.w3.org/2000/svg" xmlns:xlink="http://www.w3.org/1999/xlink">
<g id="graph0" class="graph" transform="scale(1 1) rotate(0) translate(4 1153)">
<title>G</title>
<polygon fill="#ffffff" stroke="transparent" points="-4,4 -4,-1153 810.733,-1153 810.733,4 -4,4"/>
<!-- A0 -->
<g id="node1" class="node">
<title>A0</title>
<polygon fill="#f5f5dc" stroke="#000000" points="61.681,-1149 -.228,-1149 -.228,-1113 67.681,-1113 67.681,-1143 61.681,-1149"/>
<polyline fill="none" stroke="#000000" points="61.681,-1149 61.681,-1143 "/>
<polyline fill="none" stroke="#000000" points="67.681,-1143 61.681,-1143 "/>
<text text-anchor="middle" x="33.7265" y="-1134" font-family="Helvetica,sans-Serif" font-size="10.00" fill="#000000">Proposal</text>
<text text-anchor="middle" x="33.7265" y="-1122" font-family="Helvetica,sans-Serif" font-size="10.00" fill="#000000"> process</text>
</g>
<!-- A1 -->
<g id="node2" class="node">
<title>A1</title>
<ellipse fill="none" stroke="#000000" cx="96.7265" cy="-1131" rx="11" ry="11"/>
</g>
<!-- A2 -->
<g id="node3" class="node">
<title>A2</title>
<polygon fill="none" stroke="#000000" points="96.7265,-1076 78.7265,-1058 96.7265,-1040 114.7265,-1058 96.7265,-1076"/>
</g>
<!-- A1&#45;&gt;A2 -->
<g id="edge1" class="edge">
<title>A1&#45;&gt;A2</title>
<path fill="none" stroke="#000000" d="M96.7265,-1119.9129C96.7265,-1110.9959 96.7265,-1098.0618 96.7265,-1086.3187"/>
<polygon fill="#000000" stroke="#000000" points="96.7265,-1076.0186 101.2266,-1086.0186 96.7265,-1081.0186 96.7266,-1086.0186 96.7266,-1086.0186 96.7266,-1086.0186 96.7265,-1081.0186 92.2266,-1086.0186 96.7265,-1076.0186 96.7265,-1076.0186"/>
</g>
<!-- A3 -->
<g id="node4" class="node">
<title>A3</title>
<ellipse fill="none" stroke="#000000" cx="354.7265" cy="-15" rx="11" ry="11"/>
<ellipse fill="none" stroke="#000000" cx="354.7265" cy="-15" rx="15" ry="15"/>
</g>
<!-- A2&#45;&gt;A3 -->
<g id="edge2" class="edge">
<title>A2&#45;&gt;A3</title>
<path fill="none" stroke="#000000" d="M92.8533,-1043.8104C88.1181,-1025.184 80.7265,-991.4 80.7265,-962 80.7265,-962 80.7265,-962 80.7265,-89 80.7265,-37.7738 261.4786,-20.9438 329.3668,-16.4293"/>
<polygon fill="#000000" stroke="#000000" points="339.6048,-15.786 329.9067,-20.9043 334.6146,-16.0996 329.6245,-16.4132 329.6245,-16.4132 329.6245,-16.4132 334.6146,-16.0996 329.3422,-11.922 339.6048,-15.786 339.6048,-15.786"/>
<text text-anchor="middle" x="124.0725" y="-553" font-family="Helvetica,sans-Serif" font-size="10.00" fill="#000000">[Addition conditions</text>
<text text-anchor="middle" x="124.0725" y="-541" font-family="Helvetica,sans-Serif" font-size="10.00" fill="#000000"> not fulfilled]</text>
</g>
<!-- A4 -->
<g id="node5" class="node">
<title>A4</title>
<path fill="none" stroke="#000000" d="M233.1355,-980C233.1355,-980 170.3175,-980 170.3175,-980 164.3175,-980 158.3175,-974 158.3175,-968 158.3175,-968 158.3175,-956 158.3175,-956 158.3175,-950 164.3175,-944 170.3175,-944 170.3175,-944 233.1355,-944 233.1355,-944 239.1355,-944 245.1355,-950 245.1355,-956 245.1355,-956 245.1355,-968 245.1355,-968 245.1355,-974 239.1355,-980 233.1355,-980"/>
<text text-anchor="middle" x="201.7265" y="-959" font-family="Helvetica,sans-Serif" font-size="10.00" fill="#000000">Add proposal</text>
</g>
<!-- A2&#45;&gt;A4 -->
<g id="edge3" class="edge">
<title>A2&#45;&gt;A4</title>
<path fill="none" stroke="#000000" d="M106.4164,-1049.1406C121.6757,-1035.1893 151.8644,-1007.5882 174.1958,-987.1709"/>
<polygon fill="#000000" stroke="#000000" points="181.7297,-980.2828 177.3858,-990.3517 178.0395,-983.6567 174.3493,-987.0306 174.3493,-987.0306 174.3493,-987.0306 178.0395,-983.6567 171.3129,-983.7094 181.7297,-980.2828 181.7297,-980.2828"/>
<text text-anchor="middle" x="204.0725" y="-1013" font-family="Helvetica,sans-Serif" font-size="10.00" fill="#000000">[Addition conditions</text>
<text text-anchor="middle" x="204.0725" y="-1001" font-family="Helvetica,sans-Serif" font-size="10.00" fill="#000000"> fulfilled]</text>
</g>
<!-- A5 -->
<g id="node6" class="node">
<title>A5</title>
<polygon fill="#d3d3d3" stroke="#000000" stroke-width="4" points="215.7265,-902.5 215.7265,-906.5 251.7265,-906.5 251.7265,-902.5 215.7265,-902.5"/>
<text text-anchor="middle" x="233.3655" y="-904.2" font-family="Helvetica,sans-Serif" font-size="1.00" fill="#000000"> </text>
</g>
<!-- A4&#45;&gt;A5 -->
<g id="edge4" class="edge">
<title>A4&#45;&gt;A5:n</title>
<path fill="none" stroke="#000000" d="M218.4763,-943.95C224.2831,-936.2955 229.9579,-926.8149 232.4324,-916.7347"/>
<polygon fill="#000000" stroke="#000000" points="233.7265,-906.5 236.9365,-916.9855 233.0993,-911.4605 232.472,-916.421 232.472,-916.421 232.472,-916.421 233.0993,-911.4605 228.0076,-915.8565 233.7265,-906.5 233.7265,-906.5"/>
</g>
<!-- A6 -->
<g id="node7" class="node">
<title>A6</title>
<path fill="none" stroke="#000000" d="M271.9638,-811C271.9638,-811 195.4892,-811 195.4892,-811 189.4892,-811 183.4892,-805 183.4892,-799 183.4892,-799 183.4892,-787 183.4892,-787 183.4892,-781 189.4892,-775 195.4892,-775 195.4892,-775 271.9638,-775 271.9638,-775 277.9638,-775 283.9638,-781 283.9638,-787 283.9638,-787 283.9638,-799 283.9638,-799 283.9638,-805 277.9638,-811 271.9638,-811"/>
<text text-anchor="middle" x="233.7265" y="-790" font-family="Helvetica,sans-Serif" font-size="10.00" fill="#000000">Cancel proposal</text>
</g>
<!-- A5&#45;&gt;A6 -->
<g id="edge5" class="edge">
<title>A5&#45;&gt;A6</title>
<path fill="none" stroke="#000000" d="M233.7265,-902.1712C233.7265,-891.9664 233.7265,-850.4252 233.7265,-821.6358"/>
<polygon fill="#000000" stroke="#000000" points="233.7265,-811.3183 238.2266,-821.3182 233.7265,-816.3183 233.7266,-821.3183 233.7266,-821.3183 233.7266,-821.3183 233.7265,-816.3183 229.2266,-821.3183 233.7265,-811.3183 233.7265,-811.3183"/>
</g>
<!-- A9 -->
<g id="node10" class="node">
<title>A9</title>
<polygon fill="none" stroke="#000000" points="373.7265,-865 355.7265,-847 373.7265,-829 391.7265,-847 373.7265,-865"/>
</g>
<!-- A5&#45;&gt;A9 -->
<g id="edge10" class="edge">
<title>A5&#45;&gt;A9</title>
<path fill="none" stroke="#000000" d="M238.7092,-902.4535C256.5431,-895.1289 317.9126,-869.9236 351.4347,-856.1555"/>
<polygon fill="#000000" stroke="#000000" points="360.8651,-852.2824 353.3246,-860.2442 356.24,-854.182 351.6149,-856.0816 351.6149,-856.0816 351.6149,-856.0816 356.24,-854.182 349.9052,-851.919 360.8651,-852.2824 360.8651,-852.2824"/>
</g>
<!-- A7 -->
<g id="node8" class="node">
<title>A7</title>
<polygon fill="none" stroke="#000000" points="233.7265,-207 215.7265,-189 233.7265,-171 251.7265,-189 233.7265,-207"/>
</g>
<!-- A6&#45;&gt;A7 -->
<g id="edge6" class="edge">
<title>A6&#45;&gt;A7</title>
<path fill="none" stroke="#000000" d="M233.7265,-774.8456C233.7265,-755.0819 233.7265,-722.5451 233.7265,-694.5 233.7265,-694.5 233.7265,-694.5 233.7265,-262 233.7265,-247.2996 233.7265,-230.934 233.7265,-217.4302"/>
<polygon fill="#000000" stroke="#000000" points="233.7265,-207.3003 238.2266,-217.3003 233.7265,-212.3003 233.7266,-217.3003 233.7266,-217.3003 233.7266,-217.3003 233.7265,-212.3003 229.2266,-217.3004 233.7265,-207.3003 233.7265,-207.3003"/>
</g>
<!-- A7&#45;&gt;A3 -->
<g id="edge9" class="edge">
<title>A7&#45;&gt;A3</title>
<path fill="none" stroke="#000000" d="M221.4435,-182.6819C188.0206,-164.6869 100.2321,-111.5864 135.4805,-67 159.4326,-36.7026 276.869,-22.2068 329.3297,-17.1612"/>
<polygon fill="#000000" stroke="#000000" points="339.481,-16.2257 329.9362,-21.6245 334.5021,-16.6846 329.5232,-17.1435 329.5232,-17.1435 329.5232,-17.1435 334.5021,-16.6846 329.1102,-12.6625 339.481,-16.2257 339.481,-16.2257"/>
<text text-anchor="middle" x="188.3495" y="-86" font-family="Helvetica,sans-Serif" font-size="10.00" fill="#000000">[Cancellation prohibited]</text>
</g>
<!-- A8 -->
<g id="node9" class="node">
<title>A8</title>
<path fill="none" stroke="#000000" d="M333.3045,-111C333.3045,-111 264.1485,-111 264.1485,-111 258.1485,-111 252.1485,-105 252.1485,-99 252.1485,-99 252.1485,-79 252.1485,-79 252.1485,-73 258.1485,-67 264.1485,-67 264.1485,-67 333.3045,-67 333.3045,-67 339.3045,-67 345.3045,-73 345.3045,-79 345.3045,-79 345.3045,-99 345.3045,-99 345.3045,-105 339.3045,-111 333.3045,-111"/>
<text text-anchor="middle" x="298.7265" y="-98" font-family="Helvetica,sans-Serif" font-size="10.00" fill="#000000">Update</text>
<text text-anchor="middle" x="298.7265" y="-86" font-family="Helvetica,sans-Serif" font-size="10.00" fill="#000000"> proposal state</text>
<text text-anchor="middle" x="298.7265" y="-74" font-family="Helvetica,sans-Serif" font-size="10.00" fill="#000000"> to &#39;cancelled&#39;</text>
</g>
<!-- A7&#45;&gt;A8 -->
<g id="edge7" class="edge">
<title>A7&#45;&gt;A8</title>
<path fill="none" stroke="#000000" d="M236.6514,-173.7416C239.6029,-161.0041 245.0503,-142.7718 254.1475,-129 256.5994,-125.2882 259.4768,-121.6999 262.5689,-118.2975"/>
<polygon fill="#000000" stroke="#000000" points="269.5995,-111.1702 265.7805,-121.4496 266.0882,-114.7298 262.5769,-118.2894 262.5769,-118.2894 262.5769,-118.2894 266.0882,-114.7298 259.3732,-115.1292 269.5995,-111.1702 269.5995,-111.1702"/>
<text text-anchor="middle" x="306.516" y="-144" font-family="Helvetica,sans-Serif" font-size="10.00" fill="#000000">[Cancellation conditions</text>
<text text-anchor="middle" x="306.516" y="-132" font-family="Helvetica,sans-Serif" font-size="10.00" fill="#000000"> fulfilled]</text>
</g>
<!-- A8&#45;&gt;A3 -->
<g id="edge8" class="edge">
<title>A8&#45;&gt;A3</title>
<path fill="none" stroke="#000000" d="M315.5283,-66.7976C323.1034,-56.7877 331.9876,-45.0478 339.3811,-35.2779"/>
<polygon fill="#000000" stroke="#000000" points="345.4242,-27.2923 342.9781,-37.9819 342.407,-31.2793 339.3898,-35.2664 339.3898,-35.2664 339.3898,-35.2664 342.407,-31.2793 335.8014,-32.5508 345.4242,-27.2923 345.4242,-27.2923"/>
</g>
<!-- A9&#45;&gt;A3 -->
<g id="edge11" class="edge">
<title>A9&#45;&gt;A3</title>
<path fill="none" stroke="#000000" d="M373.7265,-828.7647C373.7265,-806.5988 373.7265,-768.0556 373.7265,-735 373.7265,-735 373.7265,-735 373.7265,-89 373.7265,-71.7092 368.7998,-52.8396 363.9639,-38.4827"/>
<polygon fill="#000000" stroke="#000000" points="360.5304,-28.9132 368.1432,-36.806 362.219,-33.6195 363.9076,-38.3257 363.9076,-38.3257 363.9076,-38.3257 362.219,-33.6195 359.672,-39.8455 360.5304,-28.9132 360.5304,-28.9132"/>
<text text-anchor="middle" x="423.738" y="-421" font-family="Helvetica,sans-Serif" font-size="10.00" fill="#000000">[Processing conditions</text>
<text text-anchor="middle" x="423.738" y="-409" font-family="Helvetica,sans-Serif" font-size="10.00" fill="#000000"> not fulfilled]</text>
</g>
<!-- A10 -->
<g id="node11" class="node">
<title>A10</title>
<path fill="none" stroke="#000000" d="M503.3045,-757C503.3045,-757 434.1485,-757 434.1485,-757 428.1485,-757 422.1485,-751 422.1485,-745 422.1485,-745 422.1485,-725 422.1485,-725 422.1485,-719 428.1485,-713 434.1485,-713 434.1485,-713 503.3045,-713 503.3045,-713 509.3045,-713 515.3045,-719 515.3045,-725 515.3045,-725 515.3045,-745 515.3045,-745 515.3045,-751 509.3045,-757 503.3045,-757"/>
<text text-anchor="middle" x="468.7265" y="-744" font-family="Helvetica,sans-Serif" font-size="10.00" fill="#000000">Update</text>
<text text-anchor="middle" x="468.7265" y="-732" font-family="Helvetica,sans-Serif" font-size="10.00" fill="#000000"> proposal state</text>
<text text-anchor="middle" x="468.7265" y="-720" font-family="Helvetica,sans-Serif" font-size="10.00" fill="#000000"> to &#39;processed&#39;</text>
</g>
<!-- A9&#45;&gt;A10 -->
<g id="edge12" class="edge">
<title>A9&#45;&gt;A10</title>
<path fill="none" stroke="#000000" d="M382.1571,-837.0607C395.7022,-821.0919 422.8467,-789.0899 443.1479,-765.1558"/>
<polygon fill="#000000" stroke="#000000" points="449.7408,-757.3831 446.704,-767.9201 446.5065,-761.1962 443.2722,-765.0092 443.2722,-765.0092 443.2722,-765.0092 446.5065,-761.1962 439.8405,-762.0984 449.7408,-757.3831 449.7408,-757.3831"/>
<text text-anchor="middle" x="477.568" y="-790" font-family="Helvetica,sans-Serif" font-size="10.00" fill="#000000">[Processing allowed]</text>
</g>
<!-- A11 -->
<g id="node12" class="node">
<title>A11</title>
<path fill="#f5f5dc" stroke="#000000" d="M515.7955,-676C515.7955,-676 451.6575,-676 451.6575,-676 445.6575,-676 439.6575,-670 439.6575,-664 439.6575,-664 439.6575,-652 439.6575,-652 439.6575,-646 445.6575,-640 451.6575,-640 451.6575,-640 515.7955,-640 515.7955,-640 521.7955,-640 527.7955,-646 527.7955,-652 527.7955,-652 527.7955,-664 527.7955,-664 527.7955,-670 521.7955,-676 515.7955,-676"/>
<text text-anchor="middle" x="483.7265" y="-661" font-family="Helvetica,sans-Serif" font-size="10.00" fill="#000000">Voting results</text>
<text text-anchor="middle" x="483.7265" y="-649" font-family="Helvetica,sans-Serif" font-size="10.00" fill="#000000"> validation</text>
</g>
<!-- A10&#45;&gt;A11 -->
<g id="edge13" class="edge">
<title>A10&#45;&gt;A11</title>
<path fill="none" stroke="#000000" d="M473.0651,-712.7284C474.6945,-704.3643 476.5675,-694.7494 478.2846,-685.9352"/>
<polygon fill="#000000" stroke="#000000" points="480.2046,-676.0789 482.7094,-686.7549 479.2485,-680.9867 478.2924,-685.8944 478.2924,-685.8944 478.2924,-685.8944 479.2485,-680.9867 473.8755,-685.0339 480.2046,-676.0789 480.2046,-676.0789"/>
</g>
<!-- A12 -->
<g id="node13" class="node">
<title>A12</title>
<polygon fill="none" stroke="#000000" points="488.7265,-568 470.7265,-550 488.7265,-532 506.7265,-550 488.7265,-568"/>
</g>
<!-- A11&#45;&gt;A12 -->
<g id="edge14" class="edge">
<title>A11&#45;&gt;A12</title>
<path fill="none" stroke="#000000" d="M484.5747,-639.6793C485.3646,-622.6178 486.5526,-596.9553 487.4558,-577.4477"/>
<polygon fill="#000000" stroke="#000000" points="487.9239,-567.3371 491.9565,-577.5345 487.6926,-572.3317 487.4613,-577.3264 487.4613,-577.3264 487.4613,-577.3264 487.6926,-572.3317 482.9661,-577.1182 487.9239,-567.3371 487.9239,-567.3371"/>
<text text-anchor="middle" x="506.1725" y="-613" font-family="Helvetica,sans-Serif" font-size="10.00" fill="#000000">[process</text>
<text text-anchor="middle" x="506.1725" y="-601" font-family="Helvetica,sans-Serif" font-size="10.00" fill="#000000"> diagram</text>
<text text-anchor="middle" x="506.1725" y="-589" font-family="Helvetica,sans-Serif" font-size="10.00" fill="#000000"> exists]</text>
</g>
<!-- A12&#45;&gt;A3 -->
<g id="edge15" class="edge">
<title>A12&#45;&gt;A3</title>
<path fill="none" stroke="#000000" d="M488.7265,-531.9756C488.7265,-514.9658 488.7265,-488.75 488.7265,-466 488.7265,-466 488.7265,-466 488.7265,-89 488.7265,-39.8093 418.6735,-23.0661 379.8694,-17.5649"/>
<polygon fill="#000000" stroke="#000000" points="369.8375,-16.2938 380.3239,-13.0866 374.7979,-16.9224 379.7582,-17.5509 379.7582,-17.5509 379.7582,-17.5509 374.7979,-16.9224 379.1925,-22.0152 369.8375,-16.2938 369.8375,-16.2938"/>
<text text-anchor="middle" x="539.2955" y="-259" font-family="Helvetica,sans-Serif" font-size="10.00" fill="#000000">[Proposal voting failed]</text>
</g>
<!-- A13 -->
<g id="node14" class="node">
<title>A13</title>
<path fill="none" stroke="#000000" d="M645.5317,-484C645.5317,-484 553.9213,-484 553.9213,-484 547.9213,-484 541.9213,-478 541.9213,-472 541.9213,-472 541.9213,-460 541.9213,-460 541.9213,-454 547.9213,-448 553.9213,-448 553.9213,-448 645.5317,-448 645.5317,-448 651.5317,-448 657.5317,-454 657.5317,-460 657.5317,-460 657.5317,-472 657.5317,-472 657.5317,-478 651.5317,-484 645.5317,-484"/>
<text text-anchor="middle" x="599.7265" y="-463" font-family="Helvetica,sans-Serif" font-size="10.00" fill="#000000">Execute transaction</text>
</g>
<!-- A12&#45;&gt;A13 -->
<g id="edge16" class="edge">
<title>A12&#45;&gt;A13</title>
<path fill="none" stroke="#000000" d="M499.3696,-541.9457C514.9311,-530.1695 544.5454,-507.7587 567.5878,-490.3212"/>
<polygon fill="#000000" stroke="#000000" points="575.7415,-484.1508 570.483,-493.7736 571.7545,-487.168 567.7675,-490.1852 567.7675,-490.1852 567.7675,-490.1852 571.7545,-487.168 565.0519,-486.5969 575.7415,-484.1508 575.7415,-484.1508"/>
<text text-anchor="middle" x="613.5255" y="-505" font-family="Helvetica,sans-Serif" font-size="10.00" fill="#000000">[Proposal voting succeeded]</text>
</g>
<!-- A14 -->
<g id="node15" class="node">
<title>A14</title>
<polygon fill="none" stroke="#000000" points="625.7265,-388 607.7265,-370 625.7265,-352 643.7265,-370 625.7265,-388"/>
</g>
<!-- A13&#45;&gt;A14 -->
<g id="edge17" class="edge">
<title>A13&#45;&gt;A14</title>
<path fill="none" stroke="#000000" d="M604.6169,-447.9431C608.7196,-432.7946 614.6166,-411.0212 619.1356,-394.3357"/>
<polygon fill="#000000" stroke="#000000" points="621.8735,-384.2265 623.6028,-395.0551 620.5664,-389.0526 619.2593,-393.8787 619.2593,-393.8787 619.2593,-393.8787 620.5664,-389.0526 614.9158,-392.7023 621.8735,-384.2265 621.8735,-384.2265"/>
</g>
<!-- A15 -->
<g id="node16" class="node">
<title>A15</title>
<polygon fill="#d3d3d3" stroke="#000000" stroke-width="4" points="616.7265,-187 616.7265,-191 652.7265,-191 652.7265,-187 616.7265,-187"/>
<text text-anchor="middle" x="625.3655" y="-188.7" font-family="Helvetica,sans-Serif" font-size="1.00" fill="#000000"> </text>
<polyline fill="none" stroke="#000000" stroke-width="4" points="634.0044,-187 634.0044,-191 "/>
<text text-anchor="middle" x="643.1433" y="-188.7" font-family="Helvetica,sans-Serif" font-size="1.00" fill="#000000"> </text>
</g>
<!-- A14&#45;&gt;A15 -->
<g id="edge18" class="edge">
<title>A14&#45;&gt;A15:n</title>
<path fill="none" stroke="#000000" d="M625.7265,-351.9607C625.7265,-321.5061 625.7265,-257.6751 625.7265,-201.1028"/>
<polygon fill="#000000" stroke="#000000" points="625.7265,-191 630.2266,-201 625.7265,-196 625.7266,-201 625.7266,-201 625.7266,-201 625.7265,-196 621.2266,-201 625.7265,-191 625.7265,-191"/>
<text text-anchor="middle" x="653.2315" y="-271" font-family="Helvetica,sans-Serif" font-size="10.00" fill="#000000">[Transaction</text>
<text text-anchor="middle" x="653.2315" y="-259" font-family="Helvetica,sans-Serif" font-size="10.00" fill="#000000"> execution</text>
<text text-anchor="middle" x="653.2315" y="-247" font-family="Helvetica,sans-Serif" font-size="10.00" fill="#000000"> succeeded]</text>
</g>
<!-- A16 -->
<g id="node17" class="node">
<title>A16</title>
<path fill="none" stroke="#000000" d="M794.7395,-280C794.7395,-280 710.7135,-280 710.7135,-280 704.7135,-280 698.7135,-274 698.7135,-268 698.7135,-268 698.7135,-256 698.7135,-256 698.7135,-250 704.7135,-244 710.7135,-244 710.7135,-244 794.7395,-244 794.7395,-244 800.7395,-244 806.7395,-250 806.7395,-256 806.7395,-256 806.7395,-268 806.7395,-268 806.7395,-274 800.7395,-280 794.7395,-280"/>
<text text-anchor="middle" x="752.7265" y="-259" font-family="Helvetica,sans-Serif" font-size="10.00" fill="#000000">Save failure result</text>
</g>
<!-- A14&#45;&gt;A16 -->
<g id="edge19" class="edge">
<title>A14&#45;&gt;A16</title>
<path fill="none" stroke="#000000" d="M635.692,-361.5254C654.3194,-345.6848 695.0723,-311.0288 723.208,-287.1024"/>
<polygon fill="#000000" stroke="#000000" points="731.1377,-280.359 726.435,-290.2653 727.3288,-283.5981 723.5198,-286.8372 723.5198,-286.8372 723.5198,-286.8372 727.3288,-283.5981 720.6046,-283.4091 731.1377,-280.359 731.1377,-280.359"/>
<text text-anchor="middle" x="735.2315" y="-325" font-family="Helvetica,sans-Serif" font-size="10.00" fill="#000000">[Transaction</text>
<text text-anchor="middle" x="735.2315" y="-313" font-family="Helvetica,sans-Serif" font-size="10.00" fill="#000000"> execution</text>
<text text-anchor="middle" x="735.2315" y="-301" font-family="Helvetica,sans-Serif" font-size="10.00" fill="#000000"> failed]</text>
</g>
<!-- A17 -->
<g id="node18" class="node">
<title>A17</title>
<path fill="none" stroke="#000000" d="M633.3045,-111C633.3045,-111 564.1485,-111 564.1485,-111 558.1485,-111 552.1485,-105 552.1485,-99 552.1485,-99 552.1485,-79 552.1485,-79 552.1485,-73 558.1485,-67 564.1485,-67 564.1485,-67 633.3045,-67 633.3045,-67 639.3045,-67 645.3045,-73 645.3045,-79 645.3045,-79 645.3045,-99 645.3045,-99 645.3045,-105 639.3045,-111 633.3045,-111"/>
<text text-anchor="middle" x="598.7265" y="-98" font-family="Helvetica,sans-Serif" font-size="10.00" fill="#000000">Update</text>
<text text-anchor="middle" x="598.7265" y="-86" font-family="Helvetica,sans-Serif" font-size="10.00" fill="#000000"> proposal state</text>
<text text-anchor="middle" x="598.7265" y="-74" font-family="Helvetica,sans-Serif" font-size="10.00" fill="#000000"> to &#39;passed&#39;</text>
</g>
<!-- A15&#45;&gt;A17 -->
<g id="edge21" class="edge">
<title>A15&#45;&gt;A17</title>
<path fill="none" stroke="#000000" d="M633.9746,-186.9114C630.9261,-178.4432 619.2159,-145.915 610.1196,-120.6474"/>
<polygon fill="#000000" stroke="#000000" points="606.6617,-111.0421 614.2829,-118.9267 608.3553,-115.7466 610.0489,-120.451 610.0489,-120.451 610.0489,-120.451 608.3553,-115.7466 605.8149,-121.9753 606.6617,-111.0421 606.6617,-111.0421"/>
</g>
<!-- A16&#45;&gt;A15 -->
<g id="edge20" class="edge">
<title>A16&#45;&gt;A15:n</title>
<path fill="none" stroke="#000000" d="M698.6933,-248.6859C674.2434,-239.5213 649.5388,-224.6433 643.9142,-201.1899"/>
<polygon fill="#000000" stroke="#000000" points="642.7265,-191 648.3541,-200.4117 643.3054,-195.9664 643.8843,-200.9328 643.8843,-200.9328 643.8843,-200.9328 643.3054,-195.9664 639.4146,-201.4538 642.7265,-191 642.7265,-191"/>
</g>
<!-- A17&#45;&gt;A3 -->
<g id="edge22" class="edge">
<title>A17&#45;&gt;A3</title>
<path fill="none" stroke="#000000" d="M552.0211,-67.0093C536.5601,-60.2835 519.1148,-53.2769 502.7265,-48 460.3229,-34.3464 409.3114,-24.3243 379.5994,-19.0985"/>
<polygon fill="#000000" stroke="#000000" points="369.672,-17.3924 380.2897,-14.6512 374.5997,-18.2393 379.5275,-19.0862 379.5275,-19.0862 379.5275,-19.0862 374.5997,-18.2393 378.7652,-23.5212 369.672,-17.3924 369.672,-17.3924"/>
</g>
</g>
</svg>
