<?xml version="1.0" encoding="UTF-8" standalone="no"?>
<!DOCTYPE svg PUBLIC "-//W3C//DTD SVG 1.1//EN"
 "http://www.w3.org/Graphics/SVG/1.1/DTD/svg11.dtd">
<!-- Generated by graphviz version 2.40.1 (20161225.0304)
 -->
<!-- Title: G Pages: 1 -->
<svg width="645pt" height="754pt"
 viewBox="0.00 0.00 644.60 754.00" xmlns="http://www.w3.org/2000/svg" xmlns:xlink="http://www.w3.org/1999/xlink">
<g id="graph0" class="graph" transform="scale(1 1) rotate(0) translate(4 750)">
<title>G</title>
<polygon fill="#ffffff" stroke="transparent" points="-4,4 -4,-750 640.598,-750 640.598,4 -4,4"/>
<!-- A0 -->
<g id="node1" class="node">
<title>A0</title>
<ellipse fill="none" stroke="#000000" cx="18" cy="-735" rx="11" ry="11"/>
</g>
<!-- A1 -->
<g id="node2" class="node">
<title>A1</title>
<polygon fill="none" stroke="#000000" points="18,-687 0,-669 18,-651 36,-669 18,-687"/>
</g>
<!-- A0&#45;&gt;A1 -->
<g id="edge1" class="edge">
<title>A0&#45;&gt;A1</title>
<path fill="none" stroke="#000000" d="M18,-723.804C18,-716.5358 18,-706.7135 18,-697.3916"/>
<polygon fill="#000000" stroke="#000000" points="18,-687.2423 22.5001,-697.2423 18,-692.2423 18.0001,-697.2423 18.0001,-697.2423 18.0001,-697.2423 18,-692.2423 13.5001,-697.2424 18,-687.2423 18,-687.2423"/>
</g>
<!-- A2 -->
<g id="node3" class="node">
<title>A2</title>
<ellipse fill="none" stroke="#000000" cx="304" cy="-15" rx="11" ry="11"/>
<ellipse fill="none" stroke="#000000" cx="304" cy="-15" rx="15" ry="15"/>
</g>
<!-- A1&#45;&gt;A2 -->
<g id="edge2" class="edge">
<title>A1&#45;&gt;A2</title>
<path fill="none" stroke="#000000" d="M14.1268,-654.8104C9.3916,-636.184 2,-602.4 2,-573 2,-573 2,-573 2,-85 2,-28.4322 205.6243,-17.5656 278.4693,-15.4881"/>
<polygon fill="#000000" stroke="#000000" points="288.6086,-15.2326 278.7251,-19.9831 283.6102,-15.3586 278.6118,-15.4846 278.6118,-15.4846 278.6118,-15.4846 283.6102,-15.3586 278.4984,-10.986 288.6086,-15.2326 288.6086,-15.2326"/>
<text text-anchor="middle" x="45.346" y="-353" font-family="Helvetica,sans-Serif" font-size="10.00" fill="#000000">[Addition conditions</text>
<text text-anchor="middle" x="45.346" y="-341" font-family="Helvetica,sans-Serif" font-size="10.00" fill="#000000"> not fulfilled]</text>
</g>
<!-- A3 -->
<g id="node4" class="node">
<title>A3</title>
<path fill="none" stroke="#000000" d="M170.409,-591C170.409,-591 107.591,-591 107.591,-591 101.591,-591 95.591,-585 95.591,-579 95.591,-579 95.591,-567 95.591,-567 95.591,-561 101.591,-555 107.591,-555 107.591,-555 170.409,-555 170.409,-555 176.409,-555 182.409,-561 182.409,-567 182.409,-567 182.409,-579 182.409,-579 182.409,-585 176.409,-591 170.409,-591"/>
<text text-anchor="middle" x="139" y="-570" font-family="Helvetica,sans-Serif" font-size="10.00" fill="#000000">Add proposal</text>
</g>
<!-- A1&#45;&gt;A3 -->
<g id="edge3" class="edge">
<title>A1&#45;&gt;A3</title>
<path fill="none" stroke="#000000" d="M28.3164,-660.8151C45.7469,-646.9859 81.6866,-618.4718 107.8989,-597.6753"/>
<polygon fill="#000000" stroke="#000000" points="116.0318,-591.2227 110.9948,-600.9633 112.1148,-594.3304 108.1979,-597.4381 108.1979,-597.4381 108.1979,-597.4381 112.1148,-594.3304 105.401,-593.9128 116.0318,-591.2227 116.0318,-591.2227"/>
<text text-anchor="middle" x="135.346" y="-624" font-family="Helvetica,sans-Serif" font-size="10.00" fill="#000000">[Addition conditions</text>
<text text-anchor="middle" x="135.346" y="-612" font-family="Helvetica,sans-Serif" font-size="10.00" fill="#000000"> fulfilled]</text>
</g>
<!-- A4 -->
<g id="node5" class="node">
<title>A4</title>
<polygon fill="#d3d3d3" stroke="#000000" stroke-width="4" points="163,-513.5 163,-517.5 199,-517.5 199,-513.5 163,-513.5"/>
<text text-anchor="middle" x="180.639" y="-515.2" font-family="Helvetica,sans-Serif" font-size="1.00" fill="#000000"> </text>
</g>
<!-- A3&#45;&gt;A4 -->
<g id="edge4" class="edge">
<title>A3&#45;&gt;A4:n</title>
<path fill="none" stroke="#000000" d="M161.9662,-554.9288C169.4734,-547.4046 176.6424,-537.9614 179.5906,-527.4407"/>
<polygon fill="#000000" stroke="#000000" points="181,-517.5 184.0516,-528.0327 180.2981,-522.4505 179.5961,-527.401 179.5961,-527.401 179.5961,-527.401 180.2981,-522.4505 175.1407,-526.7692 181,-517.5 181,-517.5"/>
</g>
<!-- A5 -->
<g id="node6" class="node">
<title>A5</title>
<path fill="none" stroke="#000000" d="M219.2373,-422C219.2373,-422 142.7627,-422 142.7627,-422 136.7627,-422 130.7627,-416 130.7627,-410 130.7627,-410 130.7627,-398 130.7627,-398 130.7627,-392 136.7627,-386 142.7627,-386 142.7627,-386 219.2373,-386 219.2373,-386 225.2373,-386 231.2373,-392 231.2373,-398 231.2373,-398 231.2373,-410 231.2373,-410 231.2373,-416 225.2373,-422 219.2373,-422"/>
<text text-anchor="middle" x="181" y="-401" font-family="Helvetica,sans-Serif" font-size="10.00" fill="#000000">Cancel proposal</text>
</g>
<!-- A4&#45;&gt;A5 -->
<g id="edge5" class="edge">
<title>A4&#45;&gt;A5</title>
<path fill="none" stroke="#000000" d="M181,-513.1712C181,-502.9664 181,-461.4252 181,-432.6358"/>
<polygon fill="#000000" stroke="#000000" points="181,-422.3183 185.5001,-432.3182 181,-427.3183 181.0001,-432.3183 181.0001,-432.3183 181.0001,-432.3183 181,-427.3183 176.5001,-432.3183 181,-422.3183 181,-422.3183"/>
</g>
<!-- A8 -->
<g id="node9" class="node">
<title>A8</title>
<polygon fill="none" stroke="#000000" points="327,-476 309,-458 327,-440 345,-458 327,-476"/>
</g>
<!-- A4&#45;&gt;A8 -->
<g id="edge10" class="edge">
<title>A4&#45;&gt;A8</title>
<path fill="none" stroke="#000000" d="M186.1962,-513.4535C204.9671,-506.0609 269.9861,-480.4541 304.7188,-466.7751"/>
<polygon fill="#000000" stroke="#000000" points="314.0455,-463.102 306.3901,-470.9534 309.3933,-464.9342 304.7411,-466.7664 304.7411,-466.7664 304.7411,-466.7664 309.3933,-464.9342 303.092,-462.5794 314.0455,-463.102 314.0455,-463.102"/>
</g>
<!-- A6 -->
<g id="node7" class="node">
<title>A6</title>
<polygon fill="none" stroke="#000000" points="181,-199 163,-181 181,-163 199,-181 181,-199"/>
</g>
<!-- A5&#45;&gt;A6 -->
<g id="edge6" class="edge">
<title>A5&#45;&gt;A6</title>
<path fill="none" stroke="#000000" d="M181,-385.751C181,-346.9417 181,-255.9715 181,-209.4661"/>
<polygon fill="#000000" stroke="#000000" points="181,-199.1884 185.5001,-209.1884 181,-204.1884 181.0001,-209.1884 181.0001,-209.1884 181.0001,-209.1884 181,-204.1884 176.5001,-209.1885 181,-199.1884 181,-199.1884"/>
</g>
<!-- A6&#45;&gt;A2 -->
<g id="edge9" class="edge">
<title>A6&#45;&gt;A2</title>
<path fill="none" stroke="#000000" d="M167.5057,-176.2216C127.9951,-161.5256 17.7377,-115.0756 56.754,-67 84.6039,-32.6835 221.8076,-20.1719 278.9511,-16.4005"/>
<polygon fill="#000000" stroke="#000000" points="288.9513,-15.7767 279.2509,-20.8906 283.961,-16.088 278.9707,-16.3994 278.9707,-16.3994 278.9707,-16.3994 283.961,-16.088 278.6905,-11.9081 288.9513,-15.7767 288.9513,-15.7767"/>
<text text-anchor="middle" x="109.623" y="-82" font-family="Helvetica,sans-Serif" font-size="10.00" fill="#000000">[Cancellation prohibited]</text>
</g>
<!-- A7 -->
<g id="node8" class="node">
<title>A7</title>
<path fill="none" stroke="#000000" d="M286.8111,-103C286.8111,-103 185.1889,-103 185.1889,-103 179.1889,-103 173.1889,-97 173.1889,-91 173.1889,-91 173.1889,-79 173.1889,-79 173.1889,-73 179.1889,-67 185.1889,-67 185.1889,-67 286.8111,-67 286.8111,-67 292.8111,-67 298.8111,-73 298.8111,-79 298.8111,-79 298.8111,-91 298.8111,-91 298.8111,-97 292.8111,-103 286.8111,-103"/>
<text text-anchor="middle" x="236" y="-88" font-family="Helvetica,sans-Serif" font-size="10.00" fill="#000000">Update proposal state</text>
<text text-anchor="middle" x="236" y="-76" font-family="Helvetica,sans-Serif" font-size="10.00" fill="#000000"> to &#39;cancelled&#39;</text>
</g>
<!-- A6&#45;&gt;A7 -->
<g id="edge7" class="edge">
<title>A6&#45;&gt;A7</title>
<path fill="none" stroke="#000000" d="M185.7459,-167.646C190.4436,-155.1574 198.2481,-136.2028 207.421,-121 209.3921,-117.7332 211.6238,-114.4308 213.9501,-111.2203"/>
<polygon fill="#000000" stroke="#000000" points="220.2144,-103.0233 217.7177,-113.7012 217.1783,-106.996 214.1423,-110.9687 214.1423,-110.9687 214.1423,-110.9687 217.1783,-106.996 210.5668,-108.2363 220.2144,-103.0233 220.2144,-103.0233"/>
<text text-anchor="middle" x="259.7895" y="-136" font-family="Helvetica,sans-Serif" font-size="10.00" fill="#000000">[Cancellation conditions</text>
<text text-anchor="middle" x="259.7895" y="-124" font-family="Helvetica,sans-Serif" font-size="10.00" fill="#000000"> fulfilled]</text>
</g>
<!-- A7&#45;&gt;A2 -->
<g id="edge8" class="edge">
<title>A7&#45;&gt;A2</title>
<path fill="none" stroke="#000000" d="M253.5117,-66.9733C263.5463,-56.6435 276.1092,-43.7112 286.1928,-33.3309"/>
<polygon fill="#000000" stroke="#000000" points="293.3376,-25.976 289.5975,-36.2843 289.8537,-29.5624 286.3697,-33.1488 286.3697,-33.1488 286.3697,-33.1488 289.8537,-29.5624 283.142,-30.0132 293.3376,-25.976 293.3376,-25.976"/>
</g>
<!-- A8&#45;&gt;A2 -->
<g id="edge11" class="edge">
<title>A8&#45;&gt;A2</title>
<path fill="none" stroke="#000000" d="M327,-439.655C327,-418.168 327,-381.5 327,-350 327,-350 327,-350 327,-85 327,-68.5883 321.2233,-51.0451 315.46,-37.6265"/>
<polygon fill="#000000" stroke="#000000" points="311.1513,-28.2562 319.4176,-35.4617 313.2402,-32.799 315.3291,-37.3417 315.3291,-37.3417 315.3291,-37.3417 313.2402,-32.799 311.2406,-39.2218 311.1513,-28.2562 311.1513,-28.2562"/>
<text text-anchor="middle" x="377.0115" y="-232" font-family="Helvetica,sans-Serif" font-size="10.00" fill="#000000">[Processing conditions</text>
<text text-anchor="middle" x="377.0115" y="-220" font-family="Helvetica,sans-Serif" font-size="10.00" fill="#000000"> not fulfilled]</text>
</g>
<!-- A9 -->
<g id="node10" class="node">
<title>A9</title>
<path fill="none" stroke="#000000" d="M453.7383,-368C453.7383,-368 372.2617,-368 372.2617,-368 366.2617,-368 360.2617,-362 360.2617,-356 360.2617,-356 360.2617,-344 360.2617,-344 360.2617,-338 366.2617,-332 372.2617,-332 372.2617,-332 453.7383,-332 453.7383,-332 459.7383,-332 465.7383,-338 465.7383,-344 465.7383,-344 465.7383,-356 465.7383,-356 465.7383,-362 459.7383,-368 453.7383,-368"/>
<text text-anchor="middle" x="413" y="-347" font-family="Helvetica,sans-Serif" font-size="10.00" fill="#000000">Process proposal</text>
</g>
<!-- A8&#45;&gt;A9 -->
<g id="edge12" class="edge">
<title>A8&#45;&gt;A9</title>
<path fill="none" stroke="#000000" d="M335.246,-447.6445C348.2013,-431.3751 373.7278,-399.3185 392.0002,-376.3719"/>
<polygon fill="#000000" stroke="#000000" points="398.3671,-368.3762 395.6581,-379.0022 395.2525,-372.2876 392.1378,-376.199 392.1378,-376.199 392.1378,-376.199 395.2525,-372.2876 388.6176,-373.3958 398.3671,-368.3762 398.3671,-368.3762"/>
<text text-anchor="middle" x="427.8415" y="-401" font-family="Helvetica,sans-Serif" font-size="10.00" fill="#000000">[Processing allowed]</text>
</g>
<!-- A10 -->
<g id="node11" class="node">
<title>A10</title>
<path fill="none" stroke="#000000" d="M480.8111,-295C480.8111,-295 379.1889,-295 379.1889,-295 373.1889,-295 367.1889,-289 367.1889,-283 367.1889,-283 367.1889,-271 367.1889,-271 367.1889,-265 373.1889,-259 379.1889,-259 379.1889,-259 480.8111,-259 480.8111,-259 486.8111,-259 492.8111,-265 492.8111,-271 492.8111,-271 492.8111,-283 492.8111,-283 492.8111,-289 486.8111,-295 480.8111,-295"/>
<text text-anchor="middle" x="430" y="-280" font-family="Helvetica,sans-Serif" font-size="10.00" fill="#000000">Update proposal state</text>
<text text-anchor="middle" x="430" y="-268" font-family="Helvetica,sans-Serif" font-size="10.00" fill="#000000"> to &#39;processed&#39;</text>
</g>
<!-- A9&#45;&gt;A10 -->
<g id="edge13" class="edge">
<title>A9&#45;&gt;A10</title>
<path fill="none" stroke="#000000" d="M417.2022,-331.9551C419.1025,-323.7951 421.3917,-313.9652 423.5054,-304.8887"/>
<polygon fill="#000000" stroke="#000000" points="425.7872,-295.0904 427.9018,-305.8504 424.6531,-299.9601 423.519,-304.8298 423.519,-304.8298 423.519,-304.8298 424.6531,-299.9601 419.1363,-303.8091 425.7872,-295.0904 425.7872,-295.0904"/>
</g>
<!-- A11 -->
<g id="node12" class="node">
<title>A11</title>
<polygon fill="none" stroke="#000000" points="442,-199 424,-181 442,-163 460,-181 442,-199"/>
</g>
<!-- A10&#45;&gt;A11 -->
<g id="edge14" class="edge">
<title>A10&#45;&gt;A11</title>
<path fill="none" stroke="#000000" d="M432.2571,-258.9431C434.0838,-244.3292 436.6813,-223.5499 438.7349,-207.1209"/>
<polygon fill="#000000" stroke="#000000" points="439.9923,-197.0615 443.2171,-207.5425 439.3721,-202.0229 438.7519,-206.9843 438.7519,-206.9843 438.7519,-206.9843 439.3721,-202.0229 434.2866,-206.4261 439.9923,-197.0615 439.9923,-197.0615"/>
</g>
<!-- A11&#45;&gt;A2 -->
<g id="edge15" class="edge">
<title>A11&#45;&gt;A2</title>
<path fill="none" stroke="#000000" d="M433.7692,-170.4483C422.1297,-155.4987 400.2306,-127.2689 381.862,-103 363.4838,-78.7185 361.55,-70.4732 341,-48 335.649,-42.1482 329.3577,-36.2345 323.4958,-31.0614"/>
<polygon fill="#000000" stroke="#000000" points="315.8971,-24.5414 326.4167,-27.6381 319.6917,-27.7973 323.4863,-31.0533 323.4863,-31.0533 323.4863,-31.0533 319.6917,-27.7973 320.556,-34.4684 315.8971,-24.5414 315.8971,-24.5414"/>
<text text-anchor="middle" x="431.569" y="-82" font-family="Helvetica,sans-Serif" font-size="10.00" fill="#000000">[Proposal voting failed]</text>
</g>
<!-- A12 -->
<g id="node13" class="node">
<title>A12</title>
<path fill="none" stroke="#000000" d="M605.8111,-103C605.8111,-103 504.1889,-103 504.1889,-103 498.1889,-103 492.1889,-97 492.1889,-91 492.1889,-91 492.1889,-79 492.1889,-79 492.1889,-73 498.1889,-67 504.1889,-67 504.1889,-67 605.8111,-67 605.8111,-67 611.8111,-67 617.8111,-73 617.8111,-79 617.8111,-79 617.8111,-91 617.8111,-91 617.8111,-97 611.8111,-103 605.8111,-103"/>
<text text-anchor="middle" x="555" y="-88" font-family="Helvetica,sans-Serif" font-size="10.00" fill="#000000">Update proposal state</text>
<text text-anchor="middle" x="555" y="-76" font-family="Helvetica,sans-Serif" font-size="10.00" fill="#000000"> to &#39;passed&#39;</text>
</g>
<!-- A11&#45;&gt;A12 -->
<g id="edge16" class="edge">
<title>A11&#45;&gt;A12</title>
<path fill="none" stroke="#000000" d="M452.028,-172.4806C468.4306,-158.5457 501.5995,-130.3668 525.8761,-109.7424"/>
<polygon fill="#000000" stroke="#000000" points="533.731,-103.0692 529.0235,-112.9732 529.9205,-106.3065 526.11,-109.5438 526.11,-109.5438 526.11,-109.5438 529.9205,-106.3065 523.1964,-106.1143 533.731,-103.0692 533.731,-103.0692"/>
<text text-anchor="middle" x="573.799" y="-130" font-family="Helvetica,sans-Serif" font-size="10.00" fill="#000000">[Proposal voting succeeded]</text>
</g>
<!-- A12&#45;&gt;A2 -->
<g id="edge17" class="edge">
<title>A12&#45;&gt;A2</title>
<path fill="none" stroke="#000000" d="M491.9861,-67.4264C439.1181,-52.6823 366.3878,-32.399 328.7722,-21.9086"/>
<polygon fill="#000000" stroke="#000000" points="318.7122,-19.103 329.5535,-17.4548 323.5284,-20.4462 328.3446,-21.7894 328.3446,-21.7894 328.3446,-21.7894 323.5284,-20.4462 327.1357,-26.124 318.7122,-19.103 318.7122,-19.103"/>
</g>
</g>
</svg>
