<?xml version="1.0" encoding="UTF-8" standalone="no"?>
<!DOCTYPE svg PUBLIC "-//W3C//DTD SVG 1.1//EN"
 "http://www.w3.org/Graphics/SVG/1.1/DTD/svg11.dtd">
<!-- Generated by graphviz version 2.40.1 (20161225.0304)
 -->
<!-- Title: G Pages: 1 -->
<svg width="736pt" height="1143pt"
 viewBox="0.00 0.00 736.01 1143.00" xmlns="http://www.w3.org/2000/svg" xmlns:xlink="http://www.w3.org/1999/xlink">
<g id="graph0" class="graph" transform="scale(1 1) rotate(0) translate(4 1139)">
<title>G</title>
<polygon fill="#ffffff" stroke="transparent" points="-4,4 -4,-1139 732.0065,-1139 732.0065,4 -4,4"/>
<!-- A0 -->
<g id="node1" class="node">
<title>A0</title>
<ellipse fill="none" stroke="#000000" cx="18" cy="-1124" rx="11" ry="11"/>
</g>
<!-- A1 -->
<g id="node2" class="node">
<title>A1</title>
<polygon fill="none" stroke="#000000" points="18,-1076 0,-1058 18,-1040 36,-1058 18,-1076"/>
</g>
<!-- A0&#45;&gt;A1 -->
<g id="edge1" class="edge">
<title>A0&#45;&gt;A1</title>
<path fill="none" stroke="#000000" d="M18,-1112.804C18,-1105.5358 18,-1095.7135 18,-1086.3916"/>
<polygon fill="#000000" stroke="#000000" points="18,-1076.2423 22.5001,-1086.2423 18,-1081.2423 18.0001,-1086.2423 18.0001,-1086.2423 18.0001,-1086.2423 18,-1081.2423 13.5001,-1086.2424 18,-1076.2423 18,-1076.2423"/>
</g>
<!-- A2 -->
<g id="node3" class="node">
<title>A2</title>
<ellipse fill="none" stroke="#000000" cx="276" cy="-15" rx="11" ry="11"/>
<ellipse fill="none" stroke="#000000" cx="276" cy="-15" rx="15" ry="15"/>
</g>
<!-- A1&#45;&gt;A2 -->
<g id="edge2" class="edge">
<title>A1&#45;&gt;A2</title>
<path fill="none" stroke="#000000" d="M14.1268,-1043.8104C9.3916,-1025.184 2,-991.4 2,-962 2,-962 2,-962 2,-89 2,-37.7738 182.7521,-20.9438 250.6403,-16.4293"/>
<polygon fill="#000000" stroke="#000000" points="260.8783,-15.786 251.1802,-20.9043 255.8881,-16.0996 250.898,-16.4132 250.898,-16.4132 250.898,-16.4132 255.8881,-16.0996 250.6157,-11.922 260.8783,-15.786 260.8783,-15.786"/>
<text text-anchor="middle" x="45.346" y="-553" font-family="Helvetica,sans-Serif" font-size="10.00" fill="#000000">[Addition conditions</text>
<text text-anchor="middle" x="45.346" y="-541" font-family="Helvetica,sans-Serif" font-size="10.00" fill="#000000"> not fulfilled]</text>
</g>
<!-- A3 -->
<g id="node4" class="node">
<title>A3</title>
<path fill="none" stroke="#000000" d="M154.409,-980C154.409,-980 91.591,-980 91.591,-980 85.591,-980 79.591,-974 79.591,-968 79.591,-968 79.591,-956 79.591,-956 79.591,-950 85.591,-944 91.591,-944 91.591,-944 154.409,-944 154.409,-944 160.409,-944 166.409,-950 166.409,-956 166.409,-956 166.409,-968 166.409,-968 166.409,-974 160.409,-980 154.409,-980"/>
<text text-anchor="middle" x="123" y="-959" font-family="Helvetica,sans-Serif" font-size="10.00" fill="#000000">Add proposal</text>
</g>
<!-- A1&#45;&gt;A3 -->
<g id="edge3" class="edge">
<title>A1&#45;&gt;A3</title>
<path fill="none" stroke="#000000" d="M27.6899,-1049.1406C42.9492,-1035.1893 73.1379,-1007.5882 95.4693,-987.1709"/>
<polygon fill="#000000" stroke="#000000" points="103.0032,-980.2828 98.6593,-990.3517 99.313,-983.6567 95.6228,-987.0306 95.6228,-987.0306 95.6228,-987.0306 99.313,-983.6567 92.5864,-983.7094 103.0032,-980.2828 103.0032,-980.2828"/>
<text text-anchor="middle" x="125.346" y="-1013" font-family="Helvetica,sans-Serif" font-size="10.00" fill="#000000">[Addition conditions</text>
<text text-anchor="middle" x="125.346" y="-1001" font-family="Helvetica,sans-Serif" font-size="10.00" fill="#000000"> fulfilled]</text>
</g>
<!-- A4 -->
<g id="node5" class="node">
<title>A4</title>
<polygon fill="#d3d3d3" stroke="#000000" stroke-width="4" points="137,-902.5 137,-906.5 173,-906.5 173,-902.5 137,-902.5"/>
<text text-anchor="middle" x="154.639" y="-904.2" font-family="Helvetica,sans-Serif" font-size="1.00" fill="#000000"> </text>
</g>
<!-- A3&#45;&gt;A4 -->
<g id="edge4" class="edge">
<title>A3&#45;&gt;A4:n</title>
<path fill="none" stroke="#000000" d="M139.7498,-943.95C145.5566,-936.2955 151.2314,-926.8149 153.7059,-916.7347"/>
<polygon fill="#000000" stroke="#000000" points="155,-906.5 158.21,-916.9855 154.3728,-911.4605 153.7455,-916.421 153.7455,-916.421 153.7455,-916.421 154.3728,-911.4605 149.2811,-915.8565 155,-906.5 155,-906.5"/>
</g>
<!-- A5 -->
<g id="node6" class="node">
<title>A5</title>
<path fill="none" stroke="#000000" d="M193.2373,-811C193.2373,-811 116.7627,-811 116.7627,-811 110.7627,-811 104.7627,-805 104.7627,-799 104.7627,-799 104.7627,-787 104.7627,-787 104.7627,-781 110.7627,-775 116.7627,-775 116.7627,-775 193.2373,-775 193.2373,-775 199.2373,-775 205.2373,-781 205.2373,-787 205.2373,-787 205.2373,-799 205.2373,-799 205.2373,-805 199.2373,-811 193.2373,-811"/>
<text text-anchor="middle" x="155" y="-790" font-family="Helvetica,sans-Serif" font-size="10.00" fill="#000000">Cancel proposal</text>
</g>
<!-- A4&#45;&gt;A5 -->
<g id="edge5" class="edge">
<title>A4&#45;&gt;A5</title>
<path fill="none" stroke="#000000" d="M155,-902.1712C155,-891.9664 155,-850.4252 155,-821.6358"/>
<polygon fill="#000000" stroke="#000000" points="155,-811.3183 159.5001,-821.3182 155,-816.3183 155.0001,-821.3183 155.0001,-821.3183 155.0001,-821.3183 155,-816.3183 150.5001,-821.3183 155,-811.3183 155,-811.3183"/>
</g>
<!-- A8 -->
<g id="node9" class="node">
<title>A8</title>
<polygon fill="none" stroke="#000000" points="295,-865 277,-847 295,-829 313,-847 295,-865"/>
</g>
<!-- A4&#45;&gt;A8 -->
<g id="edge10" class="edge">
<title>A4&#45;&gt;A8</title>
<path fill="none" stroke="#000000" d="M159.9827,-902.4535C177.8166,-895.1289 239.1861,-869.9236 272.7082,-856.1555"/>
<polygon fill="#000000" stroke="#000000" points="282.1386,-852.2824 274.5981,-860.2442 277.5135,-854.182 272.8884,-856.0816 272.8884,-856.0816 272.8884,-856.0816 277.5135,-854.182 271.1787,-851.919 282.1386,-852.2824 282.1386,-852.2824"/>
</g>
<!-- A6 -->
<g id="node7" class="node">
<title>A6</title>
<polygon fill="none" stroke="#000000" points="155,-207 137,-189 155,-171 173,-189 155,-207"/>
</g>
<!-- A5&#45;&gt;A6 -->
<g id="edge6" class="edge">
<title>A5&#45;&gt;A6</title>
<path fill="none" stroke="#000000" d="M155,-774.8456C155,-755.0819 155,-722.5451 155,-694.5 155,-694.5 155,-694.5 155,-262 155,-247.2996 155,-230.934 155,-217.4302"/>
<polygon fill="#000000" stroke="#000000" points="155,-207.3003 159.5001,-217.3003 155,-212.3003 155.0001,-217.3003 155.0001,-217.3003 155.0001,-217.3003 155,-212.3003 150.5001,-217.3004 155,-207.3003 155,-207.3003"/>
</g>
<!-- A6&#45;&gt;A2 -->
<g id="edge9" class="edge">
<title>A6&#45;&gt;A2</title>
<path fill="none" stroke="#000000" d="M142.717,-182.6819C109.2941,-164.6869 21.5056,-111.5864 56.754,-67 80.7061,-36.7026 198.1425,-22.2068 250.6032,-17.1612"/>
<polygon fill="#000000" stroke="#000000" points="260.7545,-16.2257 251.2097,-21.6245 255.7756,-16.6846 250.7967,-17.1435 250.7967,-17.1435 250.7967,-17.1435 255.7756,-16.6846 250.3837,-12.6625 260.7545,-16.2257 260.7545,-16.2257"/>
<text text-anchor="middle" x="109.623" y="-86" font-family="Helvetica,sans-Serif" font-size="10.00" fill="#000000">[Cancellation prohibited]</text>
</g>
<!-- A7 -->
<g id="node8" class="node">
<title>A7</title>
<path fill="none" stroke="#000000" d="M254.578,-111C254.578,-111 185.422,-111 185.422,-111 179.422,-111 173.422,-105 173.422,-99 173.422,-99 173.422,-79 173.422,-79 173.422,-73 179.422,-67 185.422,-67 185.422,-67 254.578,-67 254.578,-67 260.578,-67 266.578,-73 266.578,-79 266.578,-79 266.578,-99 266.578,-99 266.578,-105 260.578,-111 254.578,-111"/>
<text text-anchor="middle" x="220" y="-98" font-family="Helvetica,sans-Serif" font-size="10.00" fill="#000000">Update</text>
<text text-anchor="middle" x="220" y="-86" font-family="Helvetica,sans-Serif" font-size="10.00" fill="#000000"> proposal state</text>
<text text-anchor="middle" x="220" y="-74" font-family="Helvetica,sans-Serif" font-size="10.00" fill="#000000"> to &#39;cancelled&#39;</text>
</g>
<!-- A6&#45;&gt;A7 -->
<g id="edge7" class="edge">
<title>A6&#45;&gt;A7</title>
<path fill="none" stroke="#000000" d="M157.9249,-173.7416C160.8764,-161.0041 166.3238,-142.7718 175.421,-129 177.8729,-125.2882 180.7503,-121.6999 183.8424,-118.2975"/>
<polygon fill="#000000" stroke="#000000" points="190.873,-111.1702 187.054,-121.4496 187.3617,-114.7298 183.8504,-118.2894 183.8504,-118.2894 183.8504,-118.2894 187.3617,-114.7298 180.6467,-115.1292 190.873,-111.1702 190.873,-111.1702"/>
<text text-anchor="middle" x="227.7895" y="-144" font-family="Helvetica,sans-Serif" font-size="10.00" fill="#000000">[Cancellation conditions</text>
<text text-anchor="middle" x="227.7895" y="-132" font-family="Helvetica,sans-Serif" font-size="10.00" fill="#000000"> fulfilled]</text>
</g>
<!-- A7&#45;&gt;A2 -->
<g id="edge8" class="edge">
<title>A7&#45;&gt;A2</title>
<path fill="none" stroke="#000000" d="M236.8018,-66.7976C244.3769,-56.7877 253.2611,-45.0478 260.6546,-35.2779"/>
<polygon fill="#000000" stroke="#000000" points="266.6977,-27.2923 264.2516,-37.9819 263.6805,-31.2793 260.6633,-35.2664 260.6633,-35.2664 260.6633,-35.2664 263.6805,-31.2793 257.0749,-32.5508 266.6977,-27.2923 266.6977,-27.2923"/>
</g>
<!-- A8&#45;&gt;A2 -->
<g id="edge11" class="edge">
<title>A8&#45;&gt;A2</title>
<path fill="none" stroke="#000000" d="M295,-828.7647C295,-806.5988 295,-768.0556 295,-735 295,-735 295,-735 295,-89 295,-71.7092 290.0733,-52.8396 285.2374,-38.4827"/>
<polygon fill="#000000" stroke="#000000" points="281.8039,-28.9132 289.4167,-36.806 283.4925,-33.6195 285.1811,-38.3257 285.1811,-38.3257 285.1811,-38.3257 283.4925,-33.6195 280.9455,-39.8455 281.8039,-28.9132 281.8039,-28.9132"/>
<text text-anchor="middle" x="345.0115" y="-421" font-family="Helvetica,sans-Serif" font-size="10.00" fill="#000000">[Processing conditions</text>
<text text-anchor="middle" x="345.0115" y="-409" font-family="Helvetica,sans-Serif" font-size="10.00" fill="#000000"> not fulfilled]</text>
</g>
<!-- A9 -->
<g id="node10" class="node">
<title>A9</title>
<path fill="none" stroke="#000000" d="M424.578,-757C424.578,-757 355.422,-757 355.422,-757 349.422,-757 343.422,-751 343.422,-745 343.422,-745 343.422,-725 343.422,-725 343.422,-719 349.422,-713 355.422,-713 355.422,-713 424.578,-713 424.578,-713 430.578,-713 436.578,-719 436.578,-725 436.578,-725 436.578,-745 436.578,-745 436.578,-751 430.578,-757 424.578,-757"/>
<text text-anchor="middle" x="390" y="-744" font-family="Helvetica,sans-Serif" font-size="10.00" fill="#000000">Update</text>
<text text-anchor="middle" x="390" y="-732" font-family="Helvetica,sans-Serif" font-size="10.00" fill="#000000"> proposal state</text>
<text text-anchor="middle" x="390" y="-720" font-family="Helvetica,sans-Serif" font-size="10.00" fill="#000000"> to &#39;processed&#39;</text>
</g>
<!-- A8&#45;&gt;A9 -->
<g id="edge12" class="edge">
<title>A8&#45;&gt;A9</title>
<path fill="none" stroke="#000000" d="M303.4306,-837.0607C316.9757,-821.0919 344.1202,-789.0899 364.4214,-765.1558"/>
<polygon fill="#000000" stroke="#000000" points="371.0143,-757.3831 367.9775,-767.9201 367.78,-761.1962 364.5457,-765.0092 364.5457,-765.0092 364.5457,-765.0092 367.78,-761.1962 361.114,-762.0984 371.0143,-757.3831 371.0143,-757.3831"/>
<text text-anchor="middle" x="398.8415" y="-790" font-family="Helvetica,sans-Serif" font-size="10.00" fill="#000000">[Processing allowed]</text>
</g>
<!-- A10 -->
<g id="node11" class="node">
<title>A10</title>
<path fill="#f5f5dc" stroke="#000000" d="M437.069,-676C437.069,-676 372.931,-676 372.931,-676 366.931,-676 360.931,-670 360.931,-664 360.931,-664 360.931,-652 360.931,-652 360.931,-646 366.931,-640 372.931,-640 372.931,-640 437.069,-640 437.069,-640 443.069,-640 449.069,-646 449.069,-652 449.069,-652 449.069,-664 449.069,-664 449.069,-670 443.069,-676 437.069,-676"/>
<text text-anchor="middle" x="405" y="-661" font-family="Helvetica,sans-Serif" font-size="10.00" fill="#000000">Voting results</text>
<text text-anchor="middle" x="405" y="-649" font-family="Helvetica,sans-Serif" font-size="10.00" fill="#000000"> validation</text>
</g>
<!-- A9&#45;&gt;A10 -->
<g id="edge13" class="edge">
<title>A9&#45;&gt;A10</title>
<path fill="none" stroke="#000000" d="M394.3386,-712.7284C395.968,-704.3643 397.841,-694.7494 399.5581,-685.9352"/>
<polygon fill="#000000" stroke="#000000" points="401.4781,-676.0789 403.9829,-686.7549 400.522,-680.9867 399.5659,-685.8944 399.5659,-685.8944 399.5659,-685.8944 400.522,-680.9867 395.149,-685.0339 401.4781,-676.0789 401.4781,-676.0789"/>
</g>
<!-- A11 -->
<g id="node12" class="node">
<title>A11</title>
<polygon fill="none" stroke="#000000" points="410,-568 392,-550 410,-532 428,-550 410,-568"/>
</g>
<!-- A10&#45;&gt;A11 -->
<g id="edge14" class="edge">
<title>A10&#45;&gt;A11</title>
<path fill="none" stroke="#000000" d="M405.8482,-639.6793C406.6381,-622.6178 407.8261,-596.9553 408.7293,-577.4477"/>
<polygon fill="#000000" stroke="#000000" points="409.1974,-567.3371 413.23,-577.5345 408.9661,-572.3317 408.7348,-577.3264 408.7348,-577.3264 408.7348,-577.3264 408.9661,-572.3317 404.2396,-577.1182 409.1974,-567.3371 409.1974,-567.3371"/>
<text text-anchor="middle" x="427.446" y="-613" font-family="Helvetica,sans-Serif" font-size="10.00" fill="#000000">[process</text>
<text text-anchor="middle" x="427.446" y="-601" font-family="Helvetica,sans-Serif" font-size="10.00" fill="#000000"> diagram</text>
<text text-anchor="middle" x="427.446" y="-589" font-family="Helvetica,sans-Serif" font-size="10.00" fill="#000000"> exists]</text>
</g>
<!-- A11&#45;&gt;A2 -->
<g id="edge15" class="edge">
<title>A11&#45;&gt;A2</title>
<path fill="none" stroke="#000000" d="M410,-531.9756C410,-514.9658 410,-488.75 410,-466 410,-466 410,-466 410,-89 410,-39.8093 339.947,-23.0661 301.1429,-17.5649"/>
<polygon fill="#000000" stroke="#000000" points="291.111,-16.2938 301.5974,-13.0866 296.0714,-16.9224 301.0317,-17.5509 301.0317,-17.5509 301.0317,-17.5509 296.0714,-16.9224 300.466,-22.0152 291.111,-16.2938 291.111,-16.2938"/>
<text text-anchor="middle" x="460.569" y="-259" font-family="Helvetica,sans-Serif" font-size="10.00" fill="#000000">[Proposal voting failed]</text>
</g>
<!-- A12 -->
<g id="node13" class="node">
<title>A12</title>
<path fill="none" stroke="#000000" d="M566.8052,-484C566.8052,-484 475.1948,-484 475.1948,-484 469.1948,-484 463.1948,-478 463.1948,-472 463.1948,-472 463.1948,-460 463.1948,-460 463.1948,-454 469.1948,-448 475.1948,-448 475.1948,-448 566.8052,-448 566.8052,-448 572.8052,-448 578.8052,-454 578.8052,-460 578.8052,-460 578.8052,-472 578.8052,-472 578.8052,-478 572.8052,-484 566.8052,-484"/>
<text text-anchor="middle" x="521" y="-463" font-family="Helvetica,sans-Serif" font-size="10.00" fill="#000000">Execute transaction</text>
</g>
<!-- A11&#45;&gt;A12 -->
<g id="edge16" class="edge">
<title>A11&#45;&gt;A12</title>
<path fill="none" stroke="#000000" d="M420.6431,-541.9457C436.2046,-530.1695 465.8189,-507.7587 488.8613,-490.3212"/>
<polygon fill="#000000" stroke="#000000" points="497.015,-484.1508 491.7565,-493.7736 493.028,-487.168 489.041,-490.1852 489.041,-490.1852 489.041,-490.1852 493.028,-487.168 486.3254,-486.5969 497.015,-484.1508 497.015,-484.1508"/>
<text text-anchor="middle" x="534.799" y="-505" font-family="Helvetica,sans-Serif" font-size="10.00" fill="#000000">[Proposal voting succeeded]</text>
</g>
<!-- A13 -->
<g id="node14" class="node">
<title>A13</title>
<polygon fill="none" stroke="#000000" points="547,-388 529,-370 547,-352 565,-370 547,-388"/>
</g>
<!-- A12&#45;&gt;A13 -->
<g id="edge17" class="edge">
<title>A12&#45;&gt;A13</title>
<path fill="none" stroke="#000000" d="M525.8904,-447.9431C529.9931,-432.7946 535.8901,-411.0212 540.4091,-394.3357"/>
<polygon fill="#000000" stroke="#000000" points="543.147,-384.2265 544.8763,-395.0551 541.8399,-389.0526 540.5328,-393.8787 540.5328,-393.8787 540.5328,-393.8787 541.8399,-389.0526 536.1893,-392.7023 543.147,-384.2265 543.147,-384.2265"/>
</g>
<!-- A14 -->
<g id="node15" class="node">
<title>A14</title>
<polygon fill="#d3d3d3" stroke="#000000" stroke-width="4" points="538,-187 538,-191 574,-191 574,-187 538,-187"/>
<text text-anchor="middle" x="546.639" y="-188.7" font-family="Helvetica,sans-Serif" font-size="1.00" fill="#000000"> </text>
<polyline fill="none" stroke="#000000" stroke-width="4" points="555.2779,-187 555.2779,-191 "/>
<text text-anchor="middle" x="564.4169" y="-188.7" font-family="Helvetica,sans-Serif" font-size="1.00" fill="#000000"> </text>
</g>
<!-- A13&#45;&gt;A14 -->
<g id="edge18" class="edge">
<title>A13&#45;&gt;A14:n</title>
<path fill="none" stroke="#000000" d="M547,-351.9607C547,-321.5061 547,-257.6751 547,-201.1028"/>
<polygon fill="#000000" stroke="#000000" points="547,-191 551.5001,-201 547,-196 547.0001,-201 547.0001,-201 547.0001,-201 547,-196 542.5001,-201 547,-191 547,-191"/>
<text text-anchor="middle" x="574.505" y="-271" font-family="Helvetica,sans-Serif" font-size="10.00" fill="#000000">[Transaction</text>
<text text-anchor="middle" x="574.505" y="-259" font-family="Helvetica,sans-Serif" font-size="10.00" fill="#000000"> execution</text>
<text text-anchor="middle" x="574.505" y="-247" font-family="Helvetica,sans-Serif" font-size="10.00" fill="#000000"> succeeded]</text>
</g>
<!-- A15 -->
<g id="node16" class="node">
<title>A15</title>
<path fill="none" stroke="#000000" d="M716.013,-280C716.013,-280 631.987,-280 631.987,-280 625.987,-280 619.987,-274 619.987,-268 619.987,-268 619.987,-256 619.987,-256 619.987,-250 625.987,-244 631.987,-244 631.987,-244 716.013,-244 716.013,-244 722.013,-244 728.013,-250 728.013,-256 728.013,-256 728.013,-268 728.013,-268 728.013,-274 722.013,-280 716.013,-280"/>
<text text-anchor="middle" x="674" y="-259" font-family="Helvetica,sans-Serif" font-size="10.00" fill="#000000">Save failure result</text>
</g>
<!-- A13&#45;&gt;A15 -->
<g id="edge19" class="edge">
<title>A13&#45;&gt;A15</title>
<path fill="none" stroke="#000000" d="M556.9655,-361.5254C575.5929,-345.6848 616.3458,-311.0288 644.4815,-287.1024"/>
<polygon fill="#000000" stroke="#000000" points="652.4112,-280.359 647.7085,-290.2653 648.6023,-283.5981 644.7933,-286.8372 644.7933,-286.8372 644.7933,-286.8372 648.6023,-283.5981 641.8781,-283.4091 652.4112,-280.359 652.4112,-280.359"/>
<text text-anchor="middle" x="656.505" y="-325" font-family="Helvetica,sans-Serif" font-size="10.00" fill="#000000">[Transaction</text>
<text text-anchor="middle" x="656.505" y="-313" font-family="Helvetica,sans-Serif" font-size="10.00" fill="#000000"> execution</text>
<text text-anchor="middle" x="656.505" y="-301" font-family="Helvetica,sans-Serif" font-size="10.00" fill="#000000"> failed]</text>
</g>
<!-- A16 -->
<g id="node17" class="node">
<title>A16</title>
<path fill="none" stroke="#000000" d="M554.578,-111C554.578,-111 485.422,-111 485.422,-111 479.422,-111 473.422,-105 473.422,-99 473.422,-99 473.422,-79 473.422,-79 473.422,-73 479.422,-67 485.422,-67 485.422,-67 554.578,-67 554.578,-67 560.578,-67 566.578,-73 566.578,-79 566.578,-79 566.578,-99 566.578,-99 566.578,-105 560.578,-111 554.578,-111"/>
<text text-anchor="middle" x="520" y="-98" font-family="Helvetica,sans-Serif" font-size="10.00" fill="#000000">Update</text>
<text text-anchor="middle" x="520" y="-86" font-family="Helvetica,sans-Serif" font-size="10.00" fill="#000000"> proposal state</text>
<text text-anchor="middle" x="520" y="-74" font-family="Helvetica,sans-Serif" font-size="10.00" fill="#000000"> to &#39;passed&#39;</text>
</g>
<!-- A14&#45;&gt;A16 -->
<g id="edge21" class="edge">
<title>A14&#45;&gt;A16</title>
<path fill="none" stroke="#000000" d="M555.2481,-186.9114C552.1996,-178.4432 540.4894,-145.915 531.3931,-120.6474"/>
<polygon fill="#000000" stroke="#000000" points="527.9352,-111.0421 535.5564,-118.9267 529.6288,-115.7466 531.3224,-120.451 531.3224,-120.451 531.3224,-120.451 529.6288,-115.7466 527.0884,-121.9753 527.9352,-111.0421 527.9352,-111.0421"/>
</g>
<!-- A15&#45;&gt;A14 -->
<g id="edge20" class="edge">
<title>A15&#45;&gt;A14:n</title>
<path fill="none" stroke="#000000" d="M619.9668,-248.6859C595.5169,-239.5213 570.8123,-224.6433 565.1877,-201.1899"/>
<polygon fill="#000000" stroke="#000000" points="564,-191 569.6276,-200.4117 564.5789,-195.9664 565.1578,-200.9328 565.1578,-200.9328 565.1578,-200.9328 564.5789,-195.9664 560.6881,-201.4538 564,-191 564,-191"/>
</g>
<!-- A16&#45;&gt;A2 -->
<g id="edge22" class="edge">
<title>A16&#45;&gt;A2</title>
<path fill="none" stroke="#000000" d="M473.2946,-67.0093C457.8336,-60.2835 440.3883,-53.2769 424,-48 381.5964,-34.3464 330.5849,-24.3243 300.8729,-19.0985"/>
<polygon fill="#000000" stroke="#000000" points="290.9455,-17.3924 301.5632,-14.6512 295.8732,-18.2393 300.801,-19.0862 300.801,-19.0862 300.801,-19.0862 295.8732,-18.2393 300.0387,-23.5212 290.9455,-17.3924 290.9455,-17.3924"/>
</g>
</g>
</svg>
