<?xml version="1.0" encoding="UTF-8" standalone="no"?>
<!DOCTYPE svg PUBLIC "-//W3C//DTD SVG 1.1//EN"
 "http://www.w3.org/Graphics/SVG/1.1/DTD/svg11.dtd">
<!-- Generated by graphviz version 2.40.1 (20161225.0304)
 -->
<!-- Title: G Pages: 1 -->
<svg width="640pt" height="946pt"
 viewBox="0.00 0.00 639.67 946.00" xmlns="http://www.w3.org/2000/svg" xmlns:xlink="http://www.w3.org/1999/xlink">
<g id="graph0" class="graph" transform="scale(1 1) rotate(0) translate(4 942)">
<title>G</title>
<polygon fill="#ffffff" stroke="transparent" points="-4,4 -4,-942 635.67,-942 635.67,4 -4,4"/>
<!-- A0 -->
<g id="node1" class="node">
<title>A0</title>
<polygon fill="#f5f5dc" stroke="#000000" points="255.7854,-938 196.2146,-938 196.2146,-902 261.7854,-902 261.7854,-932 255.7854,-938"/>
<polyline fill="none" stroke="#000000" points="255.7854,-938 255.7854,-932 "/>
<polyline fill="none" stroke="#000000" points="261.7854,-932 255.7854,-932 "/>
<text text-anchor="middle" x="229" y="-923" font-family="Helvetica,sans-Serif" font-size="10.00" fill="#000000">Voting</text>
<text text-anchor="middle" x="229" y="-911" font-family="Helvetica,sans-Serif" font-size="10.00" fill="#000000"> process</text>
</g>
<!-- A1 -->
<g id="node2" class="node">
<title>A1</title>
<ellipse fill="none" stroke="#000000" cx="291" cy="-920" rx="11" ry="11"/>
</g>
<!-- A2 -->
<g id="node3" class="node">
<title>A2</title>
<path fill="none" stroke="#000000" d="M333.6855,-865C333.6855,-865 248.3145,-865 248.3145,-865 242.3145,-865 236.3145,-859 236.3145,-853 236.3145,-853 236.3145,-841 236.3145,-841 236.3145,-835 242.3145,-829 248.3145,-829 248.3145,-829 333.6855,-829 333.6855,-829 339.6855,-829 345.6855,-835 345.6855,-841 345.6855,-841 345.6855,-853 345.6855,-853 345.6855,-859 339.6855,-865 333.6855,-865"/>
<text text-anchor="middle" x="291" y="-844" font-family="Helvetica,sans-Serif" font-size="10.00" fill="#000000">Proposal selection</text>
</g>
<!-- A1&#45;&gt;A2 -->
<g id="edge1" class="edge">
<title>A1&#45;&gt;A2</title>
<path fill="none" stroke="#000000" d="M291,-908.9129C291,-899.9959 291,-887.0618 291,-875.3187"/>
<polygon fill="#000000" stroke="#000000" points="291,-865.0186 295.5001,-875.0186 291,-870.0186 291.0001,-875.0186 291.0001,-875.0186 291.0001,-875.0186 291,-870.0186 286.5001,-875.0186 291,-865.0186 291,-865.0186"/>
</g>
<!-- A3 -->
<g id="node4" class="node">
<title>A3</title>
<polygon fill="#d3d3d3" stroke="#000000" stroke-width="4" points="273,-787.5 273,-791.5 309,-791.5 309,-787.5 273,-787.5"/>
<text text-anchor="middle" x="290.639" y="-789.2" font-family="Helvetica,sans-Serif" font-size="1.00" fill="#000000"> </text>
</g>
<!-- A2&#45;&gt;A3 -->
<g id="edge2" class="edge">
<title>A2&#45;&gt;A3:n</title>
<path fill="none" stroke="#000000" d="M291,-828.5C291,-820.5749 291,-810.9869 291,-801.5678"/>
<polygon fill="#000000" stroke="#000000" points="291,-791.5 295.5001,-801.5 291,-796.5 291.0001,-801.5 291.0001,-801.5 291.0001,-801.5 291,-796.5 286.5001,-801.5 291,-791.5 291,-791.5"/>
</g>
<!-- A4 -->
<g id="node5" class="node">
<title>A4</title>
<polygon fill="none" stroke="#000000" points="159,-750 141,-732 159,-714 177,-732 159,-750"/>
</g>
<!-- A3&#45;&gt;A4 -->
<g id="edge3" class="edge">
<title>A3&#45;&gt;A4</title>
<path fill="none" stroke="#000000" d="M286.3021,-787.4535C269.6426,-780.1966 212.6903,-755.3878 180.9007,-741.5401"/>
<polygon fill="#000000" stroke="#000000" points="171.5466,-737.4654 182.5117,-737.3335 176.1305,-739.4622 180.7145,-741.459 180.7145,-741.459 180.7145,-741.459 176.1305,-739.4622 178.9174,-745.5846 171.5466,-737.4654 171.5466,-737.4654"/>
</g>
<!-- A6 -->
<g id="node7" class="node">
<title>A6</title>
<polygon fill="none" stroke="#000000" points="548,-191 530,-173 548,-155 566,-173 548,-191"/>
</g>
<!-- A3&#45;&gt;A6 -->
<g id="edge5" class="edge">
<title>A3&#45;&gt;A6</title>
<path fill="none" stroke="#000000" d="M302.866,-787.4429C337.4962,-781.106 436,-760.5701 436,-732 436,-732 436,-732 436,-261 436,-213.1711 483.5692,-224.7748 521,-195 524.0167,-192.6004 527.2052,-190.0316 530.293,-187.5267"/>
<polygon fill="#000000" stroke="#000000" points="538.0438,-181.2055 533.1384,-191.013 534.169,-184.3656 530.2943,-187.5257 530.2943,-187.5257 530.2943,-187.5257 534.169,-184.3656 527.4502,-184.0384 538.0438,-181.2055 538.0438,-181.2055"/>
</g>
<!-- A5 -->
<g id="node6" class="node">
<title>A5</title>
<ellipse fill="none" stroke="#000000" cx="218" cy="-15" rx="11" ry="11"/>
<ellipse fill="none" stroke="#000000" cx="218" cy="-15" rx="15" ry="15"/>
</g>
<!-- A4&#45;&gt;A5 -->
<g id="edge4" class="edge">
<title>A4&#45;&gt;A5</title>
<path fill="none" stroke="#000000" d="M144.0417,-728.9135C104.4608,-720.3194 0,-694.6841 0,-663.5 0,-663.5 0,-663.5 0,-85 0,-44.8555 135.7075,-24.4827 192.9777,-17.6726"/>
<polygon fill="#000000" stroke="#000000" points="203.016,-16.5232 193.5928,-22.1316 198.0484,-17.092 193.0809,-17.6608 193.0809,-17.6608 193.0809,-17.6608 198.0484,-17.092 192.5689,-13.19 203.016,-16.5232 203.016,-16.5232"/>
<text text-anchor="middle" x="39.7365" y="-404" font-family="Helvetica,sans-Serif" font-size="10.00" fill="#000000">[Voting not active]</text>
</g>
<!-- A8 -->
<g id="node9" class="node">
<title>A8</title>
<polygon fill="#d3d3d3" stroke="#000000" stroke-width="4" points="141,-661.5 141,-665.5 177,-665.5 177,-661.5 141,-661.5"/>
<text text-anchor="middle" x="158.639" y="-663.2" font-family="Helvetica,sans-Serif" font-size="1.00" fill="#000000"> </text>
</g>
<!-- A4&#45;&gt;A8 -->
<g id="edge9" class="edge">
<title>A4&#45;&gt;A8:n</title>
<path fill="none" stroke="#000000" d="M159,-713.9363C159,-703.2783 159,-689.2594 159,-675.7081"/>
<polygon fill="#000000" stroke="#000000" points="159,-665.5 163.5001,-675.5 159,-670.5 159.0001,-675.5 159.0001,-675.5 159.0001,-675.5 159,-670.5 154.5001,-675.5 159,-665.5 159,-665.5"/>
<text text-anchor="middle" x="190.3985" y="-687" font-family="Helvetica,sans-Serif" font-size="10.00" fill="#000000">[Voting active]</text>
</g>
<!-- A6&#45;&gt;A5 -->
<g id="edge6" class="edge">
<title>A6&#45;&gt;A5</title>
<path fill="none" stroke="#000000" d="M538.4335,-164.2454C533.4549,-159.9442 527.1386,-154.8684 521,-151 502.498,-139.3404 362.9903,-75.869 343,-67 307.8776,-51.4174 266.639,-34.5315 241.418,-24.3611"/>
<polygon fill="#000000" stroke="#000000" points="231.9634,-20.5608 242.9202,-20.1151 236.6026,-22.4256 241.2419,-24.2904 241.2419,-24.2904 241.2419,-24.2904 236.6026,-22.4256 239.5636,-28.4657 231.9634,-20.5608 231.9634,-20.5608"/>
<text text-anchor="middle" x="447.0635" y="-88" font-family="Helvetica,sans-Serif" font-size="10.00" fill="#000000">[Withdrawal</text>
<text text-anchor="middle" x="447.0635" y="-76" font-family="Helvetica,sans-Serif" font-size="10.00" fill="#000000"> not allowed]</text>
</g>
<!-- A7 -->
<g id="node8" class="node">
<title>A7</title>
<path fill="none" stroke="#000000" d="M566.91,-103C566.91,-103 499.09,-103 499.09,-103 493.09,-103 487.09,-97 487.09,-91 487.09,-91 487.09,-79 487.09,-79 487.09,-73 493.09,-67 499.09,-67 499.09,-67 566.91,-67 566.91,-67 572.91,-67 578.91,-73 578.91,-79 578.91,-79 578.91,-91 578.91,-91 578.91,-97 572.91,-103 566.91,-103"/>
<text text-anchor="middle" x="533" y="-88" font-family="Helvetica,sans-Serif" font-size="10.00" fill="#000000">Withdraw</text>
<text text-anchor="middle" x="533" y="-76" font-family="Helvetica,sans-Serif" font-size="10.00" fill="#000000"> locked tokens</text>
</g>
<!-- A6&#45;&gt;A7 -->
<g id="edge7" class="edge">
<title>A6&#45;&gt;A7</title>
<path fill="none" stroke="#000000" d="M545.3183,-157.2674C543.2298,-145.0146 540.2768,-127.6903 537.7856,-113.0755"/>
<polygon fill="#000000" stroke="#000000" points="536.0722,-103.0238 542.1886,-112.1254 536.9124,-107.9527 537.7526,-112.8816 537.7526,-112.8816 537.7526,-112.8816 536.9124,-107.9527 533.3166,-113.6378 536.0722,-103.0238 536.0722,-103.0238"/>
<text text-anchor="middle" x="585.835" y="-124" font-family="Helvetica,sans-Serif" font-size="10.00" fill="#000000">[Withdrawal allowed]</text>
</g>
<!-- A7&#45;&gt;A5 -->
<g id="edge8" class="edge">
<title>A7&#45;&gt;A5</title>
<path fill="none" stroke="#000000" d="M486.9479,-69.2457C464.7815,-62.0636 437.7099,-53.8734 413,-48 352.8009,-33.691 280.7248,-23.1747 243.3247,-18.202"/>
<polygon fill="#000000" stroke="#000000" points="233.3076,-16.8932 243.8064,-13.7268 238.2655,-17.541 243.2233,-18.1889 243.2233,-18.1889 243.2233,-18.1889 238.2655,-17.541 242.6403,-22.6509 233.3076,-16.8932 233.3076,-16.8932"/>
</g>
<!-- A9 -->
<g id="node10" class="node">
<title>A9</title>
<polygon fill="none" stroke="#000000" points="109,-279 91,-261 109,-243 127,-261 109,-279"/>
</g>
<!-- A8&#45;&gt;A9 -->
<g id="edge10" class="edge">
<title>A8&#45;&gt;A9</title>
<path fill="none" stroke="#000000" d="M156.4105,-661.1506C148.6311,-653.8208 126,-630.4009 126,-606 126,-606 126,-606 126,-361 126,-334.7278 120.2266,-305.1152 115.4088,-284.978"/>
<polygon fill="#000000" stroke="#000000" points="112.9429,-275.1131 119.7337,-283.7233 114.1555,-279.9639 115.368,-284.8146 115.368,-284.8146 115.368,-284.8146 114.1555,-279.9639 111.0024,-285.9059 112.9429,-275.1131 112.9429,-275.1131"/>
</g>
<!-- A12 -->
<g id="node13" class="node">
<title>A12</title>
<polygon fill="none" stroke="#000000" points="218,-624 200,-606 218,-588 236,-606 218,-624"/>
</g>
<!-- A8&#45;&gt;A12 -->
<g id="edge15" class="edge">
<title>A8&#45;&gt;A12</title>
<path fill="none" stroke="#000000" d="M161.2408,-661.3161C167.7055,-655.0158 186.8378,-636.37 201.1141,-622.4566"/>
<polygon fill="#000000" stroke="#000000" points="208.4345,-615.3223 204.4137,-625.5244 204.8538,-618.812 201.273,-622.3018 201.273,-622.3018 201.273,-622.3018 204.8538,-618.812 198.1322,-619.0791 208.4345,-615.3223 208.4345,-615.3223"/>
</g>
<!-- A9&#45;&gt;A5 -->
<g id="edge11" class="edge">
<title>A9&#45;&gt;A5</title>
<path fill="none" stroke="#000000" d="M98.9577,-252.9393C73.7867,-231.7058 11.6683,-172.3351 35.42,-121 64.5773,-57.9816 150.567,-30.1842 193.3074,-19.9901"/>
<polygon fill="#000000" stroke="#000000" points="203.1808,-17.7669 194.4136,-24.3537 198.3029,-18.8652 193.4251,-19.9636 193.4251,-19.9636 193.4251,-19.9636 198.3029,-18.8652 192.4365,-15.5735 203.1808,-17.7669 203.1808,-17.7669"/>
<text text-anchor="middle" x="86.29" y="-124" font-family="Helvetica,sans-Serif" font-size="10.00" fill="#000000">[Revoking not allowed]</text>
</g>
<!-- A10 -->
<g id="node11" class="node">
<title>A10</title>
<path fill="none" stroke="#000000" d="M178.1351,-191C178.1351,-191 77.8649,-191 77.8649,-191 71.8649,-191 65.8649,-185 65.8649,-179 65.8649,-179 65.8649,-167 65.8649,-167 65.8649,-161 71.8649,-155 77.8649,-155 77.8649,-155 178.1351,-155 178.1351,-155 184.1351,-155 190.1351,-161 190.1351,-167 190.1351,-167 190.1351,-179 190.1351,-179 190.1351,-185 184.1351,-191 178.1351,-191"/>
<text text-anchor="middle" x="128" y="-170" font-family="Helvetica,sans-Serif" font-size="10.00" fill="#000000">Revoke previous vote</text>
</g>
<!-- A9&#45;&gt;A10 -->
<g id="edge12" class="edge">
<title>A9&#45;&gt;A10</title>
<path fill="none" stroke="#000000" d="M107.7608,-243.9174C107.4951,-234.6595 107.8238,-223.0827 110.098,-213 111.0396,-208.8253 112.4318,-204.5539 114.031,-200.43"/>
<polygon fill="#000000" stroke="#000000" points="118.0237,-191.1899 118.1879,-202.1545 116.0404,-195.7797 114.057,-200.3696 114.057,-200.3696 114.057,-200.3696 116.0404,-195.7797 109.9262,-198.5846 118.0237,-191.1899 118.0237,-191.1899"/>
<text text-anchor="middle" x="157.951" y="-216" font-family="Helvetica,sans-Serif" font-size="10.00" fill="#000000">[Revoking is allowed]</text>
</g>
<!-- A11 -->
<g id="node12" class="node">
<title>A11</title>
<path fill="none" stroke="#000000" d="M178.4603,-103C178.4603,-103 119.5397,-103 119.5397,-103 113.5397,-103 107.5397,-97 107.5397,-91 107.5397,-91 107.5397,-79 107.5397,-79 107.5397,-73 113.5397,-67 119.5397,-67 119.5397,-67 178.4603,-67 178.4603,-67 184.4603,-67 190.4603,-73 190.4603,-79 190.4603,-79 190.4603,-91 190.4603,-91 190.4603,-97 184.4603,-103 178.4603,-103"/>
<text text-anchor="middle" x="149" y="-88" font-family="Helvetica,sans-Serif" font-size="10.00" fill="#000000">Update</text>
<text text-anchor="middle" x="149" y="-76" font-family="Helvetica,sans-Serif" font-size="10.00" fill="#000000"> voting store</text>
</g>
<!-- A10&#45;&gt;A11 -->
<g id="edge13" class="edge">
<title>A10&#45;&gt;A11</title>
<path fill="none" stroke="#000000" d="M133.9071,-154.7915C135.9939,-147.9958 138.2536,-140.1861 140,-133 141.5505,-126.6201 142.9864,-119.7079 144.2353,-113.1692"/>
<polygon fill="#000000" stroke="#000000" points="146.0334,-103.3317 148.662,-113.9779 145.1343,-108.2502 144.2353,-113.1688 144.2353,-113.1688 144.2353,-113.1688 145.1343,-108.2502 139.8086,-112.3596 146.0334,-103.3317 146.0334,-103.3317"/>
</g>
<!-- A11&#45;&gt;A5 -->
<g id="edge14" class="edge">
<title>A11&#45;&gt;A5</title>
<path fill="none" stroke="#000000" d="M166.7692,-66.9733C176.9514,-56.6435 189.699,-43.7112 199.9309,-33.3309"/>
<polygon fill="#000000" stroke="#000000" points="207.1808,-25.976 203.3656,-36.2568 203.6708,-29.5369 200.1608,-33.0978 200.1608,-33.0978 200.1608,-33.0978 203.6708,-29.5369 196.956,-29.9387 207.1808,-25.976 207.1808,-25.976"/>
</g>
<!-- A12&#45;&gt;A5 -->
<g id="edge16" class="edge">
<title>A12&#45;&gt;A5</title>
<path fill="none" stroke="#000000" d="M218,-587.9756C218,-570.9658 218,-544.75 218,-522 218,-522 218,-522 218,-85 218,-70.1888 218,-53.6148 218,-40.3133"/>
<polygon fill="#000000" stroke="#000000" points="218,-30.0204 222.5001,-40.0203 218,-35.0204 218.0001,-40.0204 218.0001,-40.0204 218.0001,-40.0204 218,-35.0204 213.5001,-40.0204 218,-30.0204 218,-30.0204"/>
<text text-anchor="middle" x="246.0635" y="-312" font-family="Helvetica,sans-Serif" font-size="10.00" fill="#000000">[Voting</text>
<text text-anchor="middle" x="246.0635" y="-300" font-family="Helvetica,sans-Serif" font-size="10.00" fill="#000000"> not allowed]</text>
</g>
<!-- A13 -->
<g id="node14" class="node">
<title>A13</title>
<path fill="none" stroke="#000000" d="M351.3545,-540C351.3545,-540 258.6455,-540 258.6455,-540 252.6455,-540 246.6455,-534 246.6455,-528 246.6455,-528 246.6455,-516 246.6455,-516 246.6455,-510 252.6455,-504 258.6455,-504 258.6455,-504 351.3545,-504 351.3545,-504 357.3545,-504 363.3545,-510 363.3545,-516 363.3545,-516 363.3545,-528 363.3545,-528 363.3545,-534 357.3545,-540 351.3545,-540"/>
<text text-anchor="middle" x="305" y="-525" font-family="Helvetica,sans-Serif" font-size="10.00" fill="#000000">Choosing YES / NO</text>
<text text-anchor="middle" x="305" y="-513" font-family="Helvetica,sans-Serif" font-size="10.00" fill="#000000"> vote variant</text>
</g>
<!-- A12&#45;&gt;A13 -->
<g id="edge17" class="edge">
<title>A12&#45;&gt;A13</title>
<path fill="none" stroke="#000000" d="M227.3105,-597.0105C239.4748,-585.2657 261.2749,-564.2173 278.6924,-547.4004"/>
<polygon fill="#000000" stroke="#000000" points="286.3363,-540.0201 282.268,-550.2034 282.7393,-543.4931 279.1423,-546.9661 279.1423,-546.9661 279.1423,-546.9661 282.7393,-543.4931 276.0166,-543.7288 286.3363,-540.0201 286.3363,-540.0201"/>
<text text-anchor="middle" x="302.287" y="-561" font-family="Helvetica,sans-Serif" font-size="10.00" fill="#000000">[Voting allowed]</text>
</g>
<!-- A14 -->
<g id="node15" class="node">
<title>A14</title>
<path fill="none" stroke="#000000" d="M327.9646,-467C327.9646,-467 284.0354,-467 284.0354,-467 278.0354,-467 272.0354,-461 272.0354,-455 272.0354,-455 272.0354,-443 272.0354,-443 272.0354,-437 278.0354,-431 284.0354,-431 284.0354,-431 327.9646,-431 327.9646,-431 333.9646,-431 339.9646,-437 339.9646,-443 339.9646,-443 339.9646,-455 339.9646,-455 339.9646,-461 333.9646,-467 327.9646,-467"/>
<text text-anchor="middle" x="306" y="-446" font-family="Helvetica,sans-Serif" font-size="10.00" fill="#000000">Add vote</text>
</g>
<!-- A13&#45;&gt;A14 -->
<g id="edge18" class="edge">
<title>A13&#45;&gt;A14</title>
<path fill="none" stroke="#000000" d="M305.2472,-503.9551C305.3578,-495.8828 305.4907,-486.1764 305.6139,-477.1817"/>
<polygon fill="#000000" stroke="#000000" points="305.7522,-467.0904 310.1147,-477.1511 305.6837,-472.0899 305.6151,-477.0894 305.6151,-477.0894 305.6151,-477.0894 305.6837,-472.0899 301.1155,-477.0277 305.7522,-467.0904 305.7522,-467.0904"/>
</g>
<!-- A15 -->
<g id="node16" class="node">
<title>A15</title>
<path fill="none" stroke="#000000" d="M357.5947,-383C357.5947,-383 258.4053,-383 258.4053,-383 252.4053,-383 246.4053,-377 246.4053,-371 246.4053,-371 246.4053,-351 246.4053,-351 246.4053,-345 252.4053,-339 258.4053,-339 258.4053,-339 357.5947,-339 357.5947,-339 363.5947,-339 369.5947,-345 369.5947,-351 369.5947,-351 369.5947,-371 369.5947,-371 369.5947,-377 363.5947,-383 357.5947,-383"/>
<text text-anchor="middle" x="308" y="-370" font-family="Helvetica,sans-Serif" font-size="10.00" fill="#000000">Locking</text>
<text text-anchor="middle" x="308" y="-358" font-family="Helvetica,sans-Serif" font-size="10.00" fill="#000000"> a governance tokens</text>
<text text-anchor="middle" x="308" y="-346" font-family="Helvetica,sans-Serif" font-size="10.00" fill="#000000"> by the Dao</text>
</g>
<!-- A14&#45;&gt;A15 -->
<g id="edge19" class="edge">
<title>A14&#45;&gt;A15</title>
<path fill="none" stroke="#000000" d="M306.4144,-430.7663C306.6593,-419.9897 306.9766,-406.0292 307.2629,-393.4308"/>
<polygon fill="#000000" stroke="#000000" points="307.4939,-383.2683 311.7654,-393.368 307.3802,-388.267 307.2666,-393.2657 307.2666,-393.2657 307.2666,-393.2657 307.3802,-388.267 302.7678,-393.1634 307.4939,-383.2683 307.4939,-383.2683"/>
</g>
<!-- A16 -->
<g id="node17" class="node">
<title>A16</title>
<polygon fill="#d3d3d3" stroke="#000000" stroke-width="4" points="290,-259 290,-263 326,-263 326,-259 290,-259"/>
<text text-anchor="middle" x="307.639" y="-260.7" font-family="Helvetica,sans-Serif" font-size="1.00" fill="#000000"> </text>
</g>
<!-- A15&#45;&gt;A16 -->
<g id="edge20" class="edge">
<title>A15&#45;&gt;A16:n</title>
<path fill="none" stroke="#000000" d="M308,-338.8148C308,-321.5124 308,-296.578 308,-273.2308"/>
<polygon fill="#000000" stroke="#000000" points="308,-263 312.5001,-273 308,-268 308.0001,-273 308.0001,-273 308.0001,-273 308,-268 303.5001,-273 308,-263 308,-263"/>
</g>
<!-- A17 -->
<g id="node18" class="node">
<title>A17</title>
<path fill="none" stroke="#000000" d="M355.8224,-191C355.8224,-191 258.1776,-191 258.1776,-191 252.1776,-191 246.1776,-185 246.1776,-179 246.1776,-179 246.1776,-167 246.1776,-167 246.1776,-161 252.1776,-155 258.1776,-155 258.1776,-155 355.8224,-155 355.8224,-155 361.8224,-155 367.8224,-161 367.8224,-167 367.8224,-167 367.8224,-179 367.8224,-179 367.8224,-185 361.8224,-191 355.8224,-191"/>
<text text-anchor="middle" x="307" y="-170" font-family="Helvetica,sans-Serif" font-size="10.00" fill="#000000">Save original &#39;voices&#39;</text>
</g>
<!-- A16&#45;&gt;A17 -->
<g id="edge21" class="edge">
<title>A16&#45;&gt;A17</title>
<path fill="none" stroke="#000000" d="M307.9753,-258.8247C307.8859,-250.9548 307.5714,-223.2797 307.3234,-201.4574"/>
<polygon fill="#000000" stroke="#000000" points="307.2083,-191.3272 311.8217,-201.2754 307.2651,-196.3269 307.322,-201.3265 307.322,-201.3265 307.322,-201.3265 307.2651,-196.3269 302.8223,-201.3777 307.2083,-191.3272 307.2083,-191.3272"/>
</g>
<!-- A19 -->
<g id="node20" class="node">
<title>A19</title>
<path fill="none" stroke="#000000" d="M499.8111,-195C499.8111,-195 398.1889,-195 398.1889,-195 392.1889,-195 386.1889,-189 386.1889,-183 386.1889,-183 386.1889,-163 386.1889,-163 386.1889,-157 392.1889,-151 398.1889,-151 398.1889,-151 499.8111,-151 499.8111,-151 505.8111,-151 511.8111,-157 511.8111,-163 511.8111,-163 511.8111,-183 511.8111,-183 511.8111,-189 505.8111,-195 499.8111,-195"/>
<text text-anchor="middle" x="449" y="-182" font-family="Helvetica,sans-Serif" font-size="10.00" fill="#000000">Add square root value</text>
<text text-anchor="middle" x="449" y="-170" font-family="Helvetica,sans-Serif" font-size="10.00" fill="#000000"> of original &#39;voices&#39;</text>
<text text-anchor="middle" x="449" y="-158" font-family="Helvetica,sans-Serif" font-size="10.00" fill="#000000"> to voting balance</text>
</g>
<!-- A16&#45;&gt;A19 -->
<g id="edge23" class="edge">
<title>A16&#45;&gt;A19</title>
<path fill="none" stroke="#000000" d="M311.4854,-258.8247C324.2694,-250.846 369.6699,-222.511 404.8477,-200.556"/>
<polygon fill="#000000" stroke="#000000" points="413.5449,-195.128 407.4441,-204.2402 409.3032,-197.7753 405.0615,-200.4226 405.0615,-200.4226 405.0615,-200.4226 409.3032,-197.7753 402.6789,-196.6051 413.5449,-195.128 413.5449,-195.128"/>
</g>
<!-- A18 -->
<g id="node19" class="node">
<title>A18</title>
<polygon fill="#d3d3d3" stroke="#000000" stroke-width="4" points="298,-83 298,-87 334,-87 334,-83 298,-83"/>
<text text-anchor="middle" x="306.639" y="-84.7" font-family="Helvetica,sans-Serif" font-size="1.00" fill="#000000"> </text>
<polyline fill="none" stroke="#000000" stroke-width="4" points="315.2779,-83 315.2779,-87 "/>
<text text-anchor="middle" x="324.4169" y="-84.7" font-family="Helvetica,sans-Serif" font-size="1.00" fill="#000000"> </text>
</g>
<!-- A17&#45;&gt;A18 -->
<g id="edge22" class="edge">
<title>A17&#45;&gt;A18:n</title>
<path fill="none" stroke="#000000" d="M307,-154.8801C307,-139.9234 307,-117.8541 307,-97.0656"/>
<polygon fill="#000000" stroke="#000000" points="307,-87 311.5001,-97 307,-92 307.0001,-97 307.0001,-97 307.0001,-97 307,-92 302.5001,-97 307,-87 307,-87"/>
</g>
<!-- A18&#45;&gt;A5 -->
<g id="edge25" class="edge">
<title>A18&#45;&gt;A5</title>
<path fill="none" stroke="#000000" d="M313.1727,-82.9805C302.3838,-75.2742 263.1754,-47.2682 238.576,-29.6972"/>
<polygon fill="#000000" stroke="#000000" points="230.2538,-23.7527 241.0067,-25.9033 234.3224,-26.6589 238.3911,-29.5651 238.3911,-29.5651 238.3911,-29.5651 234.3224,-26.6589 235.7755,-33.2269 230.2538,-23.7527 230.2538,-23.7527"/>
</g>
<!-- A19&#45;&gt;A18 -->
<g id="edge24" class="edge">
<title>A19&#45;&gt;A18:n</title>
<path fill="none" stroke="#000000" d="M402.099,-150.9554C372.1718,-135.5626 337.147,-114.6322 326.9324,-96.6397"/>
<polygon fill="#000000" stroke="#000000" points="324,-87 331.2156,-95.2575 325.4552,-91.7836 326.9104,-96.5671 326.9104,-96.5671 326.9104,-96.5671 325.4552,-91.7836 322.6051,-97.8768 324,-87 324,-87"/>
</g>
</g>
</svg>
