<?xml version="1.0" encoding="UTF-8" standalone="no"?>
<!DOCTYPE svg PUBLIC "-//W3C//DTD SVG 1.1//EN"
 "http://www.w3.org/Graphics/SVG/1.1/DTD/svg11.dtd">
<!-- Generated by graphviz version 2.40.1 (20161225.0304)
 -->
<!-- Title: G Pages: 1 -->
<svg width="582pt" height="1170pt"
 viewBox="0.00 0.00 581.67 1170.00" xmlns="http://www.w3.org/2000/svg" xmlns:xlink="http://www.w3.org/1999/xlink">
<g id="graph0" class="graph" transform="scale(1 1) rotate(0) translate(4 1166)">
<title>G</title>
<polygon fill="#ffffff" stroke="transparent" points="-4,4 -4,-1166 577.67,-1166 577.67,4 -4,4"/>
<!-- A0 -->
<g id="node1" class="node">
<title>A0</title>
<polygon fill="#f5f5dc" stroke="#000000" points="417.7854,-1162 358.2146,-1162 358.2146,-1126 423.7854,-1126 423.7854,-1156 417.7854,-1162"/>
<polyline fill="none" stroke="#000000" points="417.7854,-1162 417.7854,-1156 "/>
<polyline fill="none" stroke="#000000" points="423.7854,-1156 417.7854,-1156 "/>
<text text-anchor="middle" x="391" y="-1147" font-family="Helvetica,sans-Serif" font-size="10.00" fill="#000000">Voting</text>
<text text-anchor="middle" x="391" y="-1135" font-family="Helvetica,sans-Serif" font-size="10.00" fill="#000000"> process</text>
</g>
<!-- A1 -->
<g id="node2" class="node">
<title>A1</title>
<ellipse fill="none" stroke="#000000" cx="453" cy="-1144" rx="11" ry="11"/>
</g>
<!-- A2 -->
<g id="node3" class="node">
<title>A2</title>
<path fill="none" stroke="#000000" d="M495.6855,-1089C495.6855,-1089 410.3145,-1089 410.3145,-1089 404.3145,-1089 398.3145,-1083 398.3145,-1077 398.3145,-1077 398.3145,-1065 398.3145,-1065 398.3145,-1059 404.3145,-1053 410.3145,-1053 410.3145,-1053 495.6855,-1053 495.6855,-1053 501.6855,-1053 507.6855,-1059 507.6855,-1065 507.6855,-1065 507.6855,-1077 507.6855,-1077 507.6855,-1083 501.6855,-1089 495.6855,-1089"/>
<text text-anchor="middle" x="453" y="-1068" font-family="Helvetica,sans-Serif" font-size="10.00" fill="#000000">Proposal selection</text>
</g>
<!-- A1&#45;&gt;A2 -->
<g id="edge1" class="edge">
<title>A1&#45;&gt;A2</title>
<path fill="none" stroke="#000000" d="M453,-1132.9129C453,-1123.9959 453,-1111.0618 453,-1099.3187"/>
<polygon fill="#000000" stroke="#000000" points="453,-1089.0186 457.5001,-1099.0186 453,-1094.0186 453.0001,-1099.0186 453.0001,-1099.0186 453.0001,-1099.0186 453,-1094.0186 448.5001,-1099.0186 453,-1089.0186 453,-1089.0186"/>
</g>
<!-- A3 -->
<g id="node4" class="node">
<title>A3</title>
<polygon fill="#d3d3d3" stroke="#000000" stroke-width="4" points="435,-1011.5 435,-1015.5 471,-1015.5 471,-1011.5 435,-1011.5"/>
<text text-anchor="middle" x="452.639" y="-1013.2" font-family="Helvetica,sans-Serif" font-size="1.00" fill="#000000"> </text>
</g>
<!-- A2&#45;&gt;A3 -->
<g id="edge2" class="edge">
<title>A2&#45;&gt;A3:n</title>
<path fill="none" stroke="#000000" d="M453,-1052.5C453,-1044.5749 453,-1034.9869 453,-1025.5678"/>
<polygon fill="#000000" stroke="#000000" points="453,-1015.5 457.5001,-1025.5 453,-1020.5 453.0001,-1025.5 453.0001,-1025.5 453.0001,-1025.5 453,-1020.5 448.5001,-1025.5 453,-1015.5 453,-1015.5"/>
</g>
<!-- A4 -->
<g id="node5" class="node">
<title>A4</title>
<polygon fill="none" stroke="#000000" points="154,-974 136,-956 154,-938 172,-956 154,-974"/>
</g>
<!-- A3&#45;&gt;A4 -->
<g id="edge3" class="edge">
<title>A3&#45;&gt;A4</title>
<path fill="none" stroke="#000000" d="M442.3584,-1011.4535C399.8646,-1003.2816 241.6374,-972.8533 179.3883,-960.8824"/>
<polygon fill="#000000" stroke="#000000" points="169.2595,-958.9345 179.9294,-956.404 174.1696,-959.8788 179.0796,-960.8231 179.0796,-960.8231 179.0796,-960.8231 174.1696,-959.8788 178.2297,-965.2421 169.2595,-958.9345 169.2595,-958.9345"/>
</g>
<!-- A6 -->
<g id="node7" class="node">
<title>A6</title>
<polygon fill="none" stroke="#000000" points="482,-195 464,-177 482,-159 500,-177 482,-195"/>
</g>
<!-- A3&#45;&gt;A6 -->
<g id="edge5" class="edge">
<title>A3&#45;&gt;A6</title>
<path fill="none" stroke="#000000" d="M460.8123,-1011.4202C479.6443,-1005.8833 526,-988.9113 526,-956 526,-956 526,-956 526,-265 526,-238.3815 509.6955,-211.5612 496.9367,-194.6484"/>
<polygon fill="#000000" stroke="#000000" points="490.693,-186.7607 500.428,-191.8086 493.7963,-190.6811 496.8996,-194.6015 496.8996,-194.6015 496.8996,-194.6015 493.7963,-190.6811 493.3713,-197.3945 490.693,-186.7607 490.693,-186.7607"/>
</g>
<!-- A5 -->
<g id="node6" class="node">
<title>A5</title>
<ellipse fill="none" stroke="#000000" cx="218" cy="-15" rx="11" ry="11"/>
<ellipse fill="none" stroke="#000000" cx="218" cy="-15" rx="15" ry="15"/>
</g>
<!-- A4&#45;&gt;A5 -->
<g id="edge4" class="edge">
<title>A4&#45;&gt;A5</title>
<path fill="none" stroke="#000000" d="M139.2338,-952.7606C100.6889,-943.8807 0,-917.7859 0,-887.5 0,-887.5 0,-887.5 0,-89 0,-48.6356 135.7075,-25.8999 192.9777,-18.1023"/>
<polygon fill="#000000" stroke="#000000" points="203.016,-16.7801 193.6893,-22.5475 198.0588,-17.4331 193.1016,-18.0861 193.1016,-18.0861 193.1016,-18.0861 198.0588,-17.4331 192.5139,-13.6246 203.016,-16.7801 203.016,-16.7801"/>
<text text-anchor="middle" x="39.7365" y="-501" font-family="Helvetica,sans-Serif" font-size="10.00" fill="#000000">[Voting not active]</text>
</g>
<!-- A8 -->
<g id="node9" class="node">
<title>A8</title>
<polygon fill="#d3d3d3" stroke="#000000" stroke-width="4" points="136,-885.5 136,-889.5 172,-889.5 172,-885.5 136,-885.5"/>
<text text-anchor="middle" x="153.639" y="-887.2" font-family="Helvetica,sans-Serif" font-size="1.00" fill="#000000"> </text>
</g>
<!-- A4&#45;&gt;A8 -->
<g id="edge9" class="edge">
<title>A4&#45;&gt;A8:n</title>
<path fill="none" stroke="#000000" d="M154,-937.9363C154,-927.2783 154,-913.2594 154,-899.7081"/>
<polygon fill="#000000" stroke="#000000" points="154,-889.5 158.5001,-899.5 154,-894.5 154.0001,-899.5 154.0001,-899.5 154.0001,-899.5 154,-894.5 149.5001,-899.5 154,-889.5 154,-889.5"/>
<text text-anchor="middle" x="185.3985" y="-911" font-family="Helvetica,sans-Serif" font-size="10.00" fill="#000000">[Voting active]</text>
</g>
<!-- A6&#45;&gt;A5 -->
<g id="edge6" class="edge">
<title>A6&#45;&gt;A5</title>
<path fill="none" stroke="#000000" d="M469.4069,-171.3334C447.7802,-161.2257 402.8272,-138.5415 370.873,-111 351.7611,-94.5273 355.0478,-82.32 335,-67 306.41,-45.1523 267.1957,-30.1429 242.2244,-22.0592"/>
<polygon fill="#000000" stroke="#000000" points="232.4669,-19.019 243.3529,-17.6975 237.2406,-20.5064 242.0143,-21.9938 242.0143,-21.9938 242.0143,-21.9938 237.2406,-20.5064 240.6756,-26.2901 232.4669,-19.019 232.4669,-19.019"/>
<text text-anchor="middle" x="398.0635" y="-92" font-family="Helvetica,sans-Serif" font-size="10.00" fill="#000000">[Withdrawal</text>
<text text-anchor="middle" x="398.0635" y="-80" font-family="Helvetica,sans-Serif" font-size="10.00" fill="#000000"> not allowed]</text>
</g>
<!-- A7 -->
<g id="node8" class="node">
<title>A7</title>
<path fill="none" stroke="#000000" d="M515.91,-107C515.91,-107 448.09,-107 448.09,-107 442.09,-107 436.09,-101 436.09,-95 436.09,-95 436.09,-83 436.09,-83 436.09,-77 442.09,-71 448.09,-71 448.09,-71 515.91,-71 515.91,-71 521.91,-71 527.91,-77 527.91,-83 527.91,-83 527.91,-95 527.91,-95 527.91,-101 521.91,-107 515.91,-107"/>
<text text-anchor="middle" x="482" y="-92" font-family="Helvetica,sans-Serif" font-size="10.00" fill="#000000">Withdraw</text>
<text text-anchor="middle" x="482" y="-80" font-family="Helvetica,sans-Serif" font-size="10.00" fill="#000000"> locked tokens</text>
</g>
<!-- A6&#45;&gt;A7 -->
<g id="edge7" class="edge">
<title>A6&#45;&gt;A7</title>
<path fill="none" stroke="#000000" d="M482,-158.7663C482,-146.8492 482,-131.0384 482,-117.4817"/>
<polygon fill="#000000" stroke="#000000" points="482,-107.2103 486.5001,-117.2103 482,-112.2103 482.0001,-117.2103 482.0001,-117.2103 482.0001,-117.2103 482,-112.2103 477.5001,-117.2103 482,-107.2103 482,-107.2103"/>
<text text-anchor="middle" x="527.835" y="-132" font-family="Helvetica,sans-Serif" font-size="10.00" fill="#000000">[Withdrawal allowed]</text>
</g>
<!-- A7&#45;&gt;A5 -->
<g id="edge8" class="edge">
<title>A7&#45;&gt;A5</title>
<path fill="none" stroke="#000000" d="M439.9957,-70.9341C420.7451,-63.1286 397.4761,-54.35 376,-48 329.8466,-34.3536 274.5051,-24.1644 243.078,-18.9359"/>
<polygon fill="#000000" stroke="#000000" points="233.0134,-17.2959 243.607,-14.4628 237.9483,-18.1001 242.8832,-18.9043 242.8832,-18.9043 242.8832,-18.9043 237.9483,-18.1001 242.1595,-23.3457 233.0134,-17.2959 233.0134,-17.2959"/>
</g>
<!-- A9 -->
<g id="node10" class="node">
<title>A9</title>
<polygon fill="none" stroke="#000000" points="109,-283 91,-265 109,-247 127,-265 109,-283"/>
</g>
<!-- A8&#45;&gt;A9 -->
<g id="edge10" class="edge">
<title>A8&#45;&gt;A9</title>
<path fill="none" stroke="#000000" d="M151.646,-885.1035C144.5737,-877.6385 124,-853.8705 124,-830 124,-830 124,-830 124,-326.5 124,-313.3737 120.7349,-299.1089 117.2514,-287.625"/>
<polygon fill="#000000" stroke="#000000" points="114.0783,-277.973 121.4764,-286.0674 115.6399,-282.7229 117.2015,-287.4728 117.2015,-287.4728 117.2015,-287.4728 115.6399,-282.7229 112.9265,-288.8782 114.0783,-277.973 114.0783,-277.973"/>
</g>
<!-- A12 -->
<g id="node13" class="node">
<title>A12</title>
<polygon fill="none" stroke="#000000" points="215,-848 197,-830 215,-812 233,-830 215,-848"/>
</g>
<!-- A8&#45;&gt;A12 -->
<g id="edge15" class="edge">
<title>A8&#45;&gt;A12</title>
<path fill="none" stroke="#000000" d="M156.3168,-885.3161C163.074,-878.9466 183.2177,-859.9587 198.0265,-845.9996"/>
<polygon fill="#000000" stroke="#000000" points="205.5858,-838.8741 201.3957,-849.0079 201.9474,-842.3037 198.309,-845.7333 198.309,-845.7333 198.309,-845.7333 201.9474,-842.3037 195.2223,-842.4588 205.5858,-838.8741 205.5858,-838.8741"/>
</g>
<!-- A9&#45;&gt;A5 -->
<g id="edge11" class="edge">
<title>A9&#45;&gt;A5</title>
<path fill="none" stroke="#000000" d="M98.8572,-256.9956C74.0848,-236.4149 14.0405,-179.7102 35.42,-129 63.0481,-63.4689 150.4989,-32.3683 193.5606,-20.7221"/>
<polygon fill="#000000" stroke="#000000" points="203.2485,-18.2297 194.6851,-25.0795 198.4062,-19.4756 193.5639,-20.7214 193.5639,-20.7214 193.5639,-20.7214 198.4062,-19.4756 192.4426,-16.3633 203.2485,-18.2297 203.2485,-18.2297"/>
<text text-anchor="middle" x="86.29" y="-132" font-family="Helvetica,sans-Serif" font-size="10.00" fill="#000000">[Revoking not allowed]</text>
</g>
<!-- A10 -->
<g id="node11" class="node">
<title>A10</title>
<path fill="none" stroke="#000000" d="M178.1351,-195C178.1351,-195 77.8649,-195 77.8649,-195 71.8649,-195 65.8649,-189 65.8649,-183 65.8649,-183 65.8649,-171 65.8649,-171 65.8649,-165 71.8649,-159 77.8649,-159 77.8649,-159 178.1351,-159 178.1351,-159 184.1351,-159 190.1351,-165 190.1351,-171 190.1351,-171 190.1351,-183 190.1351,-183 190.1351,-189 184.1351,-195 178.1351,-195"/>
<text text-anchor="middle" x="128" y="-174" font-family="Helvetica,sans-Serif" font-size="10.00" fill="#000000">Revoke previous vote</text>
</g>
<!-- A9&#45;&gt;A10 -->
<g id="edge12" class="edge">
<title>A9&#45;&gt;A10</title>
<path fill="none" stroke="#000000" d="M107.5186,-248.3648C107.0469,-238.0375 107.2498,-224.574 110.098,-213 110.8017,-210.1406 111.7596,-207.2459 112.8688,-204.4053"/>
<polygon fill="#000000" stroke="#000000" points="117.0737,-195.0854 117.063,-206.0513 115.0174,-199.643 112.9611,-204.2006 112.9611,-204.2006 112.9611,-204.2006 115.0174,-199.643 108.8593,-202.35 117.0737,-195.0854 117.0737,-195.0854"/>
<text text-anchor="middle" x="157.951" y="-216" font-family="Helvetica,sans-Serif" font-size="10.00" fill="#000000">[Revoking is allowed]</text>
</g>
<!-- A11 -->
<g id="node12" class="node">
<title>A11</title>
<path fill="none" stroke="#000000" d="M178.4603,-107C178.4603,-107 119.5397,-107 119.5397,-107 113.5397,-107 107.5397,-101 107.5397,-95 107.5397,-95 107.5397,-83 107.5397,-83 107.5397,-77 113.5397,-71 119.5397,-71 119.5397,-71 178.4603,-71 178.4603,-71 184.4603,-71 190.4603,-77 190.4603,-83 190.4603,-83 190.4603,-95 190.4603,-95 190.4603,-101 184.4603,-107 178.4603,-107"/>
<text text-anchor="middle" x="149" y="-92" font-family="Helvetica,sans-Serif" font-size="10.00" fill="#000000">Update</text>
<text text-anchor="middle" x="149" y="-80" font-family="Helvetica,sans-Serif" font-size="10.00" fill="#000000"> voting store</text>
</g>
<!-- A10&#45;&gt;A11 -->
<g id="edge13" class="edge">
<title>A10&#45;&gt;A11</title>
<path fill="none" stroke="#000000" d="M134.6431,-158.8431C136.5548,-153.1803 138.5207,-146.8777 140,-141 141.9064,-133.4256 143.5411,-125.1294 144.8737,-117.432"/>
<polygon fill="#000000" stroke="#000000" points="146.5008,-107.4309 149.3366,-118.0238 145.6979,-112.366 144.8949,-117.3011 144.8949,-117.3011 144.8949,-117.3011 145.6979,-112.366 140.4533,-116.5785 146.5008,-107.4309 146.5008,-107.4309"/>
</g>
<!-- A11&#45;&gt;A5 -->
<g id="edge14" class="edge">
<title>A11&#45;&gt;A5</title>
<path fill="none" stroke="#000000" d="M166.0562,-70.7079C176.5894,-59.4114 190.0665,-44.9576 200.6532,-33.6038"/>
<polygon fill="#000000" stroke="#000000" points="207.7678,-25.9737 204.2393,-36.3564 204.3579,-29.6306 200.9481,-33.2876 200.9481,-33.2876 200.9481,-33.2876 204.3579,-29.6306 197.6568,-30.2187 207.7678,-25.9737 207.7678,-25.9737"/>
</g>
<!-- A12&#45;&gt;A5 -->
<g id="edge16" class="edge">
<title>A12&#45;&gt;A5</title>
<path fill="none" stroke="#000000" d="M215,-811.9756C215,-794.9658 215,-768.75 215,-746 215,-746 215,-746 215,-305.5 215,-207.4991 216.7283,-90.9114 217.5613,-40.4086"/>
<polygon fill="#000000" stroke="#000000" points="217.7338,-30.1206 222.0654,-40.1947 217.6499,-35.1199 217.566,-40.1192 217.566,-40.1192 217.566,-40.1192 217.6499,-35.1199 213.0667,-40.0437 217.7338,-30.1206 217.7338,-30.1206"/>
<text text-anchor="middle" x="243.0635" y="-387" font-family="Helvetica,sans-Serif" font-size="10.00" fill="#000000">[Voting</text>
<text text-anchor="middle" x="243.0635" y="-375" font-family="Helvetica,sans-Serif" font-size="10.00" fill="#000000"> not allowed]</text>
</g>
<!-- A13 -->
<g id="node14" class="node">
<title>A13</title>
<path fill="none" stroke="#000000" d="M364.3545,-764C364.3545,-764 271.6455,-764 271.6455,-764 265.6455,-764 259.6455,-758 259.6455,-752 259.6455,-752 259.6455,-740 259.6455,-740 259.6455,-734 265.6455,-728 271.6455,-728 271.6455,-728 364.3545,-728 364.3545,-728 370.3545,-728 376.3545,-734 376.3545,-740 376.3545,-740 376.3545,-752 376.3545,-752 376.3545,-758 370.3545,-764 364.3545,-764"/>
<text text-anchor="middle" x="318" y="-749" font-family="Helvetica,sans-Serif" font-size="10.00" fill="#000000">Choosing YES / NO</text>
<text text-anchor="middle" x="318" y="-737" font-family="Helvetica,sans-Serif" font-size="10.00" fill="#000000"> vote variant</text>
</g>
<!-- A12&#45;&gt;A13 -->
<g id="edge17" class="edge">
<title>A12&#45;&gt;A13</title>
<path fill="none" stroke="#000000" d="M225.2526,-821.6387C239.6909,-809.8637 266.612,-787.9087 287.7454,-770.6737"/>
<polygon fill="#000000" stroke="#000000" points="295.5235,-764.3304 290.6179,-774.1378 291.6487,-767.4904 287.7738,-770.6505 287.7738,-770.6505 287.7738,-770.6505 291.6487,-767.4904 284.9298,-767.1631 295.5235,-764.3304 295.5235,-764.3304"/>
<text text-anchor="middle" x="308.287" y="-785" font-family="Helvetica,sans-Serif" font-size="10.00" fill="#000000">[Voting allowed]</text>
</g>
<!-- A14 -->
<g id="node15" class="node">
<title>A14</title>
<path fill="none" stroke="#000000" d="M378.522,-691C378.522,-691 329.478,-691 329.478,-691 323.478,-691 317.478,-685 317.478,-679 317.478,-679 317.478,-667 317.478,-667 317.478,-661 323.478,-655 329.478,-655 329.478,-655 378.522,-655 378.522,-655 384.522,-655 390.522,-661 390.522,-667 390.522,-667 390.522,-679 390.522,-679 390.522,-685 384.522,-691 378.522,-691"/>
<text text-anchor="middle" x="354" y="-670" font-family="Helvetica,sans-Serif" font-size="10.00" fill="#000000">Send vote</text>
</g>
<!-- A13&#45;&gt;A14 -->
<g id="edge18" class="edge">
<title>A13&#45;&gt;A14</title>
<path fill="none" stroke="#000000" d="M326.8989,-727.9551C331.0095,-719.6196 335.9795,-709.5416 340.5349,-700.3042"/>
<polygon fill="#000000" stroke="#000000" points="345.0787,-691.0904 344.6917,-702.0494 342.8672,-695.5747 340.6557,-700.0591 340.6557,-700.0591 340.6557,-700.0591 342.8672,-695.5747 336.6198,-698.0687 345.0787,-691.0904 345.0787,-691.0904"/>
</g>
<!-- A15 -->
<g id="node16" class="node">
<title>A15</title>
<polygon fill="none" stroke="#000000" points="372,-618 354,-600 372,-582 390,-600 372,-618"/>
</g>
<!-- A14&#45;&gt;A15 -->
<g id="edge19" class="edge">
<title>A14&#45;&gt;A15</title>
<path fill="none" stroke="#000000" d="M358.4494,-654.9551C360.7056,-645.8049 363.4796,-634.5548 365.9288,-624.622"/>
<polygon fill="#000000" stroke="#000000" points="368.3283,-614.8909 370.3033,-625.6775 367.1312,-619.7455 365.9341,-624.6001 365.9341,-624.6001 365.9341,-624.6001 367.1312,-619.7455 361.565,-623.5228 368.3283,-614.8909 368.3283,-614.8909"/>
</g>
<!-- A16 -->
<g id="node17" class="node">
<title>A16</title>
<polygon fill="none" stroke="#000000" points="372,-522 354,-504 372,-486 390,-504 372,-522"/>
</g>
<!-- A15&#45;&gt;A16 -->
<g id="edge20" class="edge">
<title>A15&#45;&gt;A16</title>
<path fill="none" stroke="#000000" d="M372,-581.9431C372,-568.0862 372,-548.6861 372,-532.7075"/>
<polygon fill="#000000" stroke="#000000" points="372,-522.3023 376.5001,-532.3023 372,-527.3023 372.0001,-532.3023 372.0001,-532.3023 372.0001,-532.3023 372,-527.3023 367.5001,-532.3023 372,-522.3023 372,-522.3023"/>
<text text-anchor="middle" x="400.62" y="-555" font-family="Helvetica,sans-Serif" font-size="10.00" fill="#000000">[Existed vote</text>
<text text-anchor="middle" x="400.62" y="-543" font-family="Helvetica,sans-Serif" font-size="10.00" fill="#000000"> found]</text>
</g>
<!-- A19 -->
<g id="node20" class="node">
<title>A19</title>
<path fill="none" stroke="#000000" d="M498.08,-462C498.08,-462 433.92,-462 433.92,-462 427.92,-462 421.92,-456 421.92,-450 421.92,-450 421.92,-438 421.92,-438 421.92,-432 427.92,-426 433.92,-426 433.92,-426 498.08,-426 498.08,-426 504.08,-426 510.08,-432 510.08,-438 510.08,-438 510.08,-450 510.08,-450 510.08,-456 504.08,-462 498.08,-462"/>
<text text-anchor="middle" x="466" y="-441" font-family="Helvetica,sans-Serif" font-size="10.00" fill="#000000">Add new vote</text>
</g>
<!-- A15&#45;&gt;A19 -->
<g id="edge24" class="edge">
<title>A15&#45;&gt;A19</title>
<path fill="none" stroke="#000000" d="M385.7378,-595.4031C399.6839,-590.036 420.8964,-579.8226 433,-564 453.5377,-537.1518 461.2978,-498.3029 464.2275,-472.1477"/>
<polygon fill="#000000" stroke="#000000" points="465.1841,-462.1244 468.7136,-472.5067 464.709,-467.1017 464.2339,-472.0791 464.2339,-472.0791 464.2339,-472.0791 464.709,-467.1017 459.7543,-471.6515 465.1841,-462.1244 465.1841,-462.1244"/>
<text text-anchor="middle" x="469.6155" y="-549" font-family="Helvetica,sans-Serif" font-size="10.00" fill="#000000">[New vote]</text>
</g>
<!-- A17 -->
<g id="node18" class="node">
<title>A17</title>
<path fill="none" stroke="#000000" d="M358.3002,-402C358.3002,-402 301.6998,-402 301.6998,-402 295.6998,-402 289.6998,-396 289.6998,-390 289.6998,-390 289.6998,-378 289.6998,-378 289.6998,-372 295.6998,-366 301.6998,-366 301.6998,-366 358.3002,-366 358.3002,-366 364.3002,-366 370.3002,-372 370.3002,-378 370.3002,-378 370.3002,-390 370.3002,-390 370.3002,-396 364.3002,-402 358.3002,-402"/>
<text text-anchor="middle" x="330" y="-381" font-family="Helvetica,sans-Serif" font-size="10.00" fill="#000000">Enable vote</text>
</g>
<!-- A16&#45;&gt;A17 -->
<g id="edge21" class="edge">
<title>A16&#45;&gt;A17</title>
<path fill="none" stroke="#000000" d="M363.7779,-493.8828C358.5549,-486.9744 352.0542,-477.4019 348.088,-468 340.6205,-450.2984 336.0886,-429.1478 333.4286,-412.4986"/>
<polygon fill="#000000" stroke="#000000" points="331.9389,-402.2892 337.8357,-411.5346 332.6609,-407.2368 333.3828,-412.1844 333.3828,-412.1844 333.3828,-412.1844 332.6609,-407.2368 328.93,-412.8342 331.9389,-402.2892 331.9389,-402.2892"/>
<text text-anchor="middle" x="369.956" y="-459" font-family="Helvetica,sans-Serif" font-size="10.00" fill="#000000">[Previous</text>
<text text-anchor="middle" x="369.956" y="-447" font-family="Helvetica,sans-Serif" font-size="10.00" fill="#000000"> vote</text>
<text text-anchor="middle" x="369.956" y="-435" font-family="Helvetica,sans-Serif" font-size="10.00" fill="#000000"> has been</text>
<text text-anchor="middle" x="369.956" y="-423" font-family="Helvetica,sans-Serif" font-size="10.00" fill="#000000"> revoked]</text>
</g>
<!-- A18 -->
<g id="node19" class="node">
<title>A18</title>
<polygon fill="#d3d3d3" stroke="#000000" stroke-width="4" points="389,-324.5 389,-328.5 425,-328.5 425,-324.5 389,-324.5"/>
<text text-anchor="middle" x="394.639" y="-326.2" font-family="Helvetica,sans-Serif" font-size="1.00" fill="#000000"> </text>
<polyline fill="none" stroke="#000000" stroke-width="4" points="400.2779,-324.5 400.2779,-328.5 "/>
<text text-anchor="middle" x="406.4169" y="-326.2" font-family="Helvetica,sans-Serif" font-size="1.00" fill="#000000"> </text>
<polyline fill="none" stroke="#000000" stroke-width="4" points="412.5558,-324.5 412.5558,-328.5 "/>
<text text-anchor="middle" x="418.6948" y="-326.2" font-family="Helvetica,sans-Serif" font-size="1.00" fill="#000000"> </text>
</g>
<!-- A16&#45;&gt;A18 -->
<g id="edge23" class="edge">
<title>A16&#45;&gt;A18:n</title>
<path fill="none" stroke="#000000" d="M379.5457,-493.1825C383.9497,-486.296 389.1789,-477.0062 392,-468 400.4036,-441.1722 405.0405,-374.5437 405.866,-338.8957"/>
<polygon fill="#000000" stroke="#000000" points="406,-328.5 410.3706,-338.5572 405.9355,-333.4996 405.871,-338.4992 405.871,-338.4992 405.871,-338.4992 405.9355,-333.4996 401.3714,-338.4411 406,-328.5 406,-328.5"/>
<text text-anchor="middle" x="431.23" y="-381" font-family="Helvetica,sans-Serif" font-size="10.00" fill="#000000">[Active vote]</text>
</g>
<!-- A17&#45;&gt;A18 -->
<g id="edge22" class="edge">
<title>A17&#45;&gt;A18:n</title>
<path fill="none" stroke="#000000" d="M370.0552,-365.8678C380.5054,-358.8676 389.8522,-349.7791 393.4414,-338.4961"/>
<polygon fill="#000000" stroke="#000000" points="395,-328.5 397.9057,-339.0739 394.2297,-333.4403 393.4594,-338.3806 393.4594,-338.3806 393.4594,-338.3806 394.2297,-333.4403 389.0131,-337.6873 395,-328.5 395,-328.5"/>
</g>
<!-- A20 -->
<g id="node21" class="node">
<title>A20</title>
<path fill="none" stroke="#000000" d="M316.7883,-283C316.7883,-283 255.2117,-283 255.2117,-283 249.2117,-283 243.2117,-277 243.2117,-271 243.2117,-271 243.2117,-259 243.2117,-259 243.2117,-253 249.2117,-247 255.2117,-247 255.2117,-247 316.7883,-247 316.7883,-247 322.7883,-247 328.7883,-253 328.7883,-259 328.7883,-259 328.7883,-271 328.7883,-271 328.7883,-277 322.7883,-283 316.7883,-283"/>
<text text-anchor="middle" x="286" y="-268" font-family="Helvetica,sans-Serif" font-size="10.00" fill="#000000">Save original</text>
<text text-anchor="middle" x="286" y="-256" font-family="Helvetica,sans-Serif" font-size="10.00" fill="#000000"> &#39;voices&#39; sent</text>
</g>
<!-- A18&#45;&gt;A20 -->
<g id="edge26" class="edge">
<title>A18&#45;&gt;A20</title>
<path fill="none" stroke="#000000" d="M402.9741,-324.4538C391.6515,-318.6989 358.5211,-301.8599 330.3974,-287.5656"/>
<polygon fill="#000000" stroke="#000000" points="321.4762,-283.0313 332.4298,-283.5508 325.9335,-285.2968 330.3908,-287.5623 330.3908,-287.5623 330.3908,-287.5623 325.9335,-285.2968 328.3519,-291.5739 321.4762,-283.0313 321.4762,-283.0313"/>
</g>
<!-- A22 -->
<g id="node23" class="node">
<title>A22</title>
<path fill="none" stroke="#000000" d="M460.8111,-287C460.8111,-287 359.1889,-287 359.1889,-287 353.1889,-287 347.1889,-281 347.1889,-275 347.1889,-275 347.1889,-255 347.1889,-255 347.1889,-249 353.1889,-243 359.1889,-243 359.1889,-243 460.8111,-243 460.8111,-243 466.8111,-243 472.8111,-249 472.8111,-255 472.8111,-255 472.8111,-275 472.8111,-275 472.8111,-281 466.8111,-287 460.8111,-287"/>
<text text-anchor="middle" x="410" y="-274" font-family="Helvetica,sans-Serif" font-size="10.00" fill="#000000">Add square root value</text>
<text text-anchor="middle" x="410" y="-262" font-family="Helvetica,sans-Serif" font-size="10.00" fill="#000000"> of original &#39;voices&#39;</text>
<text text-anchor="middle" x="410" y="-250" font-family="Helvetica,sans-Serif" font-size="10.00" fill="#000000"> to voting balance</text>
</g>
<!-- A18&#45;&gt;A22 -->
<g id="edge28" class="edge">
<title>A18&#45;&gt;A22</title>
<path fill="none" stroke="#000000" d="M407.0998,-324.4538C407.3184,-319.9724 407.8649,-308.7697 408.4253,-297.2812"/>
<polygon fill="#000000" stroke="#000000" points="408.9135,-287.2736 412.9208,-297.481 408.6698,-292.2676 408.4262,-297.2617 408.4262,-297.2617 408.4262,-297.2617 408.6698,-292.2676 403.9315,-297.0424 408.9135,-287.2736 408.9135,-287.2736"/>
</g>
<!-- A19&#45;&gt;A18 -->
<g id="edge25" class="edge">
<title>A19&#45;&gt;A18:n</title>
<path fill="none" stroke="#000000" d="M469.5839,-425.9817C471.9521,-409.5063 473.1488,-384.8985 464,-366 454.5173,-346.4117 429.4429,-351.5603 421.4706,-338.5693"/>
<polygon fill="#000000" stroke="#000000" points="419,-328.5 425.7533,-337.1396 420.1915,-333.356 421.383,-338.2119 421.383,-338.2119 421.383,-338.2119 420.1915,-333.356 417.0126,-339.2843 419,-328.5 419,-328.5"/>
</g>
<!-- A21 -->
<g id="node22" class="node">
<title>A21</title>
<polygon fill="#d3d3d3" stroke="#000000" stroke-width="4" points="277,-175 277,-179 313,-179 313,-175 277,-175"/>
<text text-anchor="middle" x="285.639" y="-176.7" font-family="Helvetica,sans-Serif" font-size="1.00" fill="#000000"> </text>
<polyline fill="none" stroke="#000000" stroke-width="4" points="294.2779,-175 294.2779,-179 "/>
<text text-anchor="middle" x="303.4169" y="-176.7" font-family="Helvetica,sans-Serif" font-size="1.00" fill="#000000"> </text>
</g>
<!-- A20&#45;&gt;A21 -->
<g id="edge27" class="edge">
<title>A20&#45;&gt;A21:n</title>
<path fill="none" stroke="#000000" d="M286,-246.8801C286,-231.9234 286,-209.8541 286,-189.0656"/>
<polygon fill="#000000" stroke="#000000" points="286,-179 290.5001,-189 286,-184 286.0001,-189 286.0001,-189 286.0001,-189 286,-184 281.5001,-189 286,-179 286,-179"/>
</g>
<!-- A23 -->
<g id="node24" class="node">
<title>A23</title>
<path fill="none" stroke="#000000" d="M313.6301,-111C313.6301,-111 258.3699,-111 258.3699,-111 252.3699,-111 246.3699,-105 246.3699,-99 246.3699,-99 246.3699,-79 246.3699,-79 246.3699,-73 252.3699,-67 258.3699,-67 258.3699,-67 313.6301,-67 313.6301,-67 319.6301,-67 325.6301,-73 325.6301,-79 325.6301,-79 325.6301,-99 325.6301,-99 325.6301,-105 319.6301,-111 313.6301,-111"/>
<text text-anchor="middle" x="286" y="-98" font-family="Helvetica,sans-Serif" font-size="10.00" fill="#000000">Lock</text>
<text text-anchor="middle" x="286" y="-86" font-family="Helvetica,sans-Serif" font-size="10.00" fill="#000000"> tokens</text>
<text text-anchor="middle" x="286" y="-74" font-family="Helvetica,sans-Serif" font-size="10.00" fill="#000000"> by the Dao</text>
</g>
<!-- A21&#45;&gt;A23 -->
<g id="edge30" class="edge">
<title>A21&#45;&gt;A23</title>
<path fill="none" stroke="#000000" d="M294.7775,-174.8247C294.0192,-167.4097 291.4627,-142.413 289.3029,-121.2953"/>
<polygon fill="#000000" stroke="#000000" points="288.2842,-111.3341 293.7783,-120.8243 288.7929,-116.3082 289.3017,-121.2822 289.3017,-121.2822 289.3017,-121.2822 288.7929,-116.3082 284.825,-121.7401 288.2842,-111.3341 288.2842,-111.3341"/>
</g>
<!-- A22&#45;&gt;A21 -->
<g id="edge29" class="edge">
<title>A22&#45;&gt;A21:n</title>
<path fill="none" stroke="#000000" d="M352.741,-242.8781C330.3816,-230.6547 308.9021,-213.034 304.0279,-189.205"/>
<polygon fill="#000000" stroke="#000000" points="303,-179 308.4796,-188.4986 303.5011,-183.9748 304.0023,-188.9497 304.0023,-188.9497 304.0023,-188.9497 303.5011,-183.9748 299.5249,-189.4007 303,-179 303,-179"/>
</g>
<!-- A23&#45;&gt;A5 -->
<g id="edge31" class="edge">
<title>A23&#45;&gt;A5</title>
<path fill="none" stroke="#000000" d="M265.5978,-66.7976C255.8432,-56.1824 244.3009,-43.6216 235.0256,-33.5278"/>
<polygon fill="#000000" stroke="#000000" points="228.1504,-26.0461 238.2302,-30.3645 231.5336,-29.7277 234.9167,-33.4094 234.9167,-33.4094 234.9167,-33.4094 231.5336,-29.7277 231.6032,-36.4542 228.1504,-26.0461 228.1504,-26.0461"/>
</g>
</g>
</svg>
