<?xml version="1.0" encoding="UTF-8" standalone="no"?>
<!DOCTYPE svg PUBLIC "-//W3C//DTD SVG 1.1//EN"
 "http://www.w3.org/Graphics/SVG/1.1/DTD/svg11.dtd">
<!-- Generated by graphviz version 2.40.1 (20161225.0304)
 -->
<!-- Title: G Pages: 1 -->
<svg width="450pt" height="880pt"
 viewBox="0.00 0.00 450.40 880.00" xmlns="http://www.w3.org/2000/svg" xmlns:xlink="http://www.w3.org/1999/xlink">
<g id="graph0" class="graph" transform="scale(1 1) rotate(0) translate(4 876)">
<title>G</title>
<polygon fill="#ffffff" stroke="transparent" points="-4,4 -4,-876 446.4,-876 446.4,4 -4,4"/>
<!-- A0 -->
<g id="node1" class="node">
<title>A0</title>
<polygon fill="#f5f5dc" stroke="#000000" points="98.3006,-45 12.6174,-45 12.6174,-9 104.3006,-9 104.3006,-39 98.3006,-45"/>
<polyline fill="none" stroke="#000000" points="98.3006,-45 98.3006,-39 "/>
<polyline fill="none" stroke="#000000" points="104.3006,-39 98.3006,-39 "/>
<text text-anchor="middle" x="58.459" y="-24" font-family="Helvetica,sans-Serif" font-size="10.00" fill="#000000">System actors</text>
</g>
<!-- A1 -->
<g id="node2" class="node">
<title>A1</title>
<g transform="translate(58.459,-274)" style="fill:none;stroke:black;stroke-width:1px"><circle cx="0" cy="-20" r="7.5" />
                <line x1="0" y1="-12.5" x2="0" y2="5" />
                <line x1="-15" y1="-5" x2="15" y2="-5" />
                <line x1="0" y1="5" x2="-15" y2="17" />
                <line x1="0" y1="5" x2="15" y2="17" /></g>
<text text-anchor="middle" x="58.459" y="-249" font-family="Helvetica,sans-Serif" font-size="10.00" fill="#000000">Code owner</text>
</g>
<!-- A2 -->
<g id="node3" class="node">
<title>A2</title>
<polygon fill="none" stroke="#000000" points="278.67,-392 176.64,-392 176.64,-348 284.67,-348 284.67,-386 278.67,-392"/>
<polyline fill="none" stroke="#000000" points="278.67,-392 278.67,-386 "/>
<polyline fill="none" stroke="#000000" points="284.67,-386 278.67,-386 "/>
<text text-anchor="middle" x="230.655" y="-379" font-family="Helvetica,sans-Serif" font-size="10.00" fill="#000000">Has credentials to</text>
<text text-anchor="middle" x="230.655" y="-367" font-family="Helvetica,sans-Serif" font-size="10.00" fill="#000000">access contracts</text>
<text text-anchor="middle" x="230.655" y="-355" font-family="Helvetica,sans-Serif" font-size="10.00" fill="#000000">repository</text>
</g>
<!-- A1&#45;&gt;A2 -->
<g id="edge1" class="edge">
<title>A1&#45;&gt;A2</title>
<path fill="none" stroke="#000000" stroke-dasharray="5,2" d="M114.9159,-310.2187C131.5405,-319.7428 149.8498,-329.9836 166.918,-339 172.4668,-341.9312 178.3344,-344.9249 184.1735,-347.8397"/>
</g>
<!-- A3 -->
<g id="node4" class="node">
<title>A3</title>
<polygon fill="none" stroke="#000000" points="283.7387,-330 171.5713,-330 171.5713,-286 289.7387,-286 289.7387,-324 283.7387,-330"/>
<polyline fill="none" stroke="#000000" points="283.7387,-330 283.7387,-324 "/>
<polyline fill="none" stroke="#000000" points="289.7387,-324 283.7387,-324 "/>
<text text-anchor="middle" x="230.655" y="-317" font-family="Helvetica,sans-Serif" font-size="10.00" fill="#000000">Can send address</text>
<text text-anchor="middle" x="230.655" y="-305" font-family="Helvetica,sans-Serif" font-size="10.00" fill="#000000">whitelisting</text>
<text text-anchor="middle" x="230.655" y="-293" font-family="Helvetica,sans-Serif" font-size="10.00" fill="#000000">requests to the DAO</text>
</g>
<!-- A1&#45;&gt;A3 -->
<g id="edge2" class="edge">
<title>A1&#45;&gt;A3</title>
<path fill="none" stroke="#000000" stroke-dasharray="5,2" d="M114.8424,-287.1506C132.9882,-290.4173 153.141,-294.0454 171.4815,-297.3471"/>
</g>
<!-- A4 -->
<g id="node5" class="node">
<title>A4</title>
<polygon fill="none" stroke="#000000" points="287.4691,-206 167.8409,-206 167.8409,-162 293.4691,-162 293.4691,-200 287.4691,-206"/>
<polyline fill="none" stroke="#000000" points="287.4691,-206 287.4691,-200 "/>
<polyline fill="none" stroke="#000000" points="293.4691,-200 287.4691,-200 "/>
<text text-anchor="middle" x="230.655" y="-193" font-family="Helvetica,sans-Serif" font-size="10.00" fill="#000000">Can send governance</text>
<text text-anchor="middle" x="230.655" y="-181" font-family="Helvetica,sans-Serif" font-size="10.00" fill="#000000">proposals to the</text>
<text text-anchor="middle" x="230.655" y="-169" font-family="Helvetica,sans-Serif" font-size="10.00" fill="#000000">DAO</text>
</g>
<!-- A1&#45;&gt;A4 -->
<g id="edge3" class="edge">
<title>A1&#45;&gt;A4</title>
<path fill="none" stroke="#000000" stroke-dasharray="5,2" d="M114.9159,-243.7813C131.5405,-234.2572 149.8498,-224.0164 166.918,-215 172.4668,-212.0688 178.3344,-209.0751 184.1735,-206.1603"/>
</g>
<!-- A5 -->
<g id="node6" class="node">
<title>A5</title>
<polygon fill="none" stroke="#000000" points="285.5165,-268 169.7935,-268 169.7935,-224 291.5165,-224 291.5165,-262 285.5165,-268"/>
<polyline fill="none" stroke="#000000" points="285.5165,-268 285.5165,-262 "/>
<polyline fill="none" stroke="#000000" points="291.5165,-262 285.5165,-262 "/>
<text text-anchor="middle" x="230.655" y="-255" font-family="Helvetica,sans-Serif" font-size="10.00" fill="#000000">Can sign and send</text>
<text text-anchor="middle" x="230.655" y="-243" font-family="Helvetica,sans-Serif" font-size="10.00" fill="#000000">tagged commit to the</text>
<text text-anchor="middle" x="230.655" y="-231" font-family="Helvetica,sans-Serif" font-size="10.00" fill="#000000">repository</text>
</g>
<!-- A1&#45;&gt;A5 -->
<g id="edge4" class="edge">
<title>A1&#45;&gt;A5</title>
<path fill="none" stroke="#000000" stroke-dasharray="5,2" d="M114.8424,-266.8494C132.3997,-263.6887 151.8359,-260.1896 169.6914,-256.9751"/>
</g>
<!-- A10 -->
<g id="node11" class="node">
<title>A10</title>
<polygon fill="none" stroke="#000000" points="436.404,-229 344.388,-229 344.388,-193 442.404,-193 442.404,-223 436.404,-229"/>
<polyline fill="none" stroke="#000000" points="436.404,-229 436.404,-223 "/>
<polyline fill="none" stroke="#000000" points="442.404,-223 436.404,-223 "/>
<text text-anchor="middle" x="393.396" y="-214" font-family="Helvetica,sans-Serif" font-size="10.00" fill="#000000">Smart contracts</text>
<text text-anchor="middle" x="393.396" y="-202" font-family="Helvetica,sans-Serif" font-size="10.00" fill="#000000">governance</text>
</g>
<!-- A4&#45;&gt;A10 -->
<g id="edge9" class="edge">
<title>A4&#45;&gt;A10</title>
<path fill="none" stroke="#000000" stroke-dasharray="5,2" d="M293.5749,-194.4389C310.3904,-197.2287 328.3155,-200.2026 344.2683,-202.8493"/>
</g>
<!-- A11 -->
<g id="node12" class="node">
<title>A11</title>
<polygon fill="none" stroke="#000000" points="433.906,-175 346.886,-175 346.886,-139 439.906,-139 439.906,-169 433.906,-175"/>
<polyline fill="none" stroke="#000000" points="433.906,-175 433.906,-169 "/>
<polyline fill="none" stroke="#000000" points="439.906,-169 433.906,-169 "/>
<text text-anchor="middle" x="393.396" y="-160" font-family="Helvetica,sans-Serif" font-size="10.00" fill="#000000">DAO contracts</text>
<text text-anchor="middle" x="393.396" y="-148" font-family="Helvetica,sans-Serif" font-size="10.00" fill="#000000">governance</text>
</g>
<!-- A4&#45;&gt;A11 -->
<g id="edge10" class="edge">
<title>A4&#45;&gt;A11</title>
<path fill="none" stroke="#000000" stroke-dasharray="5,2" d="M293.5749,-173.5611C311.2848,-170.6229 330.2256,-167.4805 346.7967,-164.7312"/>
</g>
<!-- A6 -->
<g id="node7" class="node">
<title>A6</title>
<g transform="translate(58.459,-96)" style="fill:none;stroke:black;stroke-width:1px"><circle cx="0" cy="-20" r="7.5" />
                <line x1="0" y1="-12.5" x2="0" y2="5" />
                <line x1="-15" y1="-5" x2="15" y2="-5" />
                <line x1="0" y1="5" x2="-15" y2="17" />
                <line x1="0" y1="5" x2="15" y2="17" /></g>
<text text-anchor="middle" x="58.459" y="-71" font-family="Helvetica,sans-Serif" font-size="10.00" fill="#000000">Token holder</text>
</g>
<!-- A6&#45;&gt;A4 -->
<g id="edge8" class="edge">
<title>A6&#45;&gt;A4</title>
<path fill="none" stroke="#000000" stroke-dasharray="5,2" d="M116.9495,-128.2453C133.1216,-136.2976 150.6873,-145.0126 166.918,-153 172.7694,-155.8796 178.9299,-158.8955 185.0206,-161.868"/>
</g>
<!-- A7 -->
<g id="node8" class="node">
<title>A7</title>
<polygon fill="none" stroke="#000000" points="287.3982,-144 167.9118,-144 167.9118,-108 293.3982,-108 293.3982,-138 287.3982,-144"/>
<polyline fill="none" stroke="#000000" points="287.3982,-144 287.3982,-138 "/>
<polyline fill="none" stroke="#000000" points="293.3982,-138 287.3982,-138 "/>
<text text-anchor="middle" x="230.655" y="-129" font-family="Helvetica,sans-Serif" font-size="10.00" fill="#000000">Owns tokens required</text>
<text text-anchor="middle" x="230.655" y="-117" font-family="Helvetica,sans-Serif" font-size="10.00" fill="#000000">for voting</text>
</g>
<!-- A6&#45;&gt;A7 -->
<g id="edge5" class="edge">
<title>A6&#45;&gt;A7</title>
<path fill="none" stroke="#000000" stroke-dasharray="5,2" d="M117.2375,-108.2164C133.6056,-110.7828 151.4434,-113.5798 168.024,-116.1796"/>
</g>
<!-- A8 -->
<g id="node9" class="node">
<title>A8</title>
<polygon fill="none" stroke="#000000" points="282.9985,-90 172.3115,-90 172.3115,-54 288.9985,-54 288.9985,-84 282.9985,-90"/>
<polyline fill="none" stroke="#000000" points="282.9985,-90 282.9985,-84 "/>
<polyline fill="none" stroke="#000000" points="288.9985,-84 282.9985,-84 "/>
<text text-anchor="middle" x="230.655" y="-75" font-family="Helvetica,sans-Serif" font-size="10.00" fill="#000000">Can view registered</text>
<text text-anchor="middle" x="230.655" y="-63" font-family="Helvetica,sans-Serif" font-size="10.00" fill="#000000">proposals</text>
</g>
<!-- A6&#45;&gt;A8 -->
<g id="edge6" class="edge">
<title>A6&#45;&gt;A8</title>
<path fill="none" stroke="#000000" stroke-dasharray="5,2" d="M117.2375,-89.7836C135.0671,-86.988 154.6404,-83.9189 172.4333,-81.1291"/>
</g>
<!-- A9 -->
<g id="node10" class="node">
<title>A9</title>
<polygon fill="none" stroke="#000000" points="266.1153,-36 189.1947,-36 189.1947,0 272.1153,0 272.1153,-30 266.1153,-36"/>
<polyline fill="none" stroke="#000000" points="266.1153,-36 266.1153,-30 "/>
<polyline fill="none" stroke="#000000" points="272.1153,-30 266.1153,-30 "/>
<text text-anchor="middle" x="230.655" y="-21" font-family="Helvetica,sans-Serif" font-size="10.00" fill="#000000">Can vote for</text>
<text text-anchor="middle" x="230.655" y="-9" font-family="Helvetica,sans-Serif" font-size="10.00" fill="#000000">proposals</text>
</g>
<!-- A6&#45;&gt;A9 -->
<g id="edge7" class="edge">
<title>A6&#45;&gt;A9</title>
<path fill="none" stroke="#000000" stroke-dasharray="5,2" d="M116.9643,-69.0525C133.0581,-61.0388 150.5807,-52.5189 166.918,-45 174.123,-41.6841 181.8494,-38.2833 189.3494,-35.0618"/>
</g>
<!-- A12 -->
<g id="node13" class="node">
<title>A12</title>
<g transform="translate(58.459,-526)" style="fill:none;stroke:black;stroke-width:1px"><circle cx="0" cy="-20" r="7.5" />
                <line x1="0" y1="-12.5" x2="0" y2="5" />
                <line x1="-15" y1="-5" x2="15" y2="-5" />
                <line x1="0" y1="5" x2="-15" y2="17" />
                <line x1="0" y1="5" x2="15" y2="17" /></g>
<text text-anchor="middle" x="58.459" y="-501" font-family="Helvetica,sans-Serif" font-size="10.00" fill="#000000">CI/CD</text>
</g>
<!-- A13 -->
<g id="node14" class="node">
<title>A13</title>
<polygon fill="none" stroke="#000000" points="283.7188,-628 171.5912,-628 171.5912,-592 289.7188,-592 289.7188,-622 283.7188,-628"/>
<polyline fill="none" stroke="#000000" points="283.7188,-628 283.7188,-622 "/>
<polyline fill="none" stroke="#000000" points="289.7188,-622 283.7188,-622 "/>
<text text-anchor="middle" x="230.655" y="-613" font-family="Helvetica,sans-Serif" font-size="10.00" fill="#000000">Can validate commit</text>
<text text-anchor="middle" x="230.655" y="-601" font-family="Helvetica,sans-Serif" font-size="10.00" fill="#000000">signature</text>
</g>
<!-- A12&#45;&gt;A13 -->
<g id="edge11" class="edge">
<title>A12&#45;&gt;A13</title>
<path fill="none" stroke="#000000" stroke-dasharray="5,2" d="M101.4435,-551.1585C121.2446,-561.17 145.1349,-572.9749 166.918,-583 173.3589,-585.9643 180.2163,-588.9963 186.9563,-591.9074"/>
</g>
<!-- A14 -->
<g id="node15" class="node">
<title>A14</title>
<polygon fill="none" stroke="#000000" points="279.9502,-574 175.3598,-574 175.3598,-538 285.9502,-538 285.9502,-568 279.9502,-574"/>
<polyline fill="none" stroke="#000000" points="279.9502,-574 279.9502,-568 "/>
<polyline fill="none" stroke="#000000" points="285.9502,-568 279.9502,-568 "/>
<text text-anchor="middle" x="230.655" y="-559" font-family="Helvetica,sans-Serif" font-size="10.00" fill="#000000">Compiles the code</text>
<text text-anchor="middle" x="230.655" y="-547" font-family="Helvetica,sans-Serif" font-size="10.00" fill="#000000">and runs tests</text>
</g>
<!-- A12&#45;&gt;A14 -->
<g id="edge12" class="edge">
<title>A12&#45;&gt;A14</title>
<path fill="none" stroke="#000000" stroke-dasharray="5,2" d="M101.4671,-535.7436C123.7811,-539.2424 151.2977,-543.5569 175.1936,-547.3038"/>
</g>
<!-- A15 -->
<g id="node16" class="node">
<title>A15</title>
<polygon fill="none" stroke="#000000" points="276.8415,-520 178.4685,-520 178.4685,-484 282.8415,-484 282.8415,-514 276.8415,-520"/>
<polyline fill="none" stroke="#000000" points="276.8415,-520 276.8415,-514 "/>
<polyline fill="none" stroke="#000000" points="282.8415,-514 276.8415,-514 "/>
<text text-anchor="middle" x="230.655" y="-505" font-family="Helvetica,sans-Serif" font-size="10.00" fill="#000000">Has an ethereum</text>
<text text-anchor="middle" x="230.655" y="-493" font-family="Helvetica,sans-Serif" font-size="10.00" fill="#000000">wallet</text>
</g>
<!-- A12&#45;&gt;A15 -->
<g id="edge13" class="edge">
<title>A12&#45;&gt;A15</title>
<path fill="none" stroke="#000000" stroke-dasharray="5,2" d="M101.4671,-522.2564C124.7772,-518.6014 153.7649,-514.0562 178.3715,-510.198"/>
</g>
<!-- A16 -->
<g id="node17" class="node">
<title>A16</title>
<polygon fill="none" stroke="#000000" points="283.678,-466 171.632,-466 171.632,-410 289.678,-410 289.678,-460 283.678,-466"/>
<polyline fill="none" stroke="#000000" points="283.678,-466 283.678,-460 "/>
<polyline fill="none" stroke="#000000" points="289.678,-460 283.678,-460 "/>
<text text-anchor="middle" x="230.655" y="-453" font-family="Helvetica,sans-Serif" font-size="10.00" fill="#000000">Can build, sign and</text>
<text text-anchor="middle" x="230.655" y="-441" font-family="Helvetica,sans-Serif" font-size="10.00" fill="#000000">send upgrade</text>
<text text-anchor="middle" x="230.655" y="-429" font-family="Helvetica,sans-Serif" font-size="10.00" fill="#000000">proposal transaction</text>
<text text-anchor="middle" x="230.655" y="-417" font-family="Helvetica,sans-Serif" font-size="10.00" fill="#000000">to the DAO</text>
</g>
<!-- A12&#45;&gt;A16 -->
<g id="edge14" class="edge">
<title>A12&#45;&gt;A16</title>
<path fill="none" stroke="#000000" stroke-dasharray="5,2" d="M101.4671,-506.2716C124.4784,-494.1109 153.0225,-479.0262 177.4229,-466.1314"/>
</g>
<!-- A17 -->
<g id="node18" class="node">
<title>A17</title>
<g transform="translate(58.459,-764)" style="fill:none;stroke:black;stroke-width:1px"><circle cx="0" cy="-20" r="7.5" />
                <line x1="0" y1="-12.5" x2="0" y2="5" />
                <line x1="-15" y1="-5" x2="15" y2="-5" />
                <line x1="0" y1="5" x2="-15" y2="17" />
                <line x1="0" y1="5" x2="15" y2="17" /></g>
<text text-anchor="middle" x="58.459" y="-739" font-family="Helvetica,sans-Serif" font-size="10.00" fill="#000000">DAO</text>
</g>
<!-- A18 -->
<g id="node19" class="node">
<title>A18</title>
<polygon fill="none" stroke="#000000" points="280.558,-872 174.752,-872 174.752,-836 286.558,-836 286.558,-866 280.558,-872"/>
<polyline fill="none" stroke="#000000" points="280.558,-872 280.558,-866 "/>
<polyline fill="none" stroke="#000000" points="286.558,-866 280.558,-866 "/>
<text text-anchor="middle" x="230.655" y="-857" font-family="Helvetica,sans-Serif" font-size="10.00" fill="#000000">Can register voting</text>
<text text-anchor="middle" x="230.655" y="-845" font-family="Helvetica,sans-Serif" font-size="10.00" fill="#000000">proposals</text>
</g>
<!-- A17&#45;&gt;A18 -->
<g id="edge15" class="edge">
<title>A17&#45;&gt;A18</title>
<path fill="none" stroke="#000000" stroke-dasharray="5,2" d="M98.6163,-790.5296C118.8386,-802.0397 143.8933,-815.7925 166.918,-827 173.077,-829.998 179.6531,-832.9994 186.1553,-835.8542"/>
</g>
<!-- A19 -->
<g id="node20" class="node">
<title>A19</title>
<polygon fill="none" stroke="#000000" points="288.6299,-818 166.6801,-818 166.6801,-774 294.6299,-774 294.6299,-812 288.6299,-818"/>
<polyline fill="none" stroke="#000000" points="288.6299,-818 288.6299,-812 "/>
<polyline fill="none" stroke="#000000" points="294.6299,-812 288.6299,-812 "/>
<text text-anchor="middle" x="230.655" y="-805" font-family="Helvetica,sans-Serif" font-size="10.00" fill="#000000">Can expose proposals</text>
<text text-anchor="middle" x="230.655" y="-793" font-family="Helvetica,sans-Serif" font-size="10.00" fill="#000000">to the token holder</text>
<text text-anchor="middle" x="230.655" y="-781" font-family="Helvetica,sans-Serif" font-size="10.00" fill="#000000">for viewing</text>
</g>
<!-- A17&#45;&gt;A19 -->
<g id="edge16" class="edge">
<title>A17&#45;&gt;A19</title>
<path fill="none" stroke="#000000" stroke-dasharray="5,2" d="M98.8313,-773.7992C119.0108,-777.1977 143.9112,-781.3912 166.6168,-785.2152"/>
</g>
<!-- A20 -->
<g id="node21" class="node">
<title>A20</title>
<polygon fill="none" stroke="#000000" points="281.2318,-756 174.0782,-756 174.0782,-720 287.2318,-720 287.2318,-750 281.2318,-756"/>
<polyline fill="none" stroke="#000000" points="281.2318,-756 281.2318,-750 "/>
<polyline fill="none" stroke="#000000" points="287.2318,-750 281.2318,-750 "/>
<text text-anchor="middle" x="230.655" y="-741" font-family="Helvetica,sans-Serif" font-size="10.00" fill="#000000">Can process voting</text>
<text text-anchor="middle" x="230.655" y="-729" font-family="Helvetica,sans-Serif" font-size="10.00" fill="#000000">for proposals</text>
</g>
<!-- A17&#45;&gt;A20 -->
<g id="edge17" class="edge">
<title>A17&#45;&gt;A20</title>
<path fill="none" stroke="#000000" stroke-dasharray="5,2" d="M98.8313,-760.2008C121.1977,-756.434 149.3638,-751.6905 173.9128,-747.5561"/>
</g>
<!-- A21 -->
<g id="node22" class="node">
<title>A21</title>
<polygon fill="none" stroke="#000000" points="271.8325,-702 183.4775,-702 183.4775,-646 277.8325,-646 277.8325,-696 271.8325,-702"/>
<polyline fill="none" stroke="#000000" points="271.8325,-702 271.8325,-696 "/>
<polyline fill="none" stroke="#000000" points="277.8325,-696 271.8325,-696 "/>
<text text-anchor="middle" x="230.655" y="-689" font-family="Helvetica,sans-Serif" font-size="10.00" fill="#000000">Can hold and</text>
<text text-anchor="middle" x="230.655" y="-677" font-family="Helvetica,sans-Serif" font-size="10.00" fill="#000000">withdraw token</text>
<text text-anchor="middle" x="230.655" y="-665" font-family="Helvetica,sans-Serif" font-size="10.00" fill="#000000">holders voting</text>
<text text-anchor="middle" x="230.655" y="-653" font-family="Helvetica,sans-Serif" font-size="10.00" fill="#000000">stake</text>
</g>
<!-- A17&#45;&gt;A21 -->
<g id="edge18" class="edge">
<title>A17&#45;&gt;A21</title>
<path fill="none" stroke="#000000" stroke-dasharray="5,2" d="M98.8313,-745.1956C124.0805,-731.559 156.7207,-713.9306 183.2047,-699.6271"/>
</g>
</g>
</svg>
