<?xml version="1.0" encoding="UTF-8" standalone="no"?>
<!DOCTYPE svg PUBLIC "-//W3C//DTD SVG 1.1//EN"
 "http://www.w3.org/Graphics/SVG/1.1/DTD/svg11.dtd">
<!-- Generated by graphviz version 2.40.1 (20161225.0304)
 -->
<!-- Title: G Pages: 1 -->
<svg width="1059pt" height="360pt"
 viewBox="0.00 0.00 1059.32 359.63" xmlns="http://www.w3.org/2000/svg" xmlns:xlink="http://www.w3.org/1999/xlink">
<g id="graph0" class="graph" transform="scale(1 1) rotate(0) translate(4 355.6274)">
<title>G</title>
<polygon fill="#ffffff" stroke="transparent" points="-4,4 -4,-355.6274 1055.3186,-355.6274 1055.3186,4 -4,4"/>
<!-- A0 -->
<g id="node1" class="node">
<title>A0</title>
<polygon fill="#f5f5dc" stroke="#000000" points="105.2033,-68 10.7147,-68 10.7147,-24 111.2033,-24 111.2033,-62 105.2033,-68"/>
<polyline fill="none" stroke="#000000" points="105.2033,-68 105.2033,-62 "/>
<polyline fill="none" stroke="#000000" points="111.2033,-62 105.2033,-62 "/>
<text text-anchor="middle" x="60.959" y="-55" font-family="Helvetica,sans-Serif" font-size="10.00" fill="#000000">Submition of the</text>
<text text-anchor="middle" x="60.959" y="-43" font-family="Helvetica,sans-Serif" font-size="10.00" fill="#000000">governance</text>
<text text-anchor="middle" x="60.959" y="-31" font-family="Helvetica,sans-Serif" font-size="10.00" fill="#000000">proposals</text>
</g>
<!-- A1 -->
<g id="node2" class="node">
<title>A1</title>
<polygon fill="none" stroke="#000000" points="301.7433,-90 209.7273,-90 209.7273,-54 307.7433,-54 307.7433,-84 301.7433,-90"/>
<polyline fill="none" stroke="#000000" points="301.7433,-90 301.7433,-84 "/>
<polyline fill="none" stroke="#000000" points="307.7433,-84 301.7433,-84 "/>
<text text-anchor="middle" x="258.7353" y="-75" font-family="Helvetica,sans-Serif" font-size="10.00" fill="#000000">Smart contracts</text>
<text text-anchor="middle" x="258.7353" y="-63" font-family="Helvetica,sans-Serif" font-size="10.00" fill="#000000">governance</text>
</g>
<!-- A0&#45;&gt;A1 -->
<g id="edge1" class="edge">
<title>A0&#45;&gt;A1</title>
<path fill="none" stroke="#000000" stroke-dasharray="5,2" d="M111.122,-52.5945C141.3341,-56.5662 179.6358,-61.6015 209.6523,-65.5475"/>
</g>
<!-- A2 -->
<g id="node3" class="node">
<title>A2</title>
<polygon fill="none" stroke="#000000" points="299.2453,-36 212.2253,-36 212.2253,0 305.2453,0 305.2453,-30 299.2453,-36"/>
<polyline fill="none" stroke="#000000" points="299.2453,-36 299.2453,-30 "/>
<polyline fill="none" stroke="#000000" points="305.2453,-30 299.2453,-30 "/>
<text text-anchor="middle" x="258.7353" y="-21" font-family="Helvetica,sans-Serif" font-size="10.00" fill="#000000">DAO contracts</text>
<text text-anchor="middle" x="258.7353" y="-9" font-family="Helvetica,sans-Serif" font-size="10.00" fill="#000000">governance</text>
</g>
<!-- A0&#45;&gt;A2 -->
<g id="edge2" class="edge">
<title>A0&#45;&gt;A2</title>
<path fill="none" stroke="#000000" stroke-dasharray="5,2" d="M111.122,-38.8982C142.1352,-34.5076 181.6727,-28.9101 212.0221,-24.6134"/>
</g>
<!-- A3 -->
<g id="node4" class="node">
<title>A3</title>
<g transform="translate(60.959,-210)" style="fill:none;stroke:black;stroke-width:1px"><circle cx="0" cy="-20" r="7.5" />
                <line x1="0" y1="-12.5" x2="0" y2="5" />
                <line x1="-15" y1="-5" x2="15" y2="-5" />
                <line x1="0" y1="5" x2="-15" y2="17" />
                <line x1="0" y1="5" x2="15" y2="17" /></g>
<text text-anchor="middle" x="60.959" y="-185" font-family="Helvetica,sans-Serif" font-size="10.00" fill="#000000">Code owner</text>
</g>
<!-- A4 -->
<g id="node5" class="node">
<title>A4</title>
<ellipse fill="none" stroke="#000000" cx="258.7353" cy="-176" rx="85.635" ry="31.2258"/>
<text text-anchor="middle" x="258.7353" y="-185" font-family="Helvetica,sans-Serif" font-size="10.00" fill="#000000">Sending of the</text>
<text text-anchor="middle" x="258.7353" y="-173" font-family="Helvetica,sans-Serif" font-size="10.00" fill="#000000">governance proposal</text>
<text text-anchor="middle" x="258.7353" y="-161" font-family="Helvetica,sans-Serif" font-size="10.00" fill="#000000">request</text>
</g>
<!-- A3&#45;&gt;A4 -->
<g id="edge3" class="edge">
<title>A3&#45;&gt;A4</title>
<path fill="none" stroke="#000000" d="M117.3691,-202.4468C137.5779,-198.6661 160.709,-194.3388 182.3267,-190.2945"/>
</g>
<!-- A5 -->
<g id="node6" class="node">
<title>A5</title>
<ellipse fill="none" stroke="#000000" cx="533.7409" cy="-221" rx="85.635" ry="31.2258"/>
<text text-anchor="middle" x="533.7409" y="-230" font-family="Helvetica,sans-Serif" font-size="10.00" fill="#000000">Building of the</text>
<text text-anchor="middle" x="533.7409" y="-218" font-family="Helvetica,sans-Serif" font-size="10.00" fill="#000000">governance proposal</text>
<text text-anchor="middle" x="533.7409" y="-206" font-family="Helvetica,sans-Serif" font-size="10.00" fill="#000000">request</text>
</g>
<!-- A4&#45;&gt;A5 -->
<g id="edge4" class="edge">
<title>A4&#45;&gt;A5</title>
<path fill="none" stroke="#000000" stroke-dasharray="5,2" d="M347.3033,-190.4926C382.0187,-196.1732 421.5199,-202.6369 455.1992,-208.148"/>
<polygon fill="#000000" stroke="#000000" points="337.1728,-188.835 347.7683,-186.009 342.1072,-189.6424 347.0416,-190.4499 347.0416,-190.4499 347.0416,-190.4499 342.1072,-189.6424 346.3149,-194.8908 337.1728,-188.835 337.1728,-188.835"/>
<text text-anchor="middle" x="396.2381" y="-205" font-family="Helvetica,sans-Serif" font-size="10.00" fill="#000000">&lt;&lt;extend&gt;&gt;</text>
</g>
<!-- A11 -->
<g id="node12" class="node">
<title>A11</title>
<ellipse fill="none" stroke="#000000" cx="533.7409" cy="-149" rx="67.9797" ry="22.7556"/>
<text text-anchor="middle" x="533.7409" y="-152" font-family="Helvetica,sans-Serif" font-size="10.00" fill="#000000">Viewing of the</text>
<text text-anchor="middle" x="533.7409" y="-140" font-family="Helvetica,sans-Serif" font-size="10.00" fill="#000000">proposal status</text>
</g>
<!-- A4&#45;&gt;A11 -->
<g id="edge10" class="edge">
<title>A4&#45;&gt;A11</title>
<path fill="none" stroke="#000000" stroke-dasharray="5,2" d="M351.7651,-166.8664C390.1104,-163.1016 433.6269,-158.8292 468.4888,-155.4064"/>
<polygon fill="#000000" stroke="#000000" points="341.619,-167.8625 351.1314,-162.4068 346.5951,-167.3739 351.5711,-166.8853 351.5711,-166.8853 351.5711,-166.8853 346.5951,-167.3739 352.0109,-171.3638 341.619,-167.8625 341.619,-167.8625"/>
<text text-anchor="middle" x="396.2381" y="-168" font-family="Helvetica,sans-Serif" font-size="10.00" fill="#000000">&lt;&lt;extend&gt;&gt;</text>
</g>
<!-- A6 -->
<g id="node7" class="node">
<title>A6</title>
<ellipse fill="none" stroke="#000000" cx="806.7864" cy="-329" rx="69.1302" ry="22.7556"/>
<text text-anchor="middle" x="806.7864" y="-332" font-family="Helvetica,sans-Serif" font-size="10.00" fill="#000000">Choosing of the</text>
<text text-anchor="middle" x="806.7864" y="-320" font-family="Helvetica,sans-Serif" font-size="10.00" fill="#000000">proposal target</text>
</g>
<!-- A5&#45;&gt;A6 -->
<g id="edge5" class="edge">
<title>A5&#45;&gt;A6</title>
<path fill="none" stroke="#000000" stroke-dasharray="5,2" d="M600.638,-248.2039C636.7883,-262.821 682.2358,-281.0635 722.9292,-297 735.4074,-301.8868 748.9655,-307.1016 761.4696,-311.8725"/>
<polygon fill="#000000" stroke="#000000" points="591.1794,-244.3763 602.1373,-243.9561 595.8143,-246.2519 600.4492,-248.1275 600.4492,-248.1275 600.4492,-248.1275 595.8143,-246.2519 598.7612,-252.2989 591.1794,-244.3763 591.1794,-244.3763"/>
<text text-anchor="middle" x="671.2437" y="-289" font-family="Helvetica,sans-Serif" font-size="10.00" fill="#000000">&lt;&lt;extend&gt;&gt;</text>
</g>
<!-- A8 -->
<g id="node9" class="node">
<title>A8</title>
<ellipse fill="none" stroke="#000000" cx="806.7864" cy="-257" rx="69.1302" ry="31.2258"/>
<text text-anchor="middle" x="806.7864" y="-266" font-family="Helvetica,sans-Serif" font-size="10.00" fill="#000000">Choosing of the</text>
<text text-anchor="middle" x="806.7864" y="-254" font-family="Helvetica,sans-Serif" font-size="10.00" fill="#000000">proposal target</text>
<text text-anchor="middle" x="806.7864" y="-242" font-family="Helvetica,sans-Serif" font-size="10.00" fill="#000000">function</text>
</g>
<!-- A5&#45;&gt;A8 -->
<g id="edge7" class="edge">
<title>A5&#45;&gt;A8</title>
<path fill="none" stroke="#000000" stroke-dasharray="5,2" d="M624.5304,-232.9702C662.2453,-237.9428 705.2249,-243.6095 739.9715,-248.1907"/>
<polygon fill="#000000" stroke="#000000" points="614.5553,-231.6551 625.0578,-228.5009 619.5124,-232.3087 624.4695,-232.9623 624.4695,-232.9623 624.4695,-232.9623 619.5124,-232.3087 623.8813,-237.4237 614.5553,-231.6551 614.5553,-231.6551"/>
<text text-anchor="middle" x="671.2437" y="-245" font-family="Helvetica,sans-Serif" font-size="10.00" fill="#000000">&lt;&lt;extend&gt;&gt;</text>
</g>
<!-- A9 -->
<g id="node10" class="node">
<title>A9</title>
<ellipse fill="none" stroke="#000000" cx="806.7864" cy="-185" rx="80.909" ry="22.7556"/>
<text text-anchor="middle" x="806.7864" y="-188" font-family="Helvetica,sans-Serif" font-size="10.00" fill="#000000">Defining of the</text>
<text text-anchor="middle" x="806.7864" y="-176" font-family="Helvetica,sans-Serif" font-size="10.00" fill="#000000">proposal meta&#45;data</text>
</g>
<!-- A5&#45;&gt;A9 -->
<g id="edge8" class="edge">
<title>A5&#45;&gt;A9</title>
<path fill="none" stroke="#000000" stroke-dasharray="5,2" d="M624.8831,-208.9833C660.2466,-204.3207 700.1938,-199.0538 733.6265,-194.6459"/>
<polygon fill="#000000" stroke="#000000" points="614.5553,-210.3449 623.8813,-204.5763 619.5124,-209.6913 624.4695,-209.0377 624.4695,-209.0377 624.4695,-209.0377 619.5124,-209.6913 625.0578,-213.4991 614.5553,-210.3449 614.5553,-210.3449"/>
<text text-anchor="middle" x="671.2437" y="-209" font-family="Helvetica,sans-Serif" font-size="10.00" fill="#000000">&lt;&lt;extend&gt;&gt;</text>
</g>
<!-- A10 -->
<g id="node11" class="node">
<title>A10</title>
<ellipse fill="none" stroke="#000000" cx="806.7864" cy="-113" rx="83.7147" ry="31.2258"/>
<text text-anchor="middle" x="806.7864" y="-122" font-family="Helvetica,sans-Serif" font-size="10.00" fill="#000000">Signing and sending</text>
<text text-anchor="middle" x="806.7864" y="-110" font-family="Helvetica,sans-Serif" font-size="10.00" fill="#000000">of the proposal</text>
<text text-anchor="middle" x="806.7864" y="-98" font-family="Helvetica,sans-Serif" font-size="10.00" fill="#000000">request</text>
</g>
<!-- A5&#45;&gt;A10 -->
<g id="edge9" class="edge">
<title>A5&#45;&gt;A10</title>
<path fill="none" stroke="#000000" stroke-dasharray="5,2" d="M601.4469,-194.2197C646.8335,-176.2675 705.9604,-152.8806 749.1047,-135.8153"/>
<polygon fill="#000000" stroke="#000000" points="591.9811,-197.9638 599.625,-190.101 596.6306,-196.1247 601.2801,-194.2856 601.2801,-194.2856 601.2801,-194.2856 596.6306,-196.1247 602.9353,-198.4701 591.9811,-197.9638 591.9811,-197.9638"/>
<text text-anchor="middle" x="671.2437" y="-180" font-family="Helvetica,sans-Serif" font-size="10.00" fill="#000000">&lt;&lt;extend&gt;&gt;</text>
</g>
<!-- A7 -->
<g id="node8" class="node">
<title>A7</title>
<polygon fill="none" stroke="#000000" points="1045.1566,-347 941.8057,-347 941.8057,-311 1051.1566,-311 1051.1566,-341 1045.1566,-347"/>
<polyline fill="none" stroke="#000000" points="1045.1566,-347 1045.1566,-341 "/>
<polyline fill="none" stroke="#000000" points="1051.1566,-341 1045.1566,-341 "/>
<text text-anchor="middle" x="996.4811" y="-332" font-family="Helvetica,sans-Serif" font-size="10.00" fill="#000000">Smart contracts or</text>
<text text-anchor="middle" x="996.4811" y="-320" font-family="Helvetica,sans-Serif" font-size="10.00" fill="#000000">DAO</text>
</g>
<!-- A6&#45;&gt;A7 -->
<g id="edge6" class="edge">
<title>A6&#45;&gt;A7</title>
<path fill="none" stroke="#000000" stroke-dasharray="5,2" d="M876.3446,-329C897.9155,-329 921.3691,-329 941.7806,-329"/>
</g>
<!-- A12 -->
<g id="node13" class="node">
<title>A12</title>
<g transform="translate(60.959,-120)" style="fill:none;stroke:black;stroke-width:1px"><circle cx="0" cy="-20" r="7.5" />
                <line x1="0" y1="-12.5" x2="0" y2="5" />
                <line x1="-15" y1="-5" x2="15" y2="-5" />
                <line x1="0" y1="5" x2="-15" y2="17" />
                <line x1="0" y1="5" x2="15" y2="17" /></g>
<text text-anchor="middle" x="60.959" y="-95" font-family="Helvetica,sans-Serif" font-size="10.00" fill="#000000">Token holders</text>
</g>
<!-- A12&#45;&gt;A4 -->
<g id="edge11" class="edge">
<title>A12&#45;&gt;A4</title>
<path fill="none" stroke="#000000" d="M121.9122,-139.3342C143.3635,-145.0827 167.6219,-151.5835 189.6918,-157.4978"/>
</g>
</g>
</svg>
