<?xml version="1.0" encoding="UTF-8" standalone="no"?>
<!DOCTYPE svg PUBLIC "-//W3C//DTD SVG 1.1//EN"
 "http://www.w3.org/Graphics/SVG/1.1/DTD/svg11.dtd">
<!-- Generated by graphviz version 2.40.1 (20161225.0304)
 -->
<!-- Title: G Pages: 1 -->
<svg width="994pt" height="248pt"
 viewBox="0.00 0.00 994.06 247.63" xmlns="http://www.w3.org/2000/svg" xmlns:xlink="http://www.w3.org/1999/xlink">
<g id="graph0" class="graph" transform="scale(1 1) rotate(0) translate(4 243.6274)">
<title>G</title>
<polygon fill="#ffffff" stroke="transparent" points="-4,4 -4,-243.6274 990.0558,-243.6274 990.0558,4 -4,4"/>
<!-- A0 -->
<g id="node1" class="node">
<title>A0</title>
<polygon fill="#f5f5dc" stroke="#000000" points="106.7,-90 -.234,-90 -.234,-54 112.7,-54 112.7,-84 106.7,-90"/>
<polyline fill="none" stroke="#000000" points="106.7,-90 106.7,-84 "/>
<polyline fill="none" stroke="#000000" points="112.7,-84 106.7,-84 "/>
<text text-anchor="middle" x="56.233" y="-69" font-family="Helvetica,sans-Serif" font-size="10.00" fill="#000000">Types of proposals</text>
</g>
<!-- A1 -->
<g id="node2" class="node">
<title>A1</title>
<polygon fill="none" stroke="#000000" points="274.871,-144 175.2607,-144 175.2607,-108 280.871,-108 280.871,-138 274.871,-144"/>
<polyline fill="none" stroke="#000000" points="274.871,-144 274.871,-138 "/>
<polyline fill="none" stroke="#000000" points="280.871,-138 274.871,-138 "/>
<text text-anchor="middle" x="228.0659" y="-129" font-family="Helvetica,sans-Serif" font-size="10.00" fill="#000000">Smart contracts</text>
<text text-anchor="middle" x="228.0659" y="-117" font-family="Helvetica,sans-Serif" font-size="10.00" fill="#000000">upgrade proposal</text>
</g>
<!-- A0&#45;&gt;A1 -->
<g id="edge1" class="edge">
<title>A0&#45;&gt;A1</title>
<path fill="none" stroke="#000000" stroke-dasharray="5,2" d="M112.4975,-89.6816C132.6604,-96.018 155.3068,-103.1348 175.1742,-109.3783"/>
</g>
<!-- A2 -->
<g id="node3" class="node">
<title>A2</title>
<polygon fill="none" stroke="#000000" points="282.9304,-90 167.2013,-90 167.2013,-54 288.9304,-54 288.9304,-84 282.9304,-90"/>
<polyline fill="none" stroke="#000000" points="282.9304,-90 282.9304,-84 "/>
<polyline fill="none" stroke="#000000" points="288.9304,-84 282.9304,-84 "/>
<text text-anchor="middle" x="228.0659" y="-75" font-family="Helvetica,sans-Serif" font-size="10.00" fill="#000000">Smart contracts</text>
<text text-anchor="middle" x="228.0659" y="-63" font-family="Helvetica,sans-Serif" font-size="10.00" fill="#000000">governance proposal</text>
</g>
<!-- A0&#45;&gt;A2 -->
<g id="edge2" class="edge">
<title>A0&#45;&gt;A2</title>
<path fill="none" stroke="#000000" stroke-dasharray="5,2" d="M112.4975,-72C130.0177,-72 149.413,-72 167.2309,-72"/>
</g>
<!-- A3 -->
<g id="node4" class="node">
<title>A3</title>
<polygon fill="none" stroke="#000000" points="274.871,-36 175.2607,-36 175.2607,0 280.871,0 280.871,-30 274.871,-36"/>
<polyline fill="none" stroke="#000000" points="274.871,-36 274.871,-30 "/>
<polyline fill="none" stroke="#000000" points="280.871,-30 274.871,-30 "/>
<text text-anchor="middle" x="228.0659" y="-21" font-family="Helvetica,sans-Serif" font-size="10.00" fill="#000000">DAO contracts</text>
<text text-anchor="middle" x="228.0659" y="-9" font-family="Helvetica,sans-Serif" font-size="10.00" fill="#000000">upgrade proposal</text>
</g>
<!-- A0&#45;&gt;A3 -->
<g id="edge3" class="edge">
<title>A0&#45;&gt;A3</title>
<path fill="none" stroke="#000000" stroke-dasharray="5,2" d="M112.4975,-54.3184C132.6604,-47.982 155.3068,-40.8652 175.1742,-34.6217"/>
</g>
<!-- A4 -->
<g id="node5" class="node">
<title>A4</title>
<g transform="translate(56.233,-182)" style="fill:none;stroke:black;stroke-width:1px"><circle cx="0" cy="-20" r="7.5" />
                <line x1="0" y1="-12.5" x2="0" y2="5" />
                <line x1="-15" y1="-5" x2="15" y2="-5" />
                <line x1="0" y1="5" x2="-15" y2="17" />
                <line x1="0" y1="5" x2="15" y2="17" /></g>
<text text-anchor="middle" x="56.233" y="-157" font-family="Helvetica,sans-Serif" font-size="10.00" fill="#000000">DAO</text>
</g>
<!-- A5 -->
<g id="node6" class="node">
<title>A5</title>
<ellipse fill="none" stroke="#000000" cx="228.0659" cy="-185" rx="64.6999" ry="22.7556"/>
<text text-anchor="middle" x="228.0659" y="-188" font-family="Helvetica,sans-Serif" font-size="10.00" fill="#000000">Acceptation of</text>
<text text-anchor="middle" x="228.0659" y="-176" font-family="Helvetica,sans-Serif" font-size="10.00" fill="#000000">proposals</text>
</g>
<!-- A4&#45;&gt;A5 -->
<g id="edge4" class="edge">
<title>A4&#45;&gt;A5</title>
<path fill="none" stroke="#000000" d="M96.5202,-185C116.3595,-185 140.7716,-185 163.1568,-185"/>
</g>
<!-- A6 -->
<g id="node7" class="node">
<title>A6</title>
<ellipse fill="none" stroke="#000000" cx="477.1291" cy="-185" rx="81.1849" ry="22.7556"/>
<text text-anchor="middle" x="477.1291" y="-188" font-family="Helvetica,sans-Serif" font-size="10.00" fill="#000000">Validating incoming</text>
<text text-anchor="middle" x="477.1291" y="-176" font-family="Helvetica,sans-Serif" font-size="10.00" fill="#000000">proposal</text>
</g>
<!-- A5&#45;&gt;A6 -->
<g id="edge5" class="edge">
<title>A5&#45;&gt;A6</title>
<path fill="none" stroke="#000000" stroke-dasharray="5,2" d="M303.0046,-185C332.2535,-185 365.8651,-185 395.7085,-185"/>
<polygon fill="#000000" stroke="#000000" points="292.8541,-185 302.8542,-180.5001 297.8541,-185 302.8541,-185.0001 302.8541,-185.0001 302.8541,-185.0001 297.8541,-185 302.8541,-189.5001 292.8541,-185 292.8541,-185"/>
<text text-anchor="middle" x="344.3512" y="-188" font-family="Helvetica,sans-Serif" font-size="10.00" fill="#000000">&lt;&lt;extend&gt;&gt;</text>
</g>
<!-- A7 -->
<g id="node8" class="node">
<title>A7</title>
<ellipse fill="none" stroke="#000000" cx="745.4427" cy="-217" rx="79.2535" ry="22.7556"/>
<text text-anchor="middle" x="745.4427" y="-220" font-family="Helvetica,sans-Serif" font-size="10.00" fill="#000000">Sender whitelisting</text>
<text text-anchor="middle" x="745.4427" y="-208" font-family="Helvetica,sans-Serif" font-size="10.00" fill="#000000">status verification</text>
</g>
<!-- A6&#45;&gt;A7 -->
<g id="edge6" class="edge">
<title>A6&#45;&gt;A7</title>
<path fill="none" stroke="#000000" stroke-dasharray="5,2" d="M562.1604,-195.1411C597.4696,-199.3522 638.0463,-204.1915 672.0306,-208.2446"/>
<polygon fill="#000000" stroke="#000000" points="551.8694,-193.9138 562.332,-190.6298 556.8342,-194.5059 561.7991,-195.0981 561.7991,-195.0981 561.7991,-195.0981 556.8342,-194.5059 561.2661,-199.5664 551.8694,-193.9138 551.8694,-193.9138"/>
<text text-anchor="middle" x="609.9071" y="-206" font-family="Helvetica,sans-Serif" font-size="10.00" fill="#000000">&lt;&lt;extend&gt;&gt;</text>
</g>
<!-- A8 -->
<g id="node9" class="node">
<title>A8</title>
<ellipse fill="none" stroke="#000000" cx="745.4427" cy="-154" rx="83.7005" ry="22.7556"/>
<text text-anchor="middle" x="745.4427" y="-157" font-family="Helvetica,sans-Serif" font-size="10.00" fill="#000000">Applying of proposal</text>
<text text-anchor="middle" x="745.4427" y="-145" font-family="Helvetica,sans-Serif" font-size="10.00" fill="#000000">registration rules</text>
</g>
<!-- A6&#45;&gt;A8 -->
<g id="edge7" class="edge">
<title>A6&#45;&gt;A8</title>
<path fill="none" stroke="#000000" stroke-dasharray="5,2" d="M562.5624,-175.1293C596.3999,-171.2199 635.0229,-166.7575 668.0287,-162.9441"/>
<polygon fill="#000000" stroke="#000000" points="552.2262,-176.3236 561.6436,-170.7055 557.1932,-175.7496 562.1601,-175.1757 562.1601,-175.1757 562.1601,-175.1757 557.1932,-175.7496 562.6766,-179.646 552.2262,-176.3236 552.2262,-176.3236"/>
<text text-anchor="middle" x="609.9071" y="-176" font-family="Helvetica,sans-Serif" font-size="10.00" fill="#000000">&lt;&lt;extend&gt;&gt;</text>
</g>
<!-- A9 -->
<g id="node10" class="node">
<title>A9</title>
<polygon fill="none" stroke="#000000" points="979.9376,-172 880.4111,-172 880.4111,-136 985.9376,-136 985.9376,-166 979.9376,-172"/>
<polyline fill="none" stroke="#000000" points="979.9376,-172 979.9376,-166 "/>
<polyline fill="none" stroke="#000000" points="985.9376,-166 979.9376,-166 "/>
<text text-anchor="middle" x="933.1743" y="-157" font-family="Helvetica,sans-Serif" font-size="10.00" fill="#000000">time terms, limits,</text>
<text text-anchor="middle" x="933.1743" y="-145" font-family="Helvetica,sans-Serif" font-size="10.00" fill="#000000">etc</text>
</g>
<!-- A8&#45;&gt;A9 -->
<g id="edge8" class="edge">
<title>A8&#45;&gt;A9</title>
<path fill="none" stroke="#000000" stroke-dasharray="5,2" d="M829.4249,-154C846.7047,-154 864.4363,-154 880.2422,-154"/>
</g>
</g>
</svg>
