<?xml version="1.0" encoding="UTF-8" standalone="no"?>
<!DOCTYPE svg PUBLIC "-//W3C//DTD SVG 1.1//EN"
 "http://www.w3.org/Graphics/SVG/1.1/DTD/svg11.dtd">
<!-- Generated by graphviz version 2.40.1 (20161225.0304)
 -->
<!-- Title: G Pages: 1 -->
<svg width="605pt" height="419pt"
 viewBox="0.00 0.00 605.48 418.63" xmlns="http://www.w3.org/2000/svg" xmlns:xlink="http://www.w3.org/1999/xlink">
<g id="graph0" class="graph" transform="scale(1 1) rotate(0) translate(4 414.6274)">
<title>G</title>
<polygon fill="#ffffff" stroke="transparent" points="-4,4 -4,-414.6274 601.4775,-414.6274 601.4775,4 -4,4"/>
<!-- A0 -->
<g id="node1" class="node">
<title>A0</title>
<polygon fill="#f5f5dc" stroke="#000000" points="103.0397,-36 3.4293,-36 3.4293,0 109.0397,0 109.0397,-30 103.0397,-36"/>
<polyline fill="none" stroke="#000000" points="103.0397,-36 103.0397,-30 "/>
<polyline fill="none" stroke="#000000" points="109.0397,-30 103.0397,-30 "/>
<text text-anchor="middle" x="56.2345" y="-21" font-family="Helvetica,sans-Serif" font-size="10.00" fill="#000000">Submition of the</text>
<text text-anchor="middle" x="56.2345" y="-9" font-family="Helvetica,sans-Serif" font-size="10.00" fill="#000000">upgrade proposal</text>
</g>
<!-- A1 -->
<g id="node2" class="node">
<title>A1</title>
<g transform="translate(56.2345,-87)" style="fill:none;stroke:black;stroke-width:1px"><circle cx="0" cy="-20" r="7.5" />
                <line x1="0" y1="-12.5" x2="0" y2="5" />
                <line x1="-15" y1="-5" x2="15" y2="-5" />
                <line x1="0" y1="5" x2="-15" y2="17" />
                <line x1="0" y1="5" x2="15" y2="17" /></g>
<text text-anchor="middle" x="56.2345" y="-62" font-family="Helvetica,sans-Serif" font-size="10.00" fill="#000000">Code owner</text>
</g>
<!-- A2 -->
<g id="node3" class="node">
<title>A2</title>
<ellipse fill="none" stroke="#000000" cx="252.4167" cy="-90" rx="88.8954" ry="31.2258"/>
<text text-anchor="middle" x="252.4167" y="-99" font-family="Helvetica,sans-Serif" font-size="10.00" fill="#000000">Creation of tagged</text>
<text text-anchor="middle" x="252.4167" y="-87" font-family="Helvetica,sans-Serif" font-size="10.00" fill="#000000">commit with upgraded</text>
<text text-anchor="middle" x="252.4167" y="-75" font-family="Helvetica,sans-Serif" font-size="10.00" fill="#000000">contracts code</text>
</g>
<!-- A1&#45;&gt;A2 -->
<g id="edge1" class="edge">
<title>A1&#45;&gt;A2</title>
<path fill="none" stroke="#000000" d="M112.7153,-90C128.5627,-90 146.1887,-90 163.4358,-90"/>
</g>
<!-- A3 -->
<g id="node4" class="node">
<title>A3</title>
<ellipse fill="none" stroke="#000000" cx="521.1064" cy="-90" rx="58.0246" ry="18"/>
<text text-anchor="middle" x="521.1064" y="-87" font-family="Helvetica,sans-Serif" font-size="10.00" fill="#000000">Commit signing</text>
</g>
<!-- A2&#45;&gt;A3 -->
<g id="edge2" class="edge">
<title>A2&#45;&gt;A3</title>
<path fill="none" stroke="#000000" stroke-dasharray="5,2" d="M351.9152,-90C389.1937,-90 430.3174,-90 462.6864,-90"/>
<polygon fill="#000000" stroke="#000000" points="341.5133,-90 351.5133,-85.5001 346.5133,-90 351.5133,-90.0001 351.5133,-90.0001 351.5133,-90.0001 346.5133,-90 351.5132,-94.5001 341.5133,-90 341.5133,-90"/>
<text text-anchor="middle" x="393.0498" y="-93" font-family="Helvetica,sans-Serif" font-size="10.00" fill="#000000">&lt;&lt;extend&gt;&gt;</text>
</g>
<!-- A4 -->
<g id="node5" class="node">
<title>A4</title>
<g transform="translate(56.2345,-213)" style="fill:none;stroke:black;stroke-width:1px"><circle cx="0" cy="-20" r="7.5" />
                <line x1="0" y1="-12.5" x2="0" y2="5" />
                <line x1="-15" y1="-5" x2="15" y2="-5" />
                <line x1="0" y1="5" x2="-15" y2="17" />
                <line x1="0" y1="5" x2="15" y2="17" /></g>
<text text-anchor="middle" x="56.2345" y="-188" font-family="Helvetica,sans-Serif" font-size="10.00" fill="#000000">CI/CD</text>
</g>
<!-- A5 -->
<g id="node6" class="node">
<title>A5</title>
<ellipse fill="none" stroke="#000000" cx="252.4167" cy="-307" rx="64.7205" ry="18"/>
<text text-anchor="middle" x="252.4167" y="-304" font-family="Helvetica,sans-Serif" font-size="10.00" fill="#000000">Commit validation</text>
</g>
<!-- A4&#45;&gt;A5 -->
<g id="edge3" class="edge">
<title>A4&#45;&gt;A5</title>
<path fill="none" stroke="#000000" d="M99.2875,-235.9703C135.2681,-252.6601 185.8563,-276.1257 218.8825,-291.445"/>
</g>
<!-- A9 -->
<g id="node10" class="node">
<title>A9</title>
<ellipse fill="none" stroke="#000000" cx="252.4167" cy="-216" rx="64.6956" ry="22.7556"/>
<text text-anchor="middle" x="252.4167" y="-219" font-family="Helvetica,sans-Serif" font-size="10.00" fill="#000000">Building of the</text>
<text text-anchor="middle" x="252.4167" y="-207" font-family="Helvetica,sans-Serif" font-size="10.00" fill="#000000">proposal</text>
</g>
<!-- A4&#45;&gt;A9 -->
<g id="edge7" class="edge">
<title>A4&#45;&gt;A9</title>
<path fill="none" stroke="#000000" d="M99.2875,-216C125.1168,-216 158.474,-216 187.458,-216"/>
</g>
<!-- A12 -->
<g id="node13" class="node">
<title>A12</title>
<ellipse fill="none" stroke="#000000" cx="252.4167" cy="-157" rx="69.7617" ry="18"/>
<text text-anchor="middle" x="252.4167" y="-154" font-family="Helvetica,sans-Serif" font-size="10.00" fill="#000000">Proposal submitting</text>
</g>
<!-- A4&#45;&gt;A12 -->
<g id="edge10" class="edge">
<title>A4&#45;&gt;A12</title>
<path fill="none" stroke="#000000" d="M99.2875,-203.0522C131.0948,-193.4864 174.3176,-180.4876 206.732,-170.7392"/>
</g>
<!-- A6 -->
<g id="node7" class="node">
<title>A6</title>
<ellipse fill="none" stroke="#000000" cx="521.1064" cy="-388" rx="75.3809" ry="22.7556"/>
<text text-anchor="middle" x="521.1064" y="-391" font-family="Helvetica,sans-Serif" font-size="10.00" fill="#000000">Commit signature</text>
<text text-anchor="middle" x="521.1064" y="-379" font-family="Helvetica,sans-Serif" font-size="10.00" fill="#000000">validation</text>
</g>
<!-- A5&#45;&gt;A6 -->
<g id="edge4" class="edge">
<title>A5&#45;&gt;A6</title>
<path fill="none" stroke="#000000" stroke-dasharray="5,2" d="M306.1736,-323.2057C353.1322,-337.362 420.9271,-357.7997 467.7629,-371.9189"/>
<polygon fill="#000000" stroke="#000000" points="296.4844,-320.2848 307.3577,-318.8627 301.2716,-321.728 306.0588,-323.1712 306.0588,-323.1712 306.0588,-323.1712 301.2716,-321.728 304.76,-327.4797 296.4844,-320.2848 296.4844,-320.2848"/>
<text text-anchor="middle" x="393.0498" y="-360" font-family="Helvetica,sans-Serif" font-size="10.00" fill="#000000">&lt;&lt;extend&gt;&gt;</text>
</g>
<!-- A7 -->
<g id="node8" class="node">
<title>A7</title>
<ellipse fill="none" stroke="#000000" cx="521.1064" cy="-329" rx="48.6619" ry="18"/>
<text text-anchor="middle" x="521.1064" y="-326" font-family="Helvetica,sans-Serif" font-size="10.00" fill="#000000">Code linting</text>
</g>
<!-- A5&#45;&gt;A7 -->
<g id="edge5" class="edge">
<title>A5&#45;&gt;A7</title>
<path fill="none" stroke="#000000" stroke-dasharray="5,2" d="M324.8894,-312.934C372.0319,-316.794 432.1793,-321.7188 473.3797,-325.0922"/>
<polygon fill="#000000" stroke="#000000" points="314.7348,-312.1025 325.0688,-308.4337 319.7182,-312.5106 324.7015,-312.9187 324.7015,-312.9187 324.7015,-312.9187 319.7182,-312.5106 324.3342,-317.4037 314.7348,-312.1025 314.7348,-312.1025"/>
<text text-anchor="middle" x="393.0498" y="-323" font-family="Helvetica,sans-Serif" font-size="10.00" fill="#000000">&lt;&lt;extend&gt;&gt;</text>
</g>
<!-- A8 -->
<g id="node9" class="node">
<title>A8</title>
<ellipse fill="none" stroke="#000000" cx="521.1064" cy="-275" rx="50.6801" ry="18"/>
<text text-anchor="middle" x="521.1064" y="-272" font-family="Helvetica,sans-Serif" font-size="10.00" fill="#000000">Code testing</text>
</g>
<!-- A5&#45;&gt;A8 -->
<g id="edge6" class="edge">
<title>A5&#45;&gt;A8</title>
<path fill="none" stroke="#000000" stroke-dasharray="5,2" d="M322.2244,-298.6862C369.5437,-293.0506 430.8739,-285.7464 472.8422,-280.7481"/>
<polygon fill="#000000" stroke="#000000" points="312.0476,-299.8982 321.4452,-294.247 317.0125,-299.3068 321.9775,-298.7155 321.9775,-298.7155 321.9775,-298.7155 317.0125,-299.3068 322.5097,-303.1839 312.0476,-299.8982 312.0476,-299.8982"/>
<text text-anchor="middle" x="393.0498" y="-295" font-family="Helvetica,sans-Serif" font-size="10.00" fill="#000000">&lt;&lt;extend&gt;&gt;</text>
</g>
<!-- A10 -->
<g id="node11" class="node">
<title>A10</title>
<ellipse fill="none" stroke="#000000" cx="521.1064" cy="-216" rx="76.2424" ry="22.7556"/>
<text text-anchor="middle" x="521.1064" y="-219" font-family="Helvetica,sans-Serif" font-size="10.00" fill="#000000">Fetching of the</text>
<text text-anchor="middle" x="521.1064" y="-207" font-family="Helvetica,sans-Serif" font-size="10.00" fill="#000000">commit meta&#45;data</text>
</g>
<!-- A9&#45;&gt;A10 -->
<g id="edge8" class="edge">
<title>A9&#45;&gt;A10</title>
<path fill="none" stroke="#000000" stroke-dasharray="5,2" d="M327.2247,-216C363.7997,-216 407.7549,-216 444.5594,-216"/>
<polygon fill="#000000" stroke="#000000" points="317.1165,-216 327.1165,-211.5001 322.1165,-216 327.1165,-216.0001 327.1165,-216.0001 327.1165,-216.0001 322.1165,-216 327.1164,-220.5001 317.1165,-216 317.1165,-216"/>
<text text-anchor="middle" x="393.0498" y="-219" font-family="Helvetica,sans-Serif" font-size="10.00" fill="#000000">&lt;&lt;extend&gt;&gt;</text>
</g>
<!-- A11 -->
<g id="node12" class="node">
<title>A11</title>
<ellipse fill="none" stroke="#000000" cx="521.1064" cy="-157" rx="61.0606" ry="18"/>
<text text-anchor="middle" x="521.1064" y="-154" font-family="Helvetica,sans-Serif" font-size="10.00" fill="#000000">Proposal signing</text>
</g>
<!-- A9&#45;&gt;A11 -->
<g id="edge9" class="edge">
<title>A9&#45;&gt;A11</title>
<path fill="none" stroke="#000000" stroke-dasharray="5,2" d="M317.3106,-201.7503C364.7691,-191.3292 428.1766,-177.4059 471.5873,-167.8736"/>
<polygon fill="#000000" stroke="#000000" points="307.4384,-203.9181 316.2405,-197.378 312.3221,-202.8457 317.2057,-201.7733 317.2057,-201.7733 317.2057,-201.7733 312.3221,-202.8457 318.1709,-206.1686 307.4384,-203.9181 307.4384,-203.9181"/>
<text text-anchor="middle" x="393.0498" y="-193" font-family="Helvetica,sans-Serif" font-size="10.00" fill="#000000">&lt;&lt;extend&gt;&gt;</text>
</g>
</g>
</svg>
