<?xml version="1.0" encoding="UTF-8" standalone="no"?>
<!DOCTYPE svg PUBLIC "-//W3C//DTD SVG 1.1//EN"
 "http://www.w3.org/Graphics/SVG/1.1/DTD/svg11.dtd">
<!-- Generated by graphviz version 2.40.1 (20161225.0304)
 -->
<!-- Title: G Pages: 1 -->
<svg width="790pt" height="913pt"
 viewBox="0.00 0.00 790.16 912.63" xmlns="http://www.w3.org/2000/svg" xmlns:xlink="http://www.w3.org/1999/xlink">
<g id="graph0" class="graph" transform="scale(1 1) rotate(0) translate(4 908.6274)">
<title>G</title>
<polygon fill="#ffffff" stroke="transparent" points="-4,4 -4,-908.6274 786.16,-908.6274 786.16,4 -4,4"/>
<!-- A0 -->
<g id="node1" class="node">
<title>A0</title>
<polygon fill="#f5f5dc" stroke="#000000" points="113.982,-184 1.936,-184 1.936,-140 119.982,-140 119.982,-178 113.982,-184"/>
<polyline fill="none" stroke="#000000" points="113.982,-184 113.982,-178 "/>
<polyline fill="none" stroke="#000000" points="119.982,-178 113.982,-178 "/>
<text text-anchor="middle" x="60.959" y="-171" font-family="Helvetica,sans-Serif" font-size="10.00" fill="#000000">Voting process and</text>
<text text-anchor="middle" x="60.959" y="-159" font-family="Helvetica,sans-Serif" font-size="10.00" fill="#000000">proposal transaction</text>
<text text-anchor="middle" x="60.959" y="-147" font-family="Helvetica,sans-Serif" font-size="10.00" fill="#000000">execution</text>
</g>
<!-- A1 -->
<g id="node2" class="node">
<title>A1</title>
<g transform="translate(60.959,-235)" style="fill:none;stroke:black;stroke-width:1px"><circle cx="0" cy="-20" r="7.5" />
                <line x1="0" y1="-12.5" x2="0" y2="5" />
                <line x1="-15" y1="-5" x2="15" y2="-5" />
                <line x1="0" y1="5" x2="-15" y2="17" />
                <line x1="0" y1="5" x2="15" y2="17" /></g>
<text text-anchor="middle" x="60.959" y="-210" font-family="Helvetica,sans-Serif" font-size="10.00" fill="#000000">DAO</text>
</g>
<!-- A2 -->
<g id="node3" class="node">
<title>A2</title>
<ellipse fill="none" stroke="#000000" cx="259.1242" cy="-549" rx="86.4129" ry="22.7556"/>
<text text-anchor="middle" x="259.1242" y="-552" font-family="Helvetica,sans-Serif" font-size="10.00" fill="#000000">Expose proposals for</text>
<text text-anchor="middle" x="259.1242" y="-540" font-family="Helvetica,sans-Serif" font-size="10.00" fill="#000000">token holders</text>
</g>
<!-- A1&#45;&gt;A2 -->
<g id="edge1" class="edge">
<title>A1&#45;&gt;A2</title>
<path fill="none" stroke="#000000" d="M78.3491,-274.1246C98.9549,-315.7908 135.2657,-385.7727 172.918,-442 193.6244,-472.9216 221.1065,-505.8906 239.4174,-526.9294"/>
</g>
<!-- A4 -->
<g id="node5" class="node">
<title>A4</title>
<ellipse fill="none" stroke="#000000" cx="259.1242" cy="-410" rx="76.2593" ry="22.7556"/>
<text text-anchor="middle" x="259.1242" y="-413" font-family="Helvetica,sans-Serif" font-size="10.00" fill="#000000">Accept votes from</text>
<text text-anchor="middle" x="259.1242" y="-401" font-family="Helvetica,sans-Serif" font-size="10.00" fill="#000000">token owners</text>
</g>
<!-- A1&#45;&gt;A4 -->
<g id="edge3" class="edge">
<title>A1&#45;&gt;A4</title>
<path fill="none" stroke="#000000" d="M101.5389,-273.2218C141.3973,-307.8174 200.9341,-359.4931 234.2521,-388.412"/>
</g>
<!-- A10 -->
<g id="node11" class="node">
<title>A10</title>
<ellipse fill="none" stroke="#000000" cx="259.1242" cy="-286" rx="79.558" ry="22.7556"/>
<text text-anchor="middle" x="259.1242" y="-289" font-family="Helvetica,sans-Serif" font-size="10.00" fill="#000000">Validation of voting</text>
<text text-anchor="middle" x="259.1242" y="-277" font-family="Helvetica,sans-Serif" font-size="10.00" fill="#000000">results</text>
</g>
<!-- A1&#45;&gt;A10 -->
<g id="edge9" class="edge">
<title>A1&#45;&gt;A10</title>
<path fill="none" stroke="#000000" d="M101.5389,-247.8293C129.3945,-254.5766 166.8612,-263.6519 198.2729,-271.2605"/>
</g>
<!-- A14 -->
<g id="node15" class="node">
<title>A14</title>
<ellipse fill="none" stroke="#000000" cx="259.1242" cy="-214" rx="64.4113" ry="31.2258"/>
<text text-anchor="middle" x="259.1242" y="-223" font-family="Helvetica,sans-Serif" font-size="10.00" fill="#000000">Expose voting</text>
<text text-anchor="middle" x="259.1242" y="-211" font-family="Helvetica,sans-Serif" font-size="10.00" fill="#000000">results for</text>
<text text-anchor="middle" x="259.1242" y="-199" font-family="Helvetica,sans-Serif" font-size="10.00" fill="#000000">proposal</text>
</g>
<!-- A1&#45;&gt;A14 -->
<g id="edge13" class="edge">
<title>A1&#45;&gt;A14</title>
<path fill="none" stroke="#000000" d="M101.5389,-233.0853C128.9415,-229.7666 165.6453,-225.3213 196.7358,-221.5559"/>
</g>
<!-- A15 -->
<g id="node16" class="node">
<title>A15</title>
<ellipse fill="none" stroke="#000000" cx="259.1242" cy="-142" rx="74.3418" ry="22.7556"/>
<text text-anchor="middle" x="259.1242" y="-145" font-family="Helvetica,sans-Serif" font-size="10.00" fill="#000000">Execute proposal</text>
<text text-anchor="middle" x="259.1242" y="-133" font-family="Helvetica,sans-Serif" font-size="10.00" fill="#000000">transaction</text>
</g>
<!-- A1&#45;&gt;A15 -->
<g id="edge14" class="edge">
<title>A1&#45;&gt;A15</title>
<path fill="none" stroke="#000000" d="M101.3127,-212.7948C122.241,-200.2766 148.4788,-185.4271 172.918,-174 184.4872,-168.5906 197.2442,-163.437 209.3169,-158.9077"/>
</g>
<!-- A20 -->
<g id="node21" class="node">
<title>A20</title>
<ellipse fill="none" stroke="#000000" cx="259.1242" cy="-53" rx="85.3413" ry="22.7556"/>
<text text-anchor="middle" x="259.1242" y="-56" font-family="Helvetica,sans-Serif" font-size="10.00" fill="#000000">Token holders voting</text>
<text text-anchor="middle" x="259.1242" y="-44" font-family="Helvetica,sans-Serif" font-size="10.00" fill="#000000">stake unblocking</text>
</g>
<!-- A1&#45;&gt;A20 -->
<g id="edge20" class="edge">
<title>A1&#45;&gt;A20</title>
<path fill="none" stroke="#000000" d="M101.1914,-211.7457C108.5196,-206.0351 115.7781,-199.6847 121.918,-193 151.2059,-161.1129 142.8158,-141.1195 172.918,-110 186.7646,-95.6854 204.8107,-83.0681 220.8113,-73.3673"/>
</g>
<!-- A3 -->
<g id="node4" class="node">
<title>A3</title>
<ellipse fill="none" stroke="#000000" cx="529.8087" cy="-625" rx="68.5486" ry="22.7556"/>
<text text-anchor="middle" x="529.8087" y="-628" font-family="Helvetica,sans-Serif" font-size="10.00" fill="#000000">Proposal status</text>
<text text-anchor="middle" x="529.8087" y="-616" font-family="Helvetica,sans-Serif" font-size="10.00" fill="#000000">validation</text>
</g>
<!-- A2&#45;&gt;A3 -->
<g id="edge2" class="edge">
<title>A2&#45;&gt;A3</title>
<path fill="none" stroke="#000000" stroke-dasharray="5,2" d="M327.8788,-568.3042C374.3154,-581.3422 434.6808,-598.291 477.2738,-610.2498"/>
<polygon fill="#000000" stroke="#000000" points="318.1926,-565.5846 329.0368,-563.9554 323.0064,-566.9362 327.8203,-568.2879 327.8203,-568.2879 327.8203,-568.2879 323.0064,-566.9362 326.6038,-572.6203 318.1926,-565.5846 318.1926,-565.5846"/>
<text text-anchor="middle" x="397.0159" y="-597" font-family="Helvetica,sans-Serif" font-size="10.00" fill="#000000">&lt;&lt;extend&gt;&gt;</text>
</g>
<!-- A5 -->
<g id="node6" class="node">
<title>A5</title>
<ellipse fill="none" stroke="#000000" cx="529.8087" cy="-562" rx="76.2692" ry="22.7556"/>
<text text-anchor="middle" x="529.8087" y="-565" font-family="Helvetica,sans-Serif" font-size="10.00" fill="#000000">Tokens holder</text>
<text text-anchor="middle" x="529.8087" y="-553" font-family="Helvetica,sans-Serif" font-size="10.00" fill="#000000">balance validation</text>
</g>
<!-- A4&#45;&gt;A5 -->
<g id="edge4" class="edge">
<title>A4&#45;&gt;A5</title>
<path fill="none" stroke="#000000" stroke-dasharray="5,2" d="M296.8573,-436.8856C334.2462,-462.7941 393.7247,-502.0698 448.7014,-530 458.9581,-535.2108 470.2733,-540.148 481.1145,-544.5148"/>
<polygon fill="#000000" stroke="#000000" points="288.3047,-430.925 299.0818,-432.9509 292.4068,-433.7839 296.5088,-436.6428 296.5088,-436.6428 296.5088,-436.6428 292.4068,-433.7839 293.9358,-440.3346 288.3047,-430.925 288.3047,-430.925"/>
<text text-anchor="middle" x="397.0159" y="-519" font-family="Helvetica,sans-Serif" font-size="10.00" fill="#000000">&lt;&lt;extend&gt;&gt;</text>
</g>
<!-- A6 -->
<g id="node7" class="node">
<title>A6</title>
<ellipse fill="none" stroke="#000000" cx="529.8087" cy="-490" rx="64.6871" ry="31.2258"/>
<text text-anchor="middle" x="529.8087" y="-499" font-family="Helvetica,sans-Serif" font-size="10.00" fill="#000000">Tokens holder</text>
<text text-anchor="middle" x="529.8087" y="-487" font-family="Helvetica,sans-Serif" font-size="10.00" fill="#000000">allowance</text>
<text text-anchor="middle" x="529.8087" y="-475" font-family="Helvetica,sans-Serif" font-size="10.00" fill="#000000">validation</text>
</g>
<!-- A4&#45;&gt;A6 -->
<g id="edge5" class="edge">
<title>A4&#45;&gt;A6</title>
<path fill="none" stroke="#000000" stroke-dasharray="5,2" d="M323.1122,-428.9115C369.1,-442.503 430.4807,-460.6439 474.3823,-473.6189"/>
<polygon fill="#000000" stroke="#000000" points="313.2507,-425.9969 324.1161,-424.5158 318.0457,-427.4141 322.8406,-428.8313 322.8406,-428.8313 322.8406,-428.8313 318.0457,-427.4141 321.5652,-433.1467 313.2507,-425.9969 313.2507,-425.9969"/>
<text text-anchor="middle" x="397.0159" y="-461" font-family="Helvetica,sans-Serif" font-size="10.00" fill="#000000">&lt;&lt;extend&gt;&gt;</text>
</g>
<!-- A7 -->
<g id="node8" class="node">
<title>A7</title>
<ellipse fill="none" stroke="#000000" cx="529.8087" cy="-410" rx="81.2147" ry="31.2258"/>
<text text-anchor="middle" x="529.8087" y="-419" font-family="Helvetica,sans-Serif" font-size="10.00" fill="#000000">Transferring of</text>
<text text-anchor="middle" x="529.8087" y="-407" font-family="Helvetica,sans-Serif" font-size="10.00" fill="#000000">tokens to the voting</text>
<text text-anchor="middle" x="529.8087" y="-395" font-family="Helvetica,sans-Serif" font-size="10.00" fill="#000000">stake storage</text>
</g>
<!-- A4&#45;&gt;A7 -->
<g id="edge6" class="edge">
<title>A4&#45;&gt;A7</title>
<path fill="none" stroke="#000000" stroke-dasharray="5,2" d="M345.6627,-410C378.5599,-410 415.899,-410 448.3141,-410"/>
<polygon fill="#000000" stroke="#000000" points="335.6061,-410 345.6062,-405.5001 340.6061,-410 345.6061,-410.0001 345.6061,-410.0001 345.6061,-410.0001 340.6061,-410 345.6061,-414.5001 335.6061,-410 335.6061,-410"/>
<text text-anchor="middle" x="397.0159" y="-413" font-family="Helvetica,sans-Serif" font-size="10.00" fill="#000000">&lt;&lt;extend&gt;&gt;</text>
</g>
<!-- A8 -->
<g id="node9" class="node">
<title>A8</title>
<ellipse fill="none" stroke="#000000" cx="529.8087" cy="-338" rx="75.6994" ry="22.7556"/>
<text text-anchor="middle" x="529.8087" y="-341" font-family="Helvetica,sans-Serif" font-size="10.00" fill="#000000">Applying of voting</text>
<text text-anchor="middle" x="529.8087" y="-329" font-family="Helvetica,sans-Serif" font-size="10.00" fill="#000000">algorithm</text>
</g>
<!-- A4&#45;&gt;A8 -->
<g id="edge7" class="edge">
<title>A4&#45;&gt;A8</title>
<path fill="none" stroke="#000000" stroke-dasharray="5,2" d="M325.9261,-392.2312C371.1903,-380.1913 430.3501,-364.4552 473.2768,-353.0371"/>
<polygon fill="#000000" stroke="#000000" points="316.1987,-394.8186 324.7059,-387.8992 321.0307,-393.5333 325.8627,-392.248 325.8627,-392.248 325.8627,-392.248 321.0307,-393.5333 327.0194,-396.5968 316.1987,-394.8186 316.1987,-394.8186"/>
<text text-anchor="middle" x="397.0159" y="-382" font-family="Helvetica,sans-Serif" font-size="10.00" fill="#000000">&lt;&lt;extend&gt;&gt;</text>
</g>
<!-- A9 -->
<g id="node10" class="node">
<title>A9</title>
<polygon fill="none" stroke="#000000" points="772.512,-356 665.564,-356 665.564,-320 778.512,-320 778.512,-350 772.512,-356"/>
<polyline fill="none" stroke="#000000" points="772.512,-356 772.512,-350 "/>
<polyline fill="none" stroke="#000000" points="778.512,-350 772.512,-350 "/>
<text text-anchor="middle" x="722.038" y="-341" font-family="Helvetica,sans-Serif" font-size="10.00" fill="#000000">Is it should be a</text>
<text text-anchor="middle" x="722.038" y="-329" font-family="Helvetica,sans-Serif" font-size="10.00" fill="#000000">quadratic function?</text>
</g>
<!-- A8&#45;&gt;A9 -->
<g id="edge8" class="edge">
<title>A8&#45;&gt;A9</title>
<path fill="none" stroke="#000000" stroke-dasharray="5,2" d="M605.5069,-338C625.5742,-338 646.8863,-338 665.7219,-338"/>
</g>
<!-- A11 -->
<g id="node12" class="node">
<title>A11</title>
<ellipse fill="none" stroke="#000000" cx="529.8087" cy="-275" rx="75.6994" ry="22.7556"/>
<text text-anchor="middle" x="529.8087" y="-278" font-family="Helvetica,sans-Serif" font-size="10.00" fill="#000000">Applying of voting</text>
<text text-anchor="middle" x="529.8087" y="-266" font-family="Helvetica,sans-Serif" font-size="10.00" fill="#000000">rules</text>
</g>
<!-- A10&#45;&gt;A11 -->
<g id="edge10" class="edge">
<title>A10&#45;&gt;A11</title>
<path fill="none" stroke="#000000" stroke-dasharray="5,2" d="M348.2249,-282.3792C382.7475,-280.9762 421.8325,-279.3879 454.8741,-278.0452"/>
<polygon fill="#000000" stroke="#000000" points="338.145,-282.7888 347.954,-277.8863 343.1409,-282.5857 348.1368,-282.3826 348.1368,-282.3826 348.1368,-282.3826 343.1409,-282.5857 348.3195,-286.8789 338.145,-282.7888 338.145,-282.7888"/>
<text text-anchor="middle" x="397.0159" y="-285" font-family="Helvetica,sans-Serif" font-size="10.00" fill="#000000">&lt;&lt;extend&gt;&gt;</text>
</g>
<!-- A12 -->
<g id="node13" class="node">
<title>A12</title>
<ellipse fill="none" stroke="#000000" cx="529.8087" cy="-212" rx="77.3392" ry="22.7556"/>
<text text-anchor="middle" x="529.8087" y="-215" font-family="Helvetica,sans-Serif" font-size="10.00" fill="#000000">Updating proposal</text>
<text text-anchor="middle" x="529.8087" y="-203" font-family="Helvetica,sans-Serif" font-size="10.00" fill="#000000">status</text>
</g>
<!-- A10&#45;&gt;A12 -->
<g id="edge11" class="edge">
<title>A10&#45;&gt;A12</title>
<path fill="none" stroke="#000000" stroke-dasharray="5,2" d="M326.2265,-267.6555C371.3371,-255.3231 430.1462,-239.2458 472.951,-227.5438"/>
<polygon fill="#000000" stroke="#000000" points="316.5294,-270.3065 324.9888,-263.3287 321.3525,-268.9879 326.1755,-267.6694 326.1755,-267.6694 326.1755,-267.6694 321.3525,-268.9879 327.3622,-272.0101 316.5294,-270.3065 316.5294,-270.3065"/>
<text text-anchor="middle" x="397.0159" y="-257" font-family="Helvetica,sans-Serif" font-size="10.00" fill="#000000">&lt;&lt;extend&gt;&gt;</text>
</g>
<!-- A13 -->
<g id="node14" class="node">
<title>A13</title>
<polygon fill="none" stroke="#000000" points="768.8322,-294 669.2438,-294 669.2438,-258 774.8322,-258 774.8322,-288 768.8322,-294"/>
<polyline fill="none" stroke="#000000" points="768.8322,-294 768.8322,-288 "/>
<polyline fill="none" stroke="#000000" points="774.8322,-288 768.8322,-288 "/>
<text text-anchor="middle" x="722.038" y="-279" font-family="Helvetica,sans-Serif" font-size="10.00" fill="#000000">Is this rule should</text>
<text text-anchor="middle" x="722.038" y="-267" font-family="Helvetica,sans-Serif" font-size="10.00" fill="#000000">be configurable?</text>
</g>
<!-- A11&#45;&gt;A13 -->
<g id="edge12" class="edge">
<title>A11&#45;&gt;A13</title>
<path fill="none" stroke="#000000" stroke-dasharray="5,2" d="M605.5069,-275.3938C626.8349,-275.5047 649.5692,-275.623 669.2418,-275.7253"/>
</g>
<!-- A19 -->
<g id="node20" class="node">
<title>A19</title>
<polygon fill="none" stroke="#000000" points="776.2822,-240 661.7937,-240 661.7937,-184 782.2822,-184 782.2822,-234 776.2822,-240"/>
<polyline fill="none" stroke="#000000" points="776.2822,-240 776.2822,-234 "/>
<polyline fill="none" stroke="#000000" points="782.2822,-234 776.2822,-234 "/>
<text text-anchor="middle" x="722.038" y="-227" font-family="Helvetica,sans-Serif" font-size="10.00" fill="#000000">On request from the</text>
<text text-anchor="middle" x="722.038" y="-215" font-family="Helvetica,sans-Serif" font-size="10.00" fill="#000000">whitelisted address.</text>
<text text-anchor="middle" x="722.038" y="-203" font-family="Helvetica,sans-Serif" font-size="10.00" fill="#000000">Usually from the</text>
<text text-anchor="middle" x="722.038" y="-191" font-family="Helvetica,sans-Serif" font-size="10.00" fill="#000000">Code owner address</text>
</g>
<!-- A12&#45;&gt;A19 -->
<g id="edge19" class="edge">
<title>A12&#45;&gt;A19</title>
<path fill="none" stroke="#000000" stroke-dasharray="5,2" d="M607.1648,-212C625.3177,-212 644.3994,-212 661.6821,-212"/>
</g>
<!-- A15&#45;&gt;A12 -->
<g id="edge18" class="edge">
<title>A15&#45;&gt;A12</title>
<path fill="none" stroke="#000000" stroke-dasharray="5,2" d="M325.7744,-159.236C370.5202,-170.8074 428.8969,-185.9038 471.7388,-196.9829"/>
<polygon fill="#000000" stroke="#000000" points="315.8686,-156.6743 326.6768,-154.8214 320.7093,-157.9262 325.5501,-159.178 325.5501,-159.178 325.5501,-159.178 320.7093,-157.9262 324.4234,-163.5347 315.8686,-156.6743 315.8686,-156.6743"/>
<text text-anchor="middle" x="397.0159" y="-187" font-family="Helvetica,sans-Serif" font-size="10.00" fill="#000000">&lt;&lt;extend&gt;&gt;</text>
</g>
<!-- A16 -->
<g id="node17" class="node">
<title>A16</title>
<ellipse fill="none" stroke="#000000" cx="529.8087" cy="-148" rx="74.62" ry="22.7556"/>
<text text-anchor="middle" x="529.8087" y="-151" font-family="Helvetica,sans-Serif" font-size="10.00" fill="#000000">Validating access</text>
<text text-anchor="middle" x="529.8087" y="-139" font-family="Helvetica,sans-Serif" font-size="10.00" fill="#000000">rights</text>
</g>
<!-- A15&#45;&gt;A16 -->
<g id="edge15" class="edge">
<title>A15&#45;&gt;A16</title>
<path fill="none" stroke="#000000" stroke-dasharray="5,2" d="M343.8402,-143.8778C379.5134,-144.6686 420.6693,-145.5808 455.1811,-146.3458"/>
<polygon fill="#000000" stroke="#000000" points="333.448,-143.6475 343.5453,-139.3703 338.4467,-143.7583 343.4455,-143.8692 343.4455,-143.8692 343.4455,-143.8692 338.4467,-143.7583 343.3458,-148.3681 333.448,-143.6475 333.448,-143.6475"/>
<text text-anchor="middle" x="397.0159" y="-149" font-family="Helvetica,sans-Serif" font-size="10.00" fill="#000000">&lt;&lt;extend&gt;&gt;</text>
</g>
<!-- A18 -->
<g id="node19" class="node">
<title>A18</title>
<ellipse fill="none" stroke="#000000" cx="529.8087" cy="-85" rx="79.8373" ry="22.7556"/>
<text text-anchor="middle" x="529.8087" y="-88" font-family="Helvetica,sans-Serif" font-size="10.00" fill="#000000">Validating proposal</text>
<text text-anchor="middle" x="529.8087" y="-76" font-family="Helvetica,sans-Serif" font-size="10.00" fill="#000000">results</text>
</g>
<!-- A15&#45;&gt;A18 -->
<g id="edge17" class="edge">
<title>A15&#45;&gt;A18</title>
<path fill="none" stroke="#000000" stroke-dasharray="5,2" d="M330.3951,-126.992C372.2435,-118.1796 424.7162,-107.1301 465.3303,-98.5777"/>
<polygon fill="#000000" stroke="#000000" points="320.5467,-129.0658 329.4048,-122.6017 325.4394,-128.0355 330.3321,-127.0052 330.3321,-127.0052 330.3321,-127.0052 325.4394,-128.0355 331.2594,-131.4086 320.5467,-129.0658 320.5467,-129.0658"/>
<text text-anchor="middle" x="397.0159" y="-120" font-family="Helvetica,sans-Serif" font-size="10.00" fill="#000000">&lt;&lt;extend&gt;&gt;</text>
</g>
<!-- A17 -->
<g id="node18" class="node">
<title>A17</title>
<polygon fill="none" stroke="#000000" points="770.052,-166 668.024,-166 668.024,-122 776.052,-122 776.052,-160 770.052,-166"/>
<polyline fill="none" stroke="#000000" points="770.052,-166 770.052,-160 "/>
<polyline fill="none" stroke="#000000" points="776.052,-160 770.052,-160 "/>
<text text-anchor="middle" x="722.038" y="-153" font-family="Helvetica,sans-Serif" font-size="10.00" fill="#000000">Should be</text>
<text text-anchor="middle" x="722.038" y="-141" font-family="Helvetica,sans-Serif" font-size="10.00" fill="#000000">whitelisted sender</text>
<text text-anchor="middle" x="722.038" y="-129" font-family="Helvetica,sans-Serif" font-size="10.00" fill="#000000">address</text>
</g>
<!-- A16&#45;&gt;A17 -->
<g id="edge16" class="edge">
<title>A16&#45;&gt;A17</title>
<path fill="none" stroke="#000000" stroke-dasharray="5,2" d="M604.68,-146.442C625.7639,-146.0033 648.2834,-145.5347 667.8998,-145.1265"/>
</g>
<!-- A21 -->
<g id="node22" class="node">
<title>A21</title>
<polygon fill="none" stroke="#000000" points="572.1453,-44 481.4721,-44 481.4721,0 578.1453,0 578.1453,-38 572.1453,-44"/>
<polyline fill="none" stroke="#000000" points="572.1453,-44 572.1453,-38 "/>
<polyline fill="none" stroke="#000000" points="578.1453,-38 572.1453,-38 "/>
<text text-anchor="middle" x="529.8087" y="-31" font-family="Helvetica,sans-Serif" font-size="10.00" fill="#000000">Which way of</text>
<text text-anchor="middle" x="529.8087" y="-19" font-family="Helvetica,sans-Serif" font-size="10.00" fill="#000000">withdrawing we</text>
<text text-anchor="middle" x="529.8087" y="-7" font-family="Helvetica,sans-Serif" font-size="10.00" fill="#000000">should choose</text>
</g>
<!-- A20&#45;&gt;A21 -->
<g id="edge21" class="edge">
<title>A20&#45;&gt;A21</title>
<path fill="none" stroke="#000000" stroke-dasharray="5,2" d="M337.781,-43.9919C384.2971,-38.6646 441.7169,-32.0887 481.5901,-27.5222"/>
</g>
<!-- A22 -->
<g id="node23" class="node">
<title>A22</title>
<g transform="translate(60.959,-654)" style="fill:none;stroke:black;stroke-width:1px"><circle cx="0" cy="-20" r="7.5" />
                <line x1="0" y1="-12.5" x2="0" y2="5" />
                <line x1="-15" y1="-5" x2="15" y2="-5" />
                <line x1="0" y1="5" x2="-15" y2="17" />
                <line x1="0" y1="5" x2="15" y2="17" /></g>
<text text-anchor="middle" x="60.959" y="-629" font-family="Helvetica,sans-Serif" font-size="10.00" fill="#000000">Code owner</text>
</g>
<!-- A23 -->
<g id="node24" class="node">
<title>A23</title>
<ellipse fill="none" stroke="#000000" cx="259.1242" cy="-693" rx="85.0479" ry="22.7556"/>
<text text-anchor="middle" x="259.1242" y="-696" font-family="Helvetica,sans-Serif" font-size="10.00" fill="#000000">View proposal voting</text>
<text text-anchor="middle" x="259.1242" y="-684" font-family="Helvetica,sans-Serif" font-size="10.00" fill="#000000">results</text>
</g>
<!-- A22&#45;&gt;A23 -->
<g id="edge22" class="edge">
<title>A22&#45;&gt;A23</title>
<path fill="none" stroke="#000000" d="M117.2151,-667.2199C139.4139,-671.2526 165.164,-675.9306 188.5872,-680.1858"/>
</g>
<!-- A24 -->
<g id="node25" class="node">
<title>A24</title>
<ellipse fill="none" stroke="#000000" cx="259.1242" cy="-621" rx="81.4909" ry="31.2258"/>
<text text-anchor="middle" x="259.1242" y="-630" font-family="Helvetica,sans-Serif" font-size="10.00" fill="#000000">Sending request for</text>
<text text-anchor="middle" x="259.1242" y="-618" font-family="Helvetica,sans-Serif" font-size="10.00" fill="#000000">update proposal</text>
<text text-anchor="middle" x="259.1242" y="-606" font-family="Helvetica,sans-Serif" font-size="10.00" fill="#000000">status</text>
</g>
<!-- A22&#45;&gt;A24 -->
<g id="edge23" class="edge">
<title>A22&#45;&gt;A24</title>
<path fill="none" stroke="#000000" d="M117.2151,-646.7801C138.384,-642.9345 162.7824,-638.5021 185.3128,-634.4091"/>
</g>
<!-- A25 -->
<g id="node26" class="node">
<title>A25</title>
<g transform="translate(60.959,-816)" style="fill:none;stroke:black;stroke-width:1px"><circle cx="0" cy="-20" r="7.5" />
                <line x1="0" y1="-12.5" x2="0" y2="5" />
                <line x1="-15" y1="-5" x2="15" y2="-5" />
                <line x1="0" y1="5" x2="-15" y2="17" />
                <line x1="0" y1="5" x2="15" y2="17" /></g>
<text text-anchor="middle" x="60.959" y="-791" font-family="Helvetica,sans-Serif" font-size="10.00" fill="#000000">Tokens holder</text>
</g>
<!-- A26 -->
<g id="node27" class="node">
<title>A26</title>
<ellipse fill="none" stroke="#000000" cx="259.1242" cy="-882" rx="52.3217" ry="22.7556"/>
<text text-anchor="middle" x="259.1242" y="-885" font-family="Helvetica,sans-Serif" font-size="10.00" fill="#000000">Viewing of</text>
<text text-anchor="middle" x="259.1242" y="-873" font-family="Helvetica,sans-Serif" font-size="10.00" fill="#000000">proposals</text>
</g>
<!-- A25&#45;&gt;A26 -->
<g id="edge24" class="edge">
<title>A25&#45;&gt;A26</title>
<path fill="none" stroke="#000000" d="M122.0321,-838.4161C152.737,-848.1777 189.182,-859.7642 216.7743,-868.5362"/>
</g>
<!-- A28 -->
<g id="node29" class="node">
<title>A28</title>
<ellipse fill="none" stroke="#000000" cx="259.1242" cy="-819" rx="77.3519" ry="22.7556"/>
<text text-anchor="middle" x="259.1242" y="-822" font-family="Helvetica,sans-Serif" font-size="10.00" fill="#000000">Sending a vote for</text>
<text text-anchor="middle" x="259.1242" y="-810" font-family="Helvetica,sans-Serif" font-size="10.00" fill="#000000">proposal</text>
</g>
<!-- A25&#45;&gt;A28 -->
<g id="edge26" class="edge">
<title>A25&#45;&gt;A28</title>
<path fill="none" stroke="#000000" d="M122.0321,-819C140.9099,-819 161.9575,-819 181.7834,-819"/>
</g>
<!-- A30 -->
<g id="node31" class="node">
<title>A30</title>
<ellipse fill="none" stroke="#000000" cx="259.1242" cy="-756" rx="73.4765" ry="22.7556"/>
<text text-anchor="middle" x="259.1242" y="-759" font-family="Helvetica,sans-Serif" font-size="10.00" fill="#000000">Viewing of voting</text>
<text text-anchor="middle" x="259.1242" y="-747" font-family="Helvetica,sans-Serif" font-size="10.00" fill="#000000">results</text>
</g>
<!-- A25&#45;&gt;A30 -->
<g id="edge28" class="edge">
<title>A25&#45;&gt;A30</title>
<path fill="none" stroke="#000000" d="M122.0321,-799.5839C149.5528,-790.8346 181.6847,-780.6193 207.9207,-772.2785"/>
</g>
<!-- A27 -->
<g id="node28" class="node">
<title>A27</title>
<ellipse fill="none" stroke="#000000" cx="529.8087" cy="-882" rx="62.4786" ry="22.7556"/>
<text text-anchor="middle" x="529.8087" y="-885" font-family="Helvetica,sans-Serif" font-size="10.00" fill="#000000">Filtering by</text>
<text text-anchor="middle" x="529.8087" y="-873" font-family="Helvetica,sans-Serif" font-size="10.00" fill="#000000">proposal type</text>
</g>
<!-- A26&#45;&gt;A27 -->
<g id="edge25" class="edge">
<title>A26&#45;&gt;A27</title>
<path fill="none" stroke="#000000" stroke-dasharray="5,2" d="M321.8703,-882C365.639,-882 423.7949,-882 467.4733,-882"/>
<polygon fill="#000000" stroke="#000000" points="311.6359,-882 321.6359,-877.5001 316.6359,-882 321.6359,-882.0001 321.6359,-882.0001 321.6359,-882.0001 316.6359,-882 321.6358,-886.5001 311.6359,-882 311.6359,-882"/>
<text text-anchor="middle" x="397.0159" y="-885" font-family="Helvetica,sans-Serif" font-size="10.00" fill="#000000">&lt;&lt;extend&gt;&gt;</text>
</g>
<!-- A29 -->
<g id="node30" class="node">
<title>A29</title>
<ellipse fill="none" stroke="#000000" cx="529.8087" cy="-819" rx="68.8265" ry="22.7556"/>
<text text-anchor="middle" x="529.8087" y="-822" font-family="Helvetica,sans-Serif" font-size="10.00" fill="#000000">Tokens transfer</text>
<text text-anchor="middle" x="529.8087" y="-810" font-family="Helvetica,sans-Serif" font-size="10.00" fill="#000000">approval</text>
</g>
<!-- A28&#45;&gt;A29 -->
<g id="edge27" class="edge">
<title>A28&#45;&gt;A29</title>
<path fill="none" stroke="#000000" stroke-dasharray="5,2" d="M346.6084,-819C383.6066,-819 426.0816,-819 460.8121,-819"/>
<polygon fill="#000000" stroke="#000000" points="336.3293,-819 346.3293,-814.5001 341.3293,-819 346.3293,-819.0001 346.3293,-819.0001 346.3293,-819.0001 341.3293,-819 346.3292,-823.5001 336.3293,-819 336.3293,-819"/>
<text text-anchor="middle" x="397.0159" y="-822" font-family="Helvetica,sans-Serif" font-size="10.00" fill="#000000">&lt;&lt;extend&gt;&gt;</text>
</g>
</g>
</svg>
