<?xml version="1.0" encoding="UTF-8" standalone="no"?>
<!DOCTYPE svg PUBLIC "-//W3C//DTD SVG 1.1//EN"
 "http://www.w3.org/Graphics/SVG/1.1/DTD/svg11.dtd">
<!-- Generated by graphviz version 2.40.1 (20161225.0304)
 -->
<!-- Title: G Pages: 1 -->
<svg width="718pt" height="369pt"
 viewBox="0.00 0.00 718.07 369.11" xmlns="http://www.w3.org/2000/svg" xmlns:xlink="http://www.w3.org/1999/xlink">
<g id="graph0" class="graph" transform="scale(1 1) rotate(0) translate(4 365.1127)">
<title>G</title>
<polygon fill="#ffffff" stroke="transparent" points="-4,4 -4,-365.1127 714.0682,-365.1127 714.0682,4 -4,4"/>
<!-- A0 -->
<g id="node1" class="node">
<title>A0</title>
<polygon fill="#f5f5dc" stroke="#000000" points="104.9219,-44 1.5471,-44 1.5471,0 110.9219,0 110.9219,-38 104.9219,-44"/>
<polyline fill="none" stroke="#000000" points="104.9219,-44 104.9219,-38 "/>
<polyline fill="none" stroke="#000000" points="110.9219,-38 104.9219,-38 "/>
<text text-anchor="middle" x="56.2345" y="-31" font-family="Helvetica,sans-Serif" font-size="10.00" fill="#000000">Whitelisting of</text>
<text text-anchor="middle" x="56.2345" y="-19" font-family="Helvetica,sans-Serif" font-size="10.00" fill="#000000">proposals senders</text>
<text text-anchor="middle" x="56.2345" y="-7" font-family="Helvetica,sans-Serif" font-size="10.00" fill="#000000">addresses</text>
</g>
<!-- A1 -->
<g id="node2" class="node">
<title>A1</title>
<g transform="translate(56.2345,-95)" style="fill:none;stroke:black;stroke-width:1px"><circle cx="0" cy="-20" r="7.5" />
                <line x1="0" y1="-12.5" x2="0" y2="5" />
                <line x1="-15" y1="-5" x2="15" y2="-5" />
                <line x1="0" y1="5" x2="-15" y2="17" />
                <line x1="0" y1="5" x2="15" y2="17" /></g>
<text text-anchor="middle" x="56.2345" y="-70" font-family="Helvetica,sans-Serif" font-size="10.00" fill="#000000">Code owner</text>
</g>
<!-- A2 -->
<g id="node3" class="node">
<title>A2</title>
<ellipse fill="none" stroke="#000000" cx="245.347" cy="-98" rx="81.7562" ry="39.6962"/>
<text text-anchor="middle" x="245.347" y="-113" font-family="Helvetica,sans-Serif" font-size="10.00" fill="#000000">Sending of the</text>
<text text-anchor="middle" x="245.347" y="-101" font-family="Helvetica,sans-Serif" font-size="10.00" fill="#000000">proposal sender</text>
<text text-anchor="middle" x="245.347" y="-89" font-family="Helvetica,sans-Serif" font-size="10.00" fill="#000000">address registration</text>
<text text-anchor="middle" x="245.347" y="-77" font-family="Helvetica,sans-Serif" font-size="10.00" fill="#000000">request</text>
</g>
<!-- A1&#45;&gt;A2 -->
<g id="edge1" class="edge">
<title>A1&#45;&gt;A2</title>
<path fill="none" stroke="#000000" d="M112.7183,-98C128.6087,-98 146.2212,-98 163.2815,-98"/>
</g>
<!-- A3 -->
<g id="node4" class="node">
<title>A3</title>
<polygon fill="none" stroke="#000000" points="541.9046,-120 439.8546,-120 439.8546,-76 547.9046,-76 547.9046,-114 541.9046,-120"/>
<polyline fill="none" stroke="#000000" points="541.9046,-120 541.9046,-114 "/>
<polyline fill="none" stroke="#000000" points="547.9046,-114 541.9046,-114 "/>
<text text-anchor="middle" x="493.8796" y="-107" font-family="Helvetica,sans-Serif" font-size="10.00" fill="#000000">Is it necessary to</text>
<text text-anchor="middle" x="493.8796" y="-95" font-family="Helvetica,sans-Serif" font-size="10.00" fill="#000000">add special voting</text>
<text text-anchor="middle" x="493.8796" y="-83" font-family="Helvetica,sans-Serif" font-size="10.00" fill="#000000">case for this?</text>
</g>
<!-- A2&#45;&gt;A3 -->
<g id="edge2" class="edge">
<title>A2&#45;&gt;A3</title>
<path fill="none" stroke="#000000" stroke-dasharray="5,2" d="M327.4147,-98C364.3176,-98 406.8546,-98 439.6919,-98"/>
</g>
<!-- A4 -->
<g id="node5" class="node">
<title>A4</title>
<g transform="translate(56.2345,-247)" style="fill:none;stroke:black;stroke-width:1px"><circle cx="0" cy="-20" r="7.5" />
                <line x1="0" y1="-12.5" x2="0" y2="5" />
                <line x1="-15" y1="-5" x2="15" y2="-5" />
                <line x1="0" y1="5" x2="-15" y2="17" />
                <line x1="0" y1="5" x2="15" y2="17" /></g>
<text text-anchor="middle" x="56.2345" y="-222" font-family="Helvetica,sans-Serif" font-size="10.00" fill="#000000">DAO</text>
</g>
<!-- A5 -->
<g id="node6" class="node">
<title>A5</title>
<ellipse fill="none" stroke="#000000" cx="245.347" cy="-330" rx="64.4084" ry="31.2258"/>
<text text-anchor="middle" x="245.347" y="-339" font-family="Helvetica,sans-Serif" font-size="10.00" fill="#000000">Registering of</text>
<text text-anchor="middle" x="245.347" y="-327" font-family="Helvetica,sans-Serif" font-size="10.00" fill="#000000">address in the</text>
<text text-anchor="middle" x="245.347" y="-315" font-family="Helvetica,sans-Serif" font-size="10.00" fill="#000000">white&#45;list</text>
</g>
<!-- A4&#45;&gt;A5 -->
<g id="edge3" class="edge">
<title>A4&#45;&gt;A5</title>
<path fill="none" stroke="#000000" d="M96.8039,-267.162C126.107,-279.5581 165.8131,-296.3549 196.8013,-309.4638"/>
</g>
<!-- A8 -->
<g id="node9" class="node">
<title>A8</title>
<ellipse fill="none" stroke="#000000" cx="245.347" cy="-250" rx="68.8209" ry="31.2258"/>
<text text-anchor="middle" x="245.347" y="-259" font-family="Helvetica,sans-Serif" font-size="10.00" fill="#000000">De&#45;listing of the</text>
<text text-anchor="middle" x="245.347" y="-247" font-family="Helvetica,sans-Serif" font-size="10.00" fill="#000000">whitelisted</text>
<text text-anchor="middle" x="245.347" y="-235" font-family="Helvetica,sans-Serif" font-size="10.00" fill="#000000">addresses</text>
</g>
<!-- A4&#45;&gt;A8 -->
<g id="edge6" class="edge">
<title>A4&#45;&gt;A8</title>
<path fill="none" stroke="#000000" d="M96.8039,-250C119.9208,-250 149.512,-250 176.1897,-250"/>
</g>
<!-- A9 -->
<g id="node10" class="node">
<title>A9</title>
<ellipse fill="none" stroke="#000000" cx="245.347" cy="-178" rx="78.1881" ry="22.7556"/>
<text text-anchor="middle" x="245.347" y="-181" font-family="Helvetica,sans-Serif" font-size="10.00" fill="#000000">Expose whitelisted</text>
<text text-anchor="middle" x="245.347" y="-169" font-family="Helvetica,sans-Serif" font-size="10.00" fill="#000000">addresses</text>
</g>
<!-- A4&#45;&gt;A9 -->
<g id="edge8" class="edge">
<title>A4&#45;&gt;A9</title>
<path fill="none" stroke="#000000" d="M96.8039,-234.5542C126.4326,-223.2738 166.6967,-207.9442 197.831,-196.0906"/>
</g>
<!-- A6 -->
<g id="node7" class="node">
<title>A6</title>
<ellipse fill="none" stroke="#000000" cx="493.8796" cy="-278" rx="63.0679" ry="18"/>
<text text-anchor="middle" x="493.8796" y="-275" font-family="Helvetica,sans-Serif" font-size="10.00" fill="#000000">Access validation</text>
</g>
<!-- A5&#45;&gt;A6 -->
<g id="edge4" class="edge">
<title>A5&#45;&gt;A6</title>
<path fill="none" stroke="#000000" stroke-dasharray="5,2" d="M314.4022,-315.5517C355.0561,-307.0458 405.6058,-296.4694 442.689,-288.7105"/>
<polygon fill="#000000" stroke="#000000" points="304.561,-317.6108 313.4275,-311.1581 309.455,-316.5868 314.3491,-315.5628 314.3491,-315.5628 314.3491,-315.5628 309.455,-316.5868 315.2707,-319.9674 304.561,-317.6108 304.561,-317.6108"/>
<text text-anchor="middle" x="378.9105" y="-310" font-family="Helvetica,sans-Serif" font-size="10.00" fill="#000000">&lt;&lt;extend&gt;&gt;</text>
</g>
<!-- A7 -->
<g id="node8" class="node">
<title>A7</title>
<polygon fill="none" stroke="#000000" points="704.0207,-296 608.2107,-296 608.2107,-260 710.0207,-260 710.0207,-290 704.0207,-296"/>
<polyline fill="none" stroke="#000000" points="704.0207,-296 704.0207,-290 "/>
<polyline fill="none" stroke="#000000" points="710.0207,-290 704.0207,-290 "/>
<text text-anchor="middle" x="659.1157" y="-275" font-family="Helvetica,sans-Serif" font-size="10.00" fill="#000000">How to validate?</text>
</g>
<!-- A6&#45;&gt;A7 -->
<g id="edge5" class="edge">
<title>A6&#45;&gt;A7</title>
<path fill="none" stroke="#000000" stroke-dasharray="5,2" d="M557.2916,-278C574.1286,-278 592.0922,-278 608.17,-278"/>
</g>
<!-- A8&#45;&gt;A6 -->
<g id="edge7" class="edge">
<title>A8&#45;&gt;A6</title>
<path fill="none" stroke="#000000" stroke-dasharray="5,2" d="M322.3287,-258.6729C358.6088,-262.7602 401.2087,-267.5596 434.8812,-271.3532"/>
<polygon fill="#000000" stroke="#000000" points="312.2761,-257.5403 322.7171,-254.1882 317.2447,-258.1001 322.2133,-258.6599 322.2133,-258.6599 322.2133,-258.6599 317.2447,-258.1001 321.7094,-263.1316 312.2761,-257.5403 312.2761,-257.5403"/>
<text text-anchor="middle" x="378.9105" y="-270" font-family="Helvetica,sans-Serif" font-size="10.00" fill="#000000">&lt;&lt;extend&gt;&gt;</text>
</g>
</g>
</svg>
